<svg xmlns="http://www.w3.org/2000/svg"><symbol id="svg-recording" viewBox="0 0 40 40"><path d="M27.9 17.8h2.7c.2 0 .2 0 .2.2v2.8c0 .5-.1 1.1-.2 1.6-.1.6-.3 1.2-.5 1.7-.3.9-.8 1.7-1.3 2.5S27.7 28 27 28.7c-.7.6-1.4 1.1-2.3 1.5-.6.3-1.2.5-1.8.7-.2.1-.4.1-.7.2-.2 0-.2.1-.2.2v5.4c0 .1 0 .2.2.2h3.9c.6 0 1.2.1 1.7.5s.9.9 1.1 1.5c.1.3.1.5.1.8 0 .1 0 .1-.1.1h-18c-.2 0-.3 0-.2-.2.1-.5.2-1 .6-1.5.3-.5.8-.8 1.3-1 .3-.1.6-.2.9-.2h4c.2 0 .2 0 .2-.2v-5.3c0-.2 0-.2-.2-.3-.5-.1-1-.3-1.5-.5-.9-.3-1.7-.8-2.4-1.3-.9-.6-1.6-1.3-2.2-2.2-.5-.7-1-1.4-1.3-2.3-.2-.6-.4-1.1-.6-1.7-.1-.3-.1-.7-.2-1-.3-1.4-.1-2.7-.2-4.1 0-.2.1-.2.2-.2h18.6zm1.4 2.6v-.9c0-.1 0-.1-.1-.1h-1.1c-.1 0-.1 0-.1.1 0 .6 0 1.1-.1 1.7 0 .4-.1.7-.2 1-.1.5-.3 1-.5 1.5-.3.7-.7 1.3-1.1 1.8-.5.6-1 1.1-1.6 1.5-.7.5-1.5.9-2.3 1.1-.5.1-1.1.2-1.6.3h-1.4c-.6-.1-1.2-.2-1.8-.4-.7-.2-1.3-.6-1.9-1-.7-.5-1.4-1.1-1.9-1.9-.5-.6-.8-1.3-1.1-2.1-.2-.5-.3-1-.4-1.5-.1-.5-.1-1-.1-1.6v-.5c0-.1 0-.1-.1-.1h-1.1c-.2 0-.2 0-.2.2 0 .7 0 1.4.1 2.1.1.4.1.7.2 1.1.2.6.4 1.1.6 1.7.4.9.9 1.6 1.6 2.4.7.7 1.5 1.4 2.3 1.9.8.4 1.6.8 2.5 1 .5.1 1.1.2 1.6.2.8 0 1.6 0 2.5-.2.5-.1 1-.2 1.4-.4.9-.4 1.8-.9 2.6-1.6.9-.8 1.7-1.8 2.3-2.9.2-.4.4-.7.5-1.1.1-.3.2-.7.3-1 .1-.5.2-.9.2-1.4.1-.5 0-.7 0-.9zM27.9 7.1c0-.2 0-.3-.1-.5-.1-.4-.2-.8-.4-1.1H12.6c-.1.3-.2.6-.3 1-.1.4-.2.9-.2 1.3h15.8v-.7zM26.1 3.2c-.7-.8-1.5-1.5-2.4-2-.5-.3-1-.5-1.5-.6L20.7.3c-.7-.1-1.5 0-2.2.1-.5.1-.9.2-1.4.4-.7.3-1.4.7-2.1 1.2-.6.5-1.1 1.1-1.6 1.7h13.1c-.1-.1-.2-.3-.4-.5zM12.1 16.1H28v-2.4H12.1v2.4zM12.1 9.5V12H28V9.5H12.1z"/><path d="M12.1 17.8H28v-1.7H12.1v1.7zM12.1 13.7H28V12H12.1v1.7zM27.9 8.4v-.6H12.1v1.7H28c-.1-.3-.1-.7-.1-1.1zM27.2 5c-.2-.4-.4-.8-.7-1.2h-13c-.1.1-.2.2-.2.3-.3.5-.5.9-.7 1.4h14.8c0-.2-.1-.3-.2-.5z" fill="#fff"/></symbol></svg>