<?xml version="1.0" standalone="no"?>
<!DOCTYPE svg PUBLIC "-//W3C//DTD SVG 20010904//EN"
 "http://www.w3.org/TR/2001/REC-SVG-20010904/DTD/svg10.dtd">
<svg version="1.0" xmlns="http://www.w3.org/2000/svg"
 width="366.000000pt" height="376.000000pt" viewBox="0 0 366.000000 376.000000"
 preserveAspectRatio="xMidYMid meet">
<metadata>
Created by potrace 1.15, written by Peter Selinger 2001-2017
</metadata>
<g transform="translate(0.000000,376.000000) scale(0.100000,-0.100000)"
fill="#000000" stroke="none">
<path d="M1702 3652 c-148 -141 -148 -130 8 -288 l120 -121 120 121 c156 158
156 147 8 288 -62 59 -120 108 -128 108 -8 0 -66 -49 -128 -108z"/>
<path d="M748 3362 c-94 -94 -128 -134 -128 -152 0 -18 35 -60 132 -157 112
-112 137 -133 163 -133 25 0 50 20 153 123 146 147 148 151 70 234 -85 90
-226 213 -245 213 -9 0 -75 -58 -145 -128z"/>
<path d="M2662 3411 c-48 -43 -111 -103 -139 -134 -79 -83 -77 -88 70 -235
102 -102 127 -122 152 -122 25 0 52 21 163 133 97 97 132 139 132 157 0 18
-34 58 -128 152 -70 70 -136 128 -145 128 -9 0 -57 -35 -105 -79z"/>
<path d="M1396 3347 c-96 -93 -126 -128 -126 -148 0 -19 33 -58 137 -162 83
-82 145 -137 157 -137 11 0 70 50 143 122 l123 122 123 -122 c73 -72 132 -122
143 -122 12 0 74 55 157 137 104 104 137 143 137 162 0 37 -240 271 -278 271
-21 0 -55 -28 -154 -127 l-128 -128 -128 128 c-99 99 -133 127 -154 127 -21 0
-55 -28 -152 -123z"/>
<path d="M433 3048 c-68 -68 -126 -133 -130 -146 -5 -22 -13 -17 -98 68 -60
59 -97 90 -105 85 -8 -5 78 -98 256 -276 150 -150 258 -266 246 -262 -18 4
-46 -17 -148 -113 -69 -65 -130 -129 -135 -142 -13 -34 1 -53 142 -190 91 -88
133 -122 151 -122 18 0 57 34 152 130 105 105 127 133 123 151 -5 19 -1 17 29
-12 19 -18 34 -34 34 -35 0 -1 -9 0 -20 3 -16 4 -49 -22 -150 -123 -174 -171
-174 -157 0 -328 105 -105 133 -127 151 -123 19 5 17 1 -12 -29 -18 -19 -34
-34 -35 -34 -1 0 0 9 3 20 8 29 -239 280 -275 280 -18 0 -60 -34 -151 -122
-141 -137 -155 -156 -142 -190 5 -13 66 -77 135 -142 102 -96 130 -117 148
-113 12 4 -96 -112 -246 -262 -178 -178 -264 -271 -256 -276 8 -5 45 26 105
85 85 85 93 90 98 68 9 -36 249 -268 277 -268 17 0 62 39 157 132 112 112 133
137 133 163 0 25 -19 48 -126 153 -106 103 -131 123 -151 119 -24 -4 -23 -3 8
29 18 19 34 34 35 34 1 0 0 -9 -3 -20 -4 -16 23 -48 128 -150 77 -74 142 -129
154 -130 25 0 295 269 295 295 0 26 -247 273 -277 277 l-25 3 29 27 c28 27 29
27 30 6 1 -14 51 -71 132 -151 112 -111 133 -128 153 -122 26 8 275 251 283
276 10 29 -9 53 -137 178 -95 91 -132 122 -145 117 -15 -6 -15 -5 2 14 18 19
18 21 0 40 -17 19 -17 20 -2 14 13 -5 50 26 145 117 128 125 147 149 137 178
-8 25 -257 268 -283 276 -20 6 -41 -11 -153 -122 -81 -80 -131 -137 -132 -151
-1 -21 -2 -21 -30 6 l-29 27 25 3 c30 4 277 251 277 277 0 26 -270 295 -295
295 -12 -1 -77 -56 -154 -130 -109 -106 -132 -134 -128 -151 5 -18 1 -17 -29
12 -19 18 -34 34 -34 35 0 0 11 -1 24 -3 19 -4 46 18 150 119 107 105 126 128
126 153 0 26 -21 51 -133 163 -95 93 -140 132 -157 132 -16 0 -60 -36 -147
-122z"/>
<path d="M2923 3038 c-112 -112 -133 -137 -133 -163 0 -25 19 -48 126 -153
106 -103 131 -123 151 -119 24 4 23 3 -8 -29 -18 -19 -34 -34 -35 -34 -1 0 0
9 3 20 4 16 -23 48 -128 150 -77 74 -142 129 -154 130 -25 0 -295 -269 -295
-295 0 -26 247 -273 277 -277 l25 -3 -29 -27 c-28 -27 -29 -27 -30 -6 -1 14
-51 71 -132 151 -112 111 -133 128 -153 122 -26 -8 -275 -251 -283 -276 -10
-29 9 -53 137 -178 95 -91 132 -122 145 -117 15 6 15 5 -2 -14 -18 -19 -18
-21 0 -40 17 -19 17 -20 2 -14 -13 5 -50 -26 -145 -117 -128 -125 -147 -149
-137 -178 8 -25 257 -268 283 -276 20 -6 41 11 153 122 81 80 131 137 132 151
1 21 2 21 30 -6 l29 -27 -25 -3 c-30 -4 -277 -251 -277 -277 0 -26 270 -295
295 -295 12 1 77 56 154 130 109 106 132 134 128 151 -5 18 -1 17 29 -12 19
-18 34 -34 34 -35 0 0 -11 1 -24 3 -19 4 -46 -18 -150 -119 -107 -105 -126
-128 -126 -153 0 -26 21 -51 133 -163 95 -93 140 -132 157 -132 28 0 268 232
277 268 5 22 13 17 98 -68 60 -59 97 -90 105 -85 8 5 -78 98 -256 276 -150
150 -258 266 -246 262 18 -4 46 17 148 113 69 65 130 129 135 142 13 34 -1 53
-142 190 -91 88 -133 122 -151 122 -18 0 -57 -34 -152 -130 -105 -105 -127
-133 -123 -151 5 -19 1 -17 -29 12 -19 18 -34 34 -34 35 0 1 9 0 20 -3 16 -4
49 22 150 123 174 171 174 157 0 328 -105 105 -133 127 -151 123 -19 -5 -17
-1 12 29 18 19 34 34 35 34 1 0 0 -9 -3 -20 -8 -29 239 -280 275 -280 18 0 60
34 151 122 141 137 155 156 142 190 -5 13 -66 77 -135 142 -102 96 -130 117
-148 113 -12 -4 96 112 246 262 178 178 264 271 256 276 -8 5 -45 -26 -105
-85 -85 -85 -93 -90 -98 -68 -9 36 -249 268 -277 268 -17 0 -62 -39 -157 -132z"/>
<path d="M1082 3027 c-77 -77 -132 -140 -132 -151 0 -11 56 -75 132 -153 112
-113 137 -133 163 -133 26 0 49 19 154 124 98 99 124 129 124 151 0 23 -27 54
-135 162 -80 79 -142 133 -154 133 -11 0 -73 -53 -152 -133z m287 -30 c67 -64
121 -125 121 -134 0 -26 -220 -243 -245 -243 -21 0 -265 236 -265 256 0 18
244 253 256 246 7 -4 66 -60 133 -125z"/>
<path d="M2272 3027 c-108 -108 -134 -139 -134 -162 0 -22 25 -52 123 -151
105 -105 128 -124 154 -124 26 0 51 20 163 133 78 79 132 142 132 153 0 26
-259 284 -284 284 -12 0 -75 -56 -154 -133z m408 -151 c0 -20 -244 -256 -265
-256 -29 0 -248 221 -243 246 1 10 61 75 131 143 l128 124 125 -124 c68 -68
124 -128 124 -133z"/>
<path d="M1713 3000 c-78 -80 -113 -125 -113 -141 0 -16 34 -57 115 -136 l115
-114 115 114 c81 79 115 120 115 136 0 16 -35 61 -112 141 -62 65 -115 117
-118 117 -3 0 -56 -52 -117 -117z"/>
<path d="M1407 2692 c-72 -73 -127 -137 -127 -147 0 -24 269 -295 293 -295 9
0 70 50 134 110 65 61 120 110 123 110 3 0 58 -49 123 -110 64 -60 125 -110
134 -110 24 0 293 271 293 295 0 10 -55 74 -127 147 -106 107 -132 128 -157
128 -24 0 -50 -21 -148 -117 l-118 -117 -118 117 c-98 96 -124 117 -148 117
-25 0 -51 -21 -157 -128z"/>
<path d="M1723 2351 c-135 -140 -135 -133 2 -272 l105 -106 105 106 c138 139
138 133 -2 274 -58 59 -107 106 -107 106 -1 -1 -47 -50 -103 -108z"/>
<path d="M125 2078 l-125 -123 0 -55 0 -55 125 -122 c98 -97 131 -123 152
-123 22 0 55 28 160 133 176 176 176 158 0 334 -105 105 -138 133 -160 133
-21 0 -54 -26 -152 -122z"/>
<path d="M3223 2067 c-119 -119 -133 -136 -133 -167 0 -31 14 -48 133 -167
105 -105 138 -133 160 -133 21 0 54 26 152 123 l125 122 0 55 0 55 -125 123
c-98 96 -131 122 -152 122 -22 0 -55 -28 -160 -133z"/>
<path d="M1422 2047 c-86 -87 -122 -131 -122 -147 0 -16 36 -60 122 -147 158
-160 146 -159 295 -11 l113 113 113 -113 c149 -148 137 -149 295 11 86 87 122
131 122 147 0 16 -36 60 -122 147 -158 160 -146 159 -295 11 l-113 -113 -113
113 c-149 148 -137 149 -295 -11z"/>
<path d="M1723 1721 c-135 -140 -135 -133 2 -272 l105 -106 105 106 c138 139
138 133 -2 274 -58 59 -107 106 -107 106 -1 -1 -47 -50 -103 -108z"/>
<path d="M1418 1412 c-79 -79 -138 -146 -138 -157 0 -10 55 -74 127 -147 106
-107 132 -128 157 -128 24 0 50 21 148 117 l118 117 118 -117 c98 -96 124
-117 148 -117 25 0 51 21 157 128 72 73 127 137 127 147 0 24 -269 295 -293
295 -9 0 -70 -49 -134 -110 -65 -60 -120 -110 -123 -110 -3 0 -58 50 -123 110
-64 61 -125 110 -134 110 -9 0 -79 -62 -155 -138z"/>
<path d="M1082 1077 c-78 -79 -132 -142 -132 -153 0 -11 54 -74 134 -153 114
-114 137 -133 157 -128 13 4 82 64 153 136 102 102 129 134 129 156 0 21 -27
53 -124 151 -105 105 -128 124 -154 124 -26 0 -51 -20 -163 -133z m297 -11
c78 -78 112 -119 109 -132 -1 -10 -61 -75 -131 -143 l-128 -124 -125 124 c-68
68 -124 128 -124 133 0 20 244 256 265 256 13 0 62 -42 134 -114z"/>
<path d="M2261 1086 c-97 -98 -123 -130 -123 -151 0 -22 26 -54 128 -156 71
-72 140 -132 153 -136 20 -5 43 14 157 128 80 79 134 142 134 153 0 11 -54 74
-132 153 -112 113 -137 133 -163 133 -26 0 -49 -19 -154 -124z m297 -29 c67
-68 122 -128 122 -133 0 -5 -56 -65 -124 -133 l-125 -124 -128 124 c-70 68
-130 133 -131 143 -5 25 214 246 243 246 14 0 65 -45 143 -123z"/>
<path d="M1713 1076 c-79 -78 -113 -119 -113 -135 0 -16 36 -61 113 -141 61
-65 114 -117 117 -117 3 0 56 52 118 117 77 80 112 125 112 141 0 16 -34 56
-115 136 -63 62 -115 113 -117 112 -2 0 -54 -51 -115 -113z"/>
<path d="M1407 763 c-104 -104 -137 -143 -137 -162 0 -37 240 -271 278 -271
21 0 55 28 154 127 l128 128 128 -128 c99 -99 133 -127 154 -127 38 0 278 234
278 271 0 19 -33 58 -137 162 -83 82 -145 137 -157 137 -11 0 -70 -50 -143
-122 l-123 -122 -123 122 c-73 72 -132 122 -143 122 -12 0 -74 -55 -157 -137z"/>
<path d="M752 747 c-97 -97 -132 -139 -132 -157 0 -18 34 -58 128 -152 70 -70
136 -128 145 -128 19 0 160 123 245 213 78 83 76 88 -71 235 -102 102 -127
122 -152 122 -25 0 -52 -21 -163 -133z"/>
<path d="M2592 757 c-146 -147 -148 -151 -69 -234 84 -90 225 -213 244 -213 9
0 75 58 145 128 95 95 128 134 128 153 0 18 -34 58 -133 157 -111 111 -137
132 -162 132 -25 0 -50 -20 -153 -123z"/>
<path d="M1708 436 c-96 -99 -118 -127 -118 -151 0 -25 20 -49 120 -145 l120
-115 120 115 c101 97 120 120 120 145 0 25 -21 51 -122 153 -67 67 -122 121
-122 121 -1 -1 -54 -57 -118 -123z"/>
</g>
</svg>
