<?xml version="1.0" standalone="no"?>
<!DOCTYPE svg PUBLIC "-//W3C//DTD SVG 1.1//EN" "http://www.w3.org/Graphics/SVG/1.1/DTD/svg11.dtd" >
<svg xmlns="http://www.w3.org/2000/svg" xmlns:xlink="http://www.w3.org/1999/xlink" version="1.1">
<metadata></metadata>
<defs>
<font id="cormorantmedium_italic" horiz-adv-x="602" >
<font-face units-per-em="1000" ascent="800" descent="-200" />
<missing-glyph horiz-adv-x="234" />
<glyph unicode="&#xfb00;" horiz-adv-x="518" d="M634 710.5q21 -15.5 18 -38.5q-3 -16 -14 -24.5t-25 -8.5q-19 0 -26.5 9.5t-13.5 28.5q-6 17 -11.5 24.5t-18.5 7.5q-36 0 -62.5 -67t-46.5 -203l-9 -62q30 1 67 5l33 2q7 0 7 -8t-11 -21.5t-21 -13.5q-6 0 -13 1t-15 2q-17 3 -51 7l-54 -372q-14 -97 -33 -151.5 t-47 -78.5t-71 -24q-37 0 -56 14t-16 34q1 15 12.5 24t27.5 9q18 0 25 -9t12 -27q4 -14 8 -20t14 -6q12 0 19.5 15.5t16.5 59t22 134.5l51 353v3l-1 -3q1 7 1 17q0 16 -9 21t-34 7q-31 2 -141 4l-55 -376q-14 -97 -33 -151.5t-47 -78.5t-71 -24q-37 0 -56 14t-16 34 q1 15 12.5 24t27.5 9q18 0 25 -9t12 -27q4 -14 8 -20t14 -6q12 0 19.5 15.5t16.5 59t22 134.5l51 353q2 20 2 26q0 18 -11 23t-45 5q-3 0 -3 5q0 3 1.5 6t2.5 3q35 0 50 9.5t19 34.5q26 129 82.5 190t142.5 61q47 0 94 -20q23 42 57 59.5t85 17.5q38 0 59 -15.5zM171 375 q106 0 137 1q28 2 42 11t18 29v2q16 99 36 165q-15 32 -39 50.5t-51 18.5q-97 0 -134 -213z" />
<glyph unicode="&#xfb01;" horiz-adv-x="470" d="M441 77q4 0 6 -3.5t0 -5.5q-34 -40 -61 -58.5t-54 -18.5q-20 0 -29 11.5t-9 36.5q0 17 5 50l37 202q3 14 3 24q0 20 -14 29t-48.5 12t-108.5 3l-55 -380q-14 -97 -33 -151.5t-47 -78.5t-71 -24q-37 0 -56 14t-16 34q1 15 12.5 24t27.5 9q18 0 25 -9t12 -27q4 -14 8 -20 t14 -6q12 0 19.5 15.5t16.5 59t22 134.5l51 353q2 20 2 26q0 18 -11 23t-45 5q-3 0 -3 5q0 3 1.5 6t2.5 3q35 0 50 9.5t19 34.5q30 167 89.5 237.5t146.5 70.5q49 0 75.5 -19.5t22.5 -46.5q-3 -16 -13 -24.5t-24 -8.5q-17 0 -25.5 9.5t-17.5 30.5q-8 20 -17.5 31t-28.5 11 q-49 0 -86 -68.5t-56 -201.5l-9 -61q80 1 176 6q44 2 52 2q7 0 10 -2t3 -8q0 -1 -4 -25q-3 -10 -10 -53l-37 -209q-3 -16 -3 -27q0 -28 17 -28q23 0 63 42q1 1 3 1z" />
<glyph unicode="&#xfb02;" horiz-adv-x="500" d="M379 89q-3 -15 -3 -25q0 -30 19 -30q10 0 25 11t37 32q2 2 3 2q3 0 5.5 -3.5t-0.5 -6.5q-34 -40 -61 -59t-53 -19q-39 0 -39 48q0 20 6 50l101 541q-13 34 -37 56.5t-54 22.5q-107 0 -148 -270l-9 -62l55 4q10 1 21.5 2t23.5 1q7 0 7 -8t-12 -22t-22 -13q-42 8 -77 10 l-54 -372q-14 -97 -33 -151.5t-47 -78.5t-71 -24q-37 0 -56 14t-16 34q1 15 12.5 24t27.5 9q18 0 25 -9t12 -27q4 -14 8 -20t14 -6q12 0 19.5 15.5t16.5 59t22 134.5l51 353q2 20 2 26q0 18 -11 23t-45 5q-3 0 -3 5q0 3 1.5 6t2.5 3q35 0 50 9.5t19 34.5q28 165 85 236.5 t153 71.5q65 0 104 -28q26 17 32 46q1 3 7 2.5t5 -3.5z" />
<glyph unicode="&#xfb03;" horiz-adv-x="724" d="M695 77q4 0 6 -3.5t0 -5.5q-34 -40 -61 -58.5t-54 -18.5q-20 0 -29 11.5t-9 36.5q0 17 5 50l37 202q3 14 3 24q0 20 -14 29t-48.5 12t-108.5 3l-55 -380q-14 -97 -33 -151.5t-47 -78.5t-71 -24q-37 0 -56 14t-16 34q1 15 12.5 24t27.5 9q18 0 25 -9t12 -27q4 -14 8 -20 t14 -6q12 0 19.5 15.5t16.5 59t22 134.5l51 353v3l-1 -3q1 7 1 17q0 16 -9 21t-34 7q-31 2 -141 4l-55 -376q-14 -97 -33 -151.5t-47 -78.5t-71 -24q-37 0 -56 14t-16 34q1 15 12.5 24t27.5 9q18 0 25 -9t12 -27q4 -14 8 -20t14 -6q12 0 19.5 15.5t16.5 59t22 134.5l51 353 q2 20 2 26q0 18 -11 23t-45 5q-3 0 -3 5q0 3 1.5 6t2.5 3q35 0 50 9.5t19 34.5q26 129 82.5 190t142.5 61q59 0 108 -27q59 84 157 84q49 0 75.5 -19.5t22.5 -46.5q-3 -16 -13 -24.5t-24 -8.5q-17 0 -25.5 9.5t-17.5 30.5q-8 20 -17.5 31t-28.5 11q-49 0 -86 -68.5 t-56 -201.5l-9 -61q80 1 176 6q44 2 52 2q7 0 10 -2t3 -8q0 -1 -4 -25q-3 -10 -10 -53l-37 -209q-3 -16 -3 -27q0 -28 17 -28q23 0 63 42q1 1 3 1zM171 375q106 0 137 1q28 2 42 11t18 29v2q17 92 42 153q-15 37 -40.5 59t-55.5 22q-97 0 -134 -213z" />
<glyph unicode="&#xfb04;" horiz-adv-x="754" d="M633 89q-3 -15 -3 -25q0 -30 19 -30q10 0 25 11t37 32q2 2 3 2q3 0 5.5 -3.5t-0.5 -6.5q-34 -40 -61 -59t-53 -19q-39 0 -39 48q0 20 6 50l101 541q-13 34 -37 56.5t-54 22.5q-107 0 -148 -270l-9 -62l55 4q10 1 21.5 2t23.5 1q7 0 7 -8t-12 -22t-22 -13q-42 8 -77 10 l-54 -372q-14 -97 -33 -151.5t-47 -78.5t-71 -24q-37 0 -56 14t-16 34q1 15 12.5 24t27.5 9q18 0 25 -9t12 -27q4 -14 8 -20t14 -6q12 0 19.5 15.5t16.5 59t22 134.5l51 353v3l-1 -3q1 7 1 17q0 16 -9 21t-34 7q-31 2 -141 4l-55 -376q-14 -97 -33 -151.5t-47 -78.5t-71 -24 q-37 0 -56 14t-16 34q1 15 12.5 24t27.5 9q18 0 25 -9t12 -27q4 -14 8 -20t14 -6q12 0 19.5 15.5t16.5 59t22 134.5l51 353q2 20 2 26q0 18 -11 23t-45 5q-3 0 -3 5q0 3 1.5 6t2.5 3q35 0 50 9.5t19 34.5q26 129 82.5 190t142.5 61q56 0 106 -26q30 43 69.5 63t91.5 20 q65 0 104 -28q26 17 32 46q1 3 7 2.5t5 -3.5zM171 375q106 0 137 1q28 2 42 11t18 29v2q17 98 41 155q-16 37 -41 58t-54 21q-97 0 -134 -213z" />
<glyph unicode="J&#x301;" horiz-adv-x="292" d="M-23 -193q-3 0 -5 4.5t1 6.5q45 27 71 81t42 141l89 504q3 18 3 31q0 23 -13 30.5t-48 7.5q-2 0 -2 6t2 6l43 -1q38 -2 61 -2q28 0 66 2l41 1q3 0 3 -6t-3 -6q-31 0 -46 -6t-22.5 -20.5t-12.5 -44.5l-84 -475q-15 -78 -37 -126.5t-56.5 -79t-91.5 -54.5h-1zM125 678 q-4 0 -5.5 4.5t1.5 6.5q46 25 98 62q47 31 53 35q5 3 27.5 -4t40 -16t8.5 -10q-118 -30 -222 -78h-1z" />
<glyph unicode="j&#x301;" horiz-adv-x="242" d="M-77 -261q-19 14 -16 34q3 16 13.5 24.5t24.5 8.5q17 0 23 -9t10 -27q4 -15 8 -21.5t13 -6.5q13 0 22.5 18t18.5 58.5t24 125.5l61 353q3 15 3 25q0 31 -19 31q-24 0 -66 -44q-1 -1 -3 -1q-3 0 -5 3.5t0 5.5q35 41 63.5 59.5t55.5 18.5q20 0 29 -11.5t9 -36.5 q0 -15 -5 -45l-58 -334q-16 -95 -35 -147t-46 -74t-70 -22q-36 0 -55 14zM153.5 472q-5.5 2 -3.5 4l87 240q2 5 24.5 10t39.5 5q13 0 12 -4l-153 -254q-1 -3 -6.5 -1z" />
<glyph unicode="TT" horiz-adv-x="1028" d="M131 6q0 6 2 6q35 0 52.5 5t26 19.5t13.5 44.5l82 463q4 24 4 30q0 19 -11.5 25.5t-40.5 6.5h-20q-54 0 -92.5 -37.5t-59.5 -110.5q-1 -3 -8 -1.5t-3 3.5q8 25 23 88t22 99q1 3 7 2.5t5 -3.5q-3 -21 39 -21q77 -3 184 -3q66 0 136 2l32 1q29 0 41.5 1.5t18 7t9.5 18.5 q0 2 5 2q8 0 7 -4q-4 -16 6.5 -20.5t39.5 -4.5q73 -3 177 -3q54 0 114 2l63 1q30 0 45 5t21 20q1 3 6.5 2.5t4.5 -4.5q-8 -27 -22.5 -93.5t-18.5 -94.5q-1 -3 -6.5 -2.5t-4.5 4.5q4 21 4 44q0 100 -101 100h-16q-35 0 -47 -12.5t-19 -51.5l-82 -461q-4 -26 -4 -32 q0 -22 15.5 -29.5t57.5 -7.5q2 0 2 -6t-2 -6q-30 0 -47 1l-70 1l-66 -1q-18 -1 -50 -1q-2 0 -2 6t2 6q35 0 52.5 5t26 19.5t14.5 44.5l81 463q4 24 4 30q0 19 -11 25.5t-39 6.5h-16q-57 0 -82 -9t-38.5 -38t-27.5 -99q0 -2 -5 -2q-8 0 -8 3q9 54 9 84q0 27 -9.5 40t-31 17 t-64.5 4h-15q-25 0 -37 -5.5t-18 -18.5t-11 -40l-83 -461q-3 -18 -3 -31q0 -23 15 -30.5t58 -7.5q2 0 2 -6t-2 -6q-30 0 -47 1l-70 1l-66 -1q-18 -1 -50 -1q-2 0 -2 6z" />
<glyph unicode="Th" horiz-adv-x="933" d="M910 79q3 0 5 -3.5t0 -6.5q-34 -40 -61 -59t-53 -19q-20 0 -29 11.5t-9 36.5q0 20 6 50l29 159q5 24 5 50q0 56 -39 56q-31 0 -64.5 -39.5t-63 -115.5t-48.5 -180l-2 -10q-2 -8 -12 -12.5t-28 -4.5q-26 0 -26 7l4 20q9 43 11 55l96 522v3q0 7 -8 7h-182 q-34 0 -45.5 -12.5t-18.5 -51.5l-81 -461q-3 -18 -3 -31q0 -23 15 -30.5t57 -7.5q2 0 2 -6t-2 -6q-30 0 -47 1l-70 1l-67 -1q-17 -1 -48 -1q-3 0 -3 6t3 6q35 0 52.5 5t26 19.5t13.5 44.5l81 463q4 24 4 31q0 18 -10.5 24.5t-37.5 6.5h-21q-55 0 -94.5 -37.5t-59.5 -110.5 q0 -2 -4 -2q-3 0 -6 1.5t-2 2.5q9 27 24 90.5t21 96.5q1 3 7 2.5t5 -3.5q-3 -21 39 -21q74 -3 183 -3q113 0 178 4q61 2 103 25.5t67 75.5q0 2 5 2q3 0 6 -1.5t2 -2.5l-96 -531q36 97 83 151t100 54q33 0 49.5 -19t16.5 -59q0 -29 -5 -54l-33 -178q-3 -16 -3 -27 q0 -28 18 -28q19 0 62 43q2 2 3 2z" />
<glyph unicode="fb" horiz-adv-x="701" d="M662 370q22 -29 22 -77q0 -22 -4 -42q-16 -81 -61.5 -141t-102.5 -91.5t-106 -31.5q-47 0 -75 20.5t-28 54.5q0 6 2 18l106 560q-14 31 -37 50t-50 19q-107 0 -148 -270l-9 -62l55 4q10 1 21.5 2t23.5 1q7 0 7 -8t-12 -22t-22 -13q-42 8 -77 10l-54 -372 q-14 -97 -33 -151.5t-47 -78.5t-71 -24q-37 0 -56 14t-16 34q1 15 12.5 24t27.5 9q18 0 25 -9t12 -27q4 -14 8 -20t14 -6q12 0 19.5 15.5t16.5 59t22 134.5l51 353q2 20 2 26q0 18 -11 23t-45 5q-3 0 -3 5q0 3 1.5 6t2.5 3q35 0 50 9.5t19 34.5q28 165 85 236.5t153 71.5 q59 0 101 -25q24 16 29 43q0 3 5 3q3 0 5.5 -1.5t1.5 -2.5l-95 -519q34 77 89 126t114 49q38 0 60 -29zM610 270q0 36 -13.5 56.5t-41.5 20.5q-39 0 -75 -31.5t-63.5 -87.5t-40.5 -129l-1 -3q-1 -5 -1 -14q0 -31 21 -50t55 -19q32 0 63.5 25t56 72t35.5 110q5 23 5 50z" />
<glyph unicode="ffb" horiz-adv-x="955" d="M916 370q22 -29 22 -77q0 -22 -4 -42q-16 -81 -61.5 -141t-102.5 -91.5t-106 -31.5q-47 0 -75 20.5t-28 54.5q0 6 2 18l106 560q-14 31 -37 50t-50 19q-107 0 -148 -270l-9 -62l55 4q10 1 21.5 2t23.5 1q7 0 7 -8t-12 -22t-22 -13q-42 8 -77 10l-54 -372 q-14 -97 -33 -151.5t-47 -78.5t-71 -24q-37 0 -56 14t-16 34q1 15 12.5 24t27.5 9q18 0 25 -9t12 -27q4 -14 8 -20t14 -6q12 0 19.5 15.5t16.5 59t22 134.5l51 353v3l-1 -3q1 7 1 17q0 16 -9 21t-34 7q-31 2 -141 4l-55 -376q-14 -97 -33 -151.5t-47 -78.5t-71 -24 q-37 0 -56 14t-16 34q1 15 12.5 24t27.5 9q18 0 25 -9t12 -27q4 -14 8 -20t14 -6q12 0 19.5 15.5t16.5 59t22 134.5l51 353q2 20 2 26q0 18 -11 23t-45 5q-3 0 -3 5q0 3 1.5 6t2.5 3q35 0 50 9.5t19 34.5q26 129 82.5 190t142.5 61q56 0 106 -26q30 43 69.5 63t91.5 20 q59 0 101 -25q24 16 29 43q0 3 5 3q3 0 5.5 -1.5t1.5 -2.5l-95 -519q34 77 89 126t114 49q38 0 60 -29zM171 375q106 0 137 1q28 2 42 11t18 29v2q17 98 41 155q-16 37 -41 58t-54 21q-97 0 -134 -213zM864 270q0 36 -13.5 56.5t-41.5 20.5q-39 0 -75 -31.5t-63.5 -87.5 t-40.5 -129l-1 -3q-1 -5 -1 -14q0 -31 21 -50t55 -19q32 0 63.5 25t56 72t35.5 110q5 23 5 50z" />
<glyph unicode="fff" horiz-adv-x="771" d="M814 710.5q21 -15.5 18 -38.5q-3 -16 -14 -24.5t-25 -8.5q-19 0 -26.5 9.5t-13.5 28.5q-6 17 -11.5 24.5t-18.5 7.5q-22 0 -42 -27q18 -8 33 -20l-46 -75q-6 21 -15 35q-22 -66 -39 -183l-7 -50q12 9 15 29l11 -39l41 3l31 2q7 0 7 -8t-11.5 -22t-21.5 -13l-53 7l-21 -42 q2 14 2 17q0 13 -7 19l-53 -363q-14 -97 -33 -151.5t-47 -78.5t-71 -24q-37 0 -56 14t-16 34q1 15 12.5 24t27.5 9q18 0 25 -9t12 -27q4 -14 8 -20t14 -6q12 0 19.5 15.5t16.5 59t22 134.5l51 353q3 15 3 26q0 15 -8 21q-56 2 -105 2l-55 -376q-14 -97 -33 -151.5t-47 -78.5 t-71 -24q-35 0 -53.5 12.5t-18.5 31.5q0 16 11.5 26.5t27.5 10.5q19 0 26 -9t12 -27q4 -14 8 -20t14 -6q12 0 19.5 15.5t16 58.5t21.5 135l51 353q1 7 1 17q0 16 -9 21t-34 7q-31 2 -141 4l-55 -376q-14 -97 -33 -151.5t-47 -78.5t-71 -24q-37 0 -56 14t-16 34q1 15 12.5 24 t27.5 9q18 0 25 -9t12 -27q4 -14 8 -20t14 -6q12 0 19.5 15.5t16.5 59t22 134.5l51 353q2 20 2 26q0 18 -11 23t-45 5q-3 0 -3 5q0 3 1.5 6t2.5 3q35 0 50 9.5t19 34.5q26 129 82.5 190t142.5 61q65 0 114 -31q56 66 140 66q32 0 57 -9q39 31 105 31q38 0 59 -15.5z M580.5 571q17.5 59 41.5 93q-25 23 -55 23q-48 0 -81.5 -62.5t-51.5 -185.5l-9 -64h77q22 3 32.5 12.5t13.5 30.5q15 94 32.5 153zM171 375q106 0 137 1q47 3 57 30l3 12q17 92 43 150q-15 39 -40.5 61.5t-56.5 22.5q-97 0 -134 -213z" />
<glyph unicode="ffh" horiz-adv-x="967" d="M945 79q3 0 5 -3.5t-1 -6.5q-34 -40 -60.5 -59t-52.5 -19q-20 0 -29.5 11.5t-9.5 36.5q0 20 6 50l29 159q5 24 5 50q0 56 -39 56q-31 0 -64.5 -40t-63.5 -116.5t-50 -180.5l-1 -8q-1 -8 -11.5 -12.5t-28.5 -4.5q-25 0 -25 7l5 26q6 22 11 49l103 556q-13 34 -37 56.5 t-54 22.5q-107 0 -148 -270l-9 -62l55 4q10 1 21.5 2t23.5 1q7 0 7 -8t-12 -22t-22 -13q-42 8 -77 10l-54 -372q-14 -97 -33 -151.5t-47 -78.5t-71 -24q-37 0 -56 14t-16 34q1 15 12.5 24t27.5 9q18 0 25 -9t12 -27q4 -14 8 -20t14 -6q12 0 19.5 15.5t16.5 59t22 134.5 l51 353v3l-1 -3q1 7 1 17q0 16 -9 21t-34 7q-31 2 -141 4l-55 -376q-14 -97 -33 -151.5t-47 -78.5t-71 -24q-37 0 -56 14t-16 34q1 15 12.5 24t27.5 9q18 0 25 -9t12 -27q4 -14 8 -20t14 -6q12 0 19.5 15.5t16.5 59t22 134.5l51 353q2 20 2 26q0 18 -11 23t-45 5q-3 0 -3 5 q0 3 1.5 6t2.5 3q35 0 50 9.5t19 34.5q26 129 82.5 190t142.5 61q56 0 106 -26q30 43 69.5 63t91.5 20q65 0 104 -28q26 17 32 46q1 3 7 2.5t5 -3.5l-101 -550q35 97 82.5 151.5t100.5 54.5q33 0 49.5 -19t16.5 -58q0 -23 -6 -55l-32 -178q-3 -15 -3 -26q0 -29 18 -29 q10 0 25 11t37 32q2 2 4 2zM171 375q106 0 137 1q28 2 42 11t18 29v2q17 98 41 155q-16 37 -41 58t-54 21q-97 0 -134 -213z" />
<glyph unicode="ffj" horiz-adv-x="725" d="M690.5 707q26.5 -19 23.5 -47q-3 -16 -13 -24.5t-25 -8.5q-17 0 -25.5 10.5t-16.5 29.5q-9 21 -18.5 31.5t-28.5 10.5q-52 0 -93 -69t-60 -201l-9 -63q80 1 133 3.5t64 3.5q33 3 54 3q8 0 10.5 -2t2.5 -8l-4 -28q-5 -21 -9 -50l-59 -330q-17 -95 -35.5 -147t-45.5 -74 t-70 -22q-36 0 -55 14t-16 34q3 16 13.5 24.5t24.5 8.5q17 0 23 -9t10 -27q4 -15 8 -21.5t13 -6.5q13 0 22.5 18t18 57.5t24.5 126.5l61 347q3 15 3 25q0 21 -15.5 29.5t-52.5 10.5t-126 2l-55 -379q-14 -97 -33 -151.5t-47 -78.5t-71 -24q-37 0 -56 14t-16 34q1 15 12.5 24 t27.5 9q18 0 25 -9t12 -27q4 -14 8 -20t14 -6q12 0 19.5 15.5t16.5 59t22 134.5l51 353v3l-1 -3q1 7 1 17q0 16 -9 21t-34 7q-31 2 -141 4l-55 -376q-14 -97 -33 -151.5t-47 -78.5t-71 -24q-37 0 -56 14t-16 34q1 15 12.5 24t27.5 9q18 0 25 -9t12 -27q4 -14 8 -20t14 -6 q12 0 19.5 15.5t16.5 59t22 134.5l51 353q2 20 2 26q0 18 -11 23t-45 5q-3 0 -3 5q0 3 1.5 6t2.5 3q35 0 50 9.5t19 34.5q26 129 82.5 190t142.5 61q62 0 111 -29q61 86 165 86q49 0 75.5 -19zM171 375q106 0 137 1q47 3 57 30l3 12q17 91 43 151q-15 38 -41 60.5t-56 22.5 q-97 0 -134 -213z" />
<glyph unicode="ffk" horiz-adv-x="927" d="M929 76q3 0 5.5 -3.5t-0.5 -5.5q-67 -76 -105 -76q-25 0 -42.5 14t-40.5 53l-58 99q-9 16 -16.5 21t-20.5 4l-32 -173q-1 -8 -11.5 -12.5t-28.5 -4.5q-25 0 -25 7l5 26q6 22 11 49l103 556q-13 34 -37 56.5t-54 22.5q-107 0 -148 -270l-9 -62l55 4q10 1 21.5 2t23.5 1 q7 0 7 -8t-12 -22t-22 -13q-42 8 -77 10l-54 -372q-14 -97 -33 -151.5t-47 -78.5t-71 -24q-37 0 -56 14t-16 34q1 15 12.5 24t27.5 9q18 0 25 -9t12 -27q4 -14 8 -20t14 -6q12 0 19.5 15.5t16.5 59t22 134.5l51 353v3l-1 -3q1 7 1 17q0 16 -9 21t-34 7q-31 2 -141 4 l-55 -376q-14 -97 -33 -151.5t-47 -78.5t-71 -24q-37 0 -56 14t-16 34q1 15 12.5 24t27.5 9q18 0 25 -9t12 -27q4 -14 8 -20t14 -6q12 0 19.5 15.5t16.5 59t22 134.5l51 353q2 20 2 26q0 18 -11 23t-45 5q-3 0 -3 5q0 3 1.5 6t2.5 3q35 0 50 9.5t19 34.5q26 129 82.5 190 t142.5 61q56 0 106 -26q30 43 69.5 63t91.5 20q65 0 104 -28q26 17 32 46q1 3 7 2.5t5 -3.5l-79 -427q37 38 81.5 60.5t88.5 22.5q32 0 45.5 -15t13.5 -34q0 -39 -45 -76.5t-125 -66.5l66 -112q20 -33 33.5 -44.5t29.5 -11.5q26 0 63 36q1 1 3 1zM171 375q106 0 137 1 q28 2 42 11t18 29v2q17 98 41 155q-16 37 -41 58t-54 21q-97 0 -134 -213zM709 319q-39 -46 -55 -119v-2q85 20 123.5 47.5t45.5 72.5q1 5 1 13q0 16 -8 25t-21 9q-47 0 -86 -46z" />
<glyph unicode="ff&#xfe;" horiz-adv-x="936" d="M891 364.5q27 -28.5 27 -78.5q0 -16 -3 -34q-12 -73 -51.5 -130.5t-92 -90t-100.5 -32.5q-31 0 -51 3l-33 -180q-3 -18 -3 -29q0 -17 7.5 -24t25.5 -7q6 0 24 2q4 1 5.5 -4.5t-2.5 -6.5l-178 -28q-3 -1 -4.5 5t2.5 7q22 4 32 10.5t15.5 20.5t11.5 47l88 478 q-29 -20 -50 -36l-2 -1q-3 0 -5 4t0 6q35 29 61 47l58 316q-13 35 -37 57.5t-54 22.5q-107 0 -148 -270l-9 -62l55 4q10 1 21.5 2t23.5 1q7 0 7 -8t-12 -22t-22 -13q-42 8 -77 10l-54 -372q-14 -97 -33 -151.5t-47 -78.5t-71 -24q-37 0 -56 14t-16 34q1 15 12.5 24t27.5 9 q18 0 25 -9t12 -27q4 -14 8 -20t14 -6q12 0 19.5 15.5t16.5 59t22 134.5l51 353v3l-1 -3q1 7 1 17q0 16 -9 21t-34 7q-31 2 -141 4l-55 -376q-14 -97 -33 -151.5t-47 -78.5t-71 -24q-37 0 -56 14t-16 34q1 15 12.5 24t27.5 9q18 0 25 -9t12 -27q4 -14 8 -20t14 -6 q12 0 19.5 15.5t16.5 59t22 134.5l51 353q2 20 2 26q0 18 -11 23t-45 5q-3 0 -3 5q0 3 1.5 6t2.5 3q35 0 50 9.5t19 34.5q26 129 82.5 190t142.5 61q56 0 106 -26q30 43 69.5 63t91.5 20q65 0 104 -28q26 17 32 46q1 3 7 2.5t5 -3.5l-70 -387q71 37 133 37q47 0 74 -28.5z M171 375q106 0 137 1q28 2 42 11t18 29v2q17 98 41 155q-16 37 -41 58t-54 21q-97 0 -134 -213zM847 253q0 44 -20.5 72t-62.5 28q-40 0 -84 -21l-53 -288q32 -16 75 -16q60 0 94 50t48 142q3 17 3 33z" />
<glyph unicode="fft" horiz-adv-x="796" d="M798 381q2 -3 1 -7q-3 -10 -14 -22.5t-20 -11.5q-71 10 -103 11l-44 -245q-3 -16 -3 -28q0 -47 49 -47q24 0 46 11t48 31h1q3 0 6 -3t1 -5q-45 -41 -80 -59t-66 -18q-32 0 -52.5 15t-20.5 50q0 12 3 27l41 226q2 14 2 17q0 17 -12 22.5t-42 7.5q-54 2 -117 2l-55 -376 q-14 -97 -33 -151.5t-47 -78.5t-71 -24q-37 0 -56 14t-16 34q1 15 12.5 24t27.5 9q18 0 25 -9t12 -27q4 -14 8 -20t14 -6q12 0 19.5 15.5t16.5 59t22 134.5l51 353v3l-1 -3q1 7 1 17q0 16 -9 21t-34 7q-31 2 -141 4l-55 -376q-14 -97 -33 -151.5t-47 -78.5t-71 -24 q-37 0 -56 14t-16 34q1 15 12.5 24t27.5 9q18 0 25 -9t12 -27q4 -14 8 -20t14 -6q12 0 19.5 15.5t16.5 59t22 134.5l51 353q2 20 2 26q0 18 -11 23t-45 5q-3 0 -3 5q0 3 1.5 6t2.5 3q35 0 50 9.5t19 34.5q26 129 82.5 190t142.5 61q47 0 94 -20q23 42 57 59.5t85 17.5 q38 0 59 -15.5t18 -38.5q-3 -16 -14 -24.5t-25 -8.5q-19 0 -26.5 9.5t-13.5 28.5q-6 17 -11.5 24.5t-18.5 7.5q-36 0 -62.5 -67t-46.5 -203l-9 -65q94 0 127 2q43 1 71.5 21.5t39.5 56.5q0 3 7 3q4 0 7.5 -1.5t2.5 -2.5l-14 -77q19 1 97 6l29 2q4 0 6 -3zM171 375 q106 0 137 1q28 2 42 11t18 29v2q16 99 36 165q-15 32 -39 50.5t-51 18.5q-97 0 -134 -213z" />
<glyph unicode="fh" horiz-adv-x="713" d="M691 79q3 0 5 -3.5t-1 -6.5q-34 -40 -60.5 -59t-52.5 -19q-20 0 -29.5 11.5t-9.5 36.5q0 20 6 50l29 159q5 24 5 50q0 56 -39 56q-31 0 -64.5 -40t-63.5 -116.5t-50 -180.5l-1 -8q-1 -8 -11.5 -12.5t-28.5 -4.5q-25 0 -25 7l5 26q6 22 11 49l103 556q-13 34 -37 56.5 t-54 22.5q-107 0 -148 -270l-9 -62l55 4q10 1 21.5 2t23.5 1q7 0 7 -8t-12 -22t-22 -13q-42 8 -77 10l-54 -372q-14 -97 -33 -151.5t-47 -78.5t-71 -24q-37 0 -56 14t-16 34q1 15 12.5 24t27.5 9q18 0 25 -9t12 -27q4 -14 8 -20t14 -6q12 0 19.5 15.5t16.5 59t22 134.5 l51 353q2 20 2 26q0 18 -11 23t-45 5q-3 0 -3 5q0 3 1.5 6t2.5 3q35 0 50 9.5t19 34.5q28 165 85 236.5t153 71.5q65 0 104 -28q26 17 32 46q1 3 7 2.5t5 -3.5l-101 -550q35 97 82.5 151.5t100.5 54.5q33 0 49.5 -19t16.5 -58q0 -23 -6 -55l-32 -178q-3 -15 -3 -26 q0 -29 18 -29q10 0 25 11t37 32q2 2 4 2z" />
<glyph unicode="fj" horiz-adv-x="477" d="M436.5 707q26.5 -19 23.5 -47q-3 -16 -13 -24.5t-25 -8.5q-17 0 -25.5 10.5t-16.5 29.5q-9 21 -18.5 31.5t-28.5 10.5q-52 0 -93 -69t-60 -201l-9 -63q80 1 133 3.5t64 3.5q33 3 54 3q8 0 10.5 -2t2.5 -8l-4 -28q-5 -21 -9 -50l-59 -330q-17 -95 -35.5 -147t-45.5 -74 t-70 -22q-36 0 -55 14t-16 34q3 16 13.5 24.5t24.5 8.5q17 0 23 -9t10 -27q4 -15 8 -21.5t13 -6.5q13 0 22.5 18t18 57.5t24.5 126.5l61 347q3 15 3 25q0 21 -15.5 29.5t-52.5 10.5t-126 2l-55 -379q-14 -97 -33 -151.5t-47 -78.5t-71 -24q-37 0 -56 14t-16 34q1 15 12.5 24 t27.5 9q18 0 25 -9t12 -27q4 -14 8 -20t14 -6q12 0 19.5 15.5t16.5 59t22 134.5l51 353q2 20 2 26q0 18 -11 23t-45 5q-3 0 -3 5q0 3 1.5 6t2.5 3q35 0 50 9.5t19 34.5q31 166 93.5 237t153.5 71q49 0 75.5 -19z" />
<glyph unicode="fk" horiz-adv-x="673" d="M675 76q3 0 5.5 -3.5t-0.5 -5.5q-67 -76 -105 -76q-25 0 -42.5 14t-40.5 53l-58 99q-9 16 -16.5 21t-20.5 4l-32 -173q-1 -8 -11.5 -12.5t-28.5 -4.5q-25 0 -25 7l5 26q6 22 11 49l103 556q-13 34 -37 56.5t-54 22.5q-107 0 -148 -270l-9 -62l55 4q10 1 21.5 2t23.5 1 q7 0 7 -8t-12 -22t-22 -13q-42 8 -77 10l-54 -372q-14 -97 -33 -151.5t-47 -78.5t-71 -24q-37 0 -56 14t-16 34q1 15 12.5 24t27.5 9q18 0 25 -9t12 -27q4 -14 8 -20t14 -6q12 0 19.5 15.5t16.5 59t22 134.5l51 353q2 20 2 26q0 18 -11 23t-45 5q-3 0 -3 5q0 3 1.5 6t2.5 3 q35 0 50 9.5t19 34.5q28 165 85 236.5t153 71.5q65 0 104 -28q26 17 32 46q1 3 7 2.5t5 -3.5l-79 -427q37 38 81.5 60.5t88.5 22.5q32 0 45.5 -15t13.5 -34q0 -39 -45 -76.5t-125 -66.5l66 -112q20 -33 33.5 -44.5t29.5 -11.5q26 0 63 36q1 1 3 1zM455 319q-39 -46 -55 -119 v-2q85 20 123.5 47.5t45.5 72.5q1 5 1 13q0 16 -8 25t-21 9q-47 0 -86 -46z" />
<glyph unicode="f&#xfe;" horiz-adv-x="682" d="M637 364.5q27 -28.5 27 -78.5q0 -16 -3 -34q-12 -73 -51.5 -130.5t-92 -90t-100.5 -32.5q-31 0 -51 3l-33 -180q-3 -18 -3 -29q0 -17 7.5 -24t25.5 -7q6 0 24 2q4 1 5.5 -4.5t-2.5 -6.5l-178 -28q-3 -1 -4.5 5t2.5 7q22 4 32 10.5t15.5 20.5t11.5 47l88 478 q-29 -20 -50 -36l-2 -1q-3 0 -5 4t0 6q35 29 61 47l58 316q-13 35 -37 57.5t-54 22.5q-107 0 -148 -270l-9 -62l55 4q10 1 21.5 2t23.5 1q7 0 7 -8t-12 -22t-22 -13q-42 8 -77 10l-54 -372q-14 -97 -33 -151.5t-47 -78.5t-71 -24q-37 0 -56 14t-16 34q1 15 12.5 24t27.5 9 q18 0 25 -9t12 -27q4 -14 8 -20t14 -6q12 0 19.5 15.5t16.5 59t22 134.5l51 353q2 20 2 26q0 18 -11 23t-45 5q-3 0 -3 5q0 3 1.5 6t2.5 3q35 0 50 9.5t19 34.5q28 165 85 236.5t153 71.5q65 0 104 -28q26 17 32 46q1 3 7 2.5t5 -3.5l-70 -387q71 37 133 37q47 0 74 -28.5z M593 253q0 44 -20.5 72t-62.5 28q-40 0 -84 -21l-53 -288q32 -16 75 -16q60 0 94 50t48 142q3 17 3 33z" />
<glyph unicode="ft" horiz-adv-x="542" d="M544 381q2 -3 1 -7q-3 -10 -14 -22.5t-20 -11.5q-71 10 -103 11l-44 -245q-3 -16 -3 -28q0 -47 49 -47q24 0 46 11t48 31h1q3 0 6 -3t1 -5q-45 -41 -80 -59t-66 -18q-32 0 -52.5 15t-20.5 50q0 12 3 27l41 226q2 14 2 17q0 17 -12 22.5t-42 7.5q-54 2 -117 2l-55 -376 q-14 -97 -33 -151.5t-47 -78.5t-71 -24q-37 0 -56 14t-16 34q1 15 12.5 24t27.5 9q18 0 25 -9t12 -27q4 -14 8 -20t14 -6q12 0 19.5 15.5t16.5 59t22 134.5l51 353q2 20 2 26q0 18 -11 23t-45 5q-3 0 -3 5q0 3 1.5 6t2.5 3q35 0 50 9.5t19 34.5q20 123 45 188.5t62.5 92.5 t99.5 27q38 0 59 -15.5t18 -38.5q-3 -16 -14 -24.5t-25 -8.5q-19 0 -26.5 9.5t-13.5 28.5q-6 17 -11.5 24.5t-18.5 7.5q-36 0 -62.5 -67t-46.5 -203l-9 -65q94 0 127 2q43 1 71.5 21.5t39.5 56.5q0 3 7 3q4 0 7.5 -1.5t2.5 -2.5l-14 -77q19 1 97 6l29 2q4 0 6 -3z" />
<glyph unicode="gg" horiz-adv-x="764" d="M338 353q-16 0 -31 -3q18 -27 18 -66q0 -21 -4 -38q-9 -44 -35 -78t-61.5 -52t-72.5 -18q-9 0 -23 2q-11 -16 -11 -34q0 -25 20 -41t64 -39q53 -26 81 -50.5t28 -65.5q0 -44 -29 -78.5t-77 -53.5t-102 -19q-69 0 -108 29.5t-39 72.5t35 76t104 71q-35 25 -35 55 q0 22 13 39.5t41 41.5q-32 11 -49 39t-17 67q0 12 4 36q12 63 60.5 104.5t109.5 41.5q49 0 76 -30q28 15 58 23.5t55 8.5q5 0 5 -13q0 -14 -4.5 -29t-8.5 -13q-26 14 -65 14zM775 381q0 -14 -4.5 -28.5t-8.5 -12.5q-31 18 -76 16q22 -30 22 -71q0 -16 -5 -39 q-9 -44 -35 -77.5t-62 -52t-72 -18.5q-9 0 -23 2q-12 -15 -12 -33q0 -26 22.5 -43t67.5 -38q57 -27 86.5 -52t29.5 -66q0 -43 -30 -77t-79.5 -53t-104.5 -19q-64 0 -103.5 28.5t-39.5 72.5q0 5 2 17q7 36 38 65.5t91 65.5q-37 25 -37 56q0 22 13.5 40t40.5 40q-32 11 -49 39 t-17 67q0 12 4 36q13 63 61 104.5t109 41.5q43 0 68 -22q53 24 98 24q5 0 5 -13zM259 259q0 47 -15 80.5t-46 33.5q-28 0 -51 -31t-30 -77q-3 -19 -3 -38q0 -46 17 -77.5t46 -31.5q28 0 50.5 29t29.5 78q2 11 2 34zM641 259q0 47 -15 80.5t-46 33.5q-28 0 -51 -31t-30 -77 q-3 -19 -3 -38q0 -46 17 -77.5t46 -31.5q28 0 50.5 29t29.5 78q2 11 2 34zM629.5 -125.5q-15.5 19.5 -36.5 32.5t-58 31q-8 4 -19.5 9.5t-24.5 13.5q-35 -24 -55 -49.5t-20 -62.5q0 -44 35 -72.5t88 -28.5q52 0 79 22.5t27 58.5q0 26 -15.5 45.5zM224.5 -111.5 q-26.5 22.5 -77.5 49.5q-8 4 -20.5 11t-20.5 12q-40 -25 -62 -50t-22 -63q0 -42 36 -71t93 -29q48 0 74 22.5t26 58.5q0 37 -26.5 59.5z" />
<glyph unicode="gy" horiz-adv-x="798" d="M751 380q11 -16 11 -44q0 -80 -64.5 -231t-149.5 -268.5t-145 -117.5q-20 0 -33 9t-13 28q0 21 12 32.5t34 11.5q7 0 33.5 -0.5t46.5 7t33 23.5q18 21 49 67q-13 135 -40 238.5t-63 161t-76 57.5q-33 0 -66 -31q5 -15 5 -38q0 -22 -4 -39q-9 -44 -35 -77.5t-61.5 -52 t-72.5 -18.5q-9 0 -23 2q-11 -16 -11 -34q0 -23 21 -39.5t66 -39.5q56 -27 86.5 -53t30.5 -67q0 -40 -29.5 -74t-78.5 -54t-106 -20q-71 0 -112 29t-41 71q0 43 36.5 78t104.5 72q-36 25 -36 55q0 19 13.5 37.5t40.5 42.5q-32 11 -49 39t-17 67q0 12 4 36q12 63 60.5 104.5 t109.5 41.5q34 0 57.5 -14.5t35.5 -40.5q25 27 54.5 42.5t54.5 15.5q49 0 89.5 -56t67.5 -149t38 -202q32 58 55 115.5t32 101.5q4 20 4 40q0 23 -5.5 39t-15.5 34q-13 24 -13 39q0 18 11.5 28.5t31.5 10.5q21 0 32 -16zM259 259q0 47 -15 80.5t-46 33.5q-28 0 -51 -31 t-30 -77q-3 -19 -3 -38q0 -46 17 -77.5t46 -31.5q28 0 50.5 29t29.5 78q2 11 2 34zM235.5 -113.5q-27.5 22.5 -81.5 50.5q-30 14 -47 25q-40 -25 -62.5 -50.5t-22.5 -62.5q0 -44 37.5 -72.5t97.5 -28.5q51 0 78.5 23t27.5 57q0 36 -27.5 58.5z" />
<glyph unicode="g&#xfd;" horiz-adv-x="798" d="M751 380q11 -16 11 -44q0 -80 -64.5 -231t-149.5 -268.5t-145 -117.5q-20 0 -33 9t-13 28q0 21 12 32.5t34 11.5q7 0 33.5 -0.5t46.5 7t33 23.5q18 21 49 67q-13 135 -40 238.5t-63 161t-76 57.5q-33 0 -66 -31q5 -15 5 -38q0 -22 -4 -39q-9 -44 -35 -77.5t-61.5 -52 t-72.5 -18.5q-9 0 -23 2q-11 -16 -11 -34q0 -23 21 -39.5t66 -39.5q56 -27 86.5 -53t30.5 -67q0 -40 -29.5 -74t-78.5 -54t-106 -20q-71 0 -112 29t-41 71q0 43 36.5 78t104.5 72q-36 25 -36 55q0 19 13.5 37.5t40.5 42.5q-32 11 -49 39t-17 67q0 12 4 36q12 63 60.5 104.5 t109.5 41.5q34 0 57.5 -14.5t35.5 -40.5q25 27 54.5 42.5t54.5 15.5q49 0 89.5 -56t67.5 -149t38 -202q32 58 55 115.5t32 101.5q4 20 4 40q0 23 -5.5 39t-15.5 34q-13 24 -13 39q0 18 11.5 28.5t31.5 10.5q21 0 32 -16zM259 259q0 47 -15 80.5t-46 33.5q-28 0 -51 -31 t-30 -77q-3 -19 -3 -38q0 -46 17 -77.5t46 -31.5q28 0 50.5 29t29.5 78q2 11 2 34zM235.5 -113.5q-27.5 22.5 -81.5 50.5q-30 14 -47 25q-40 -25 -62.5 -50.5t-22.5 -62.5q0 -44 37.5 -72.5t97.5 -28.5q51 0 78.5 23t27.5 57q0 36 -27.5 58.5zM583.5 472q-5.5 2 -3.5 4 l87 240q2 5 24.5 10t39.5 5q13 0 12 -4l-153 -254q-1 -3 -6.5 -1z" />
<glyph unicode="g&#xff;" horiz-adv-x="798" d="M751 380q11 -16 11 -44q0 -80 -64.5 -231t-149.5 -268.5t-145 -117.5q-20 0 -33 9t-13 28q0 21 12 32.5t34 11.5q7 0 33.5 -0.5t46.5 7t33 23.5q18 21 49 67q-13 135 -40 238.5t-63 161t-76 57.5q-33 0 -66 -31q5 -15 5 -38q0 -22 -4 -39q-9 -44 -35 -77.5t-61.5 -52 t-72.5 -18.5q-9 0 -23 2q-11 -16 -11 -34q0 -23 21 -39.5t66 -39.5q56 -27 86.5 -53t30.5 -67q0 -40 -29.5 -74t-78.5 -54t-106 -20q-71 0 -112 29t-41 71q0 43 36.5 78t104.5 72q-36 25 -36 55q0 19 13.5 37.5t40.5 42.5q-32 11 -49 39t-17 67q0 12 4 36q12 63 60.5 104.5 t109.5 41.5q34 0 57.5 -14.5t35.5 -40.5q25 27 54.5 42.5t54.5 15.5q49 0 89.5 -56t67.5 -149t38 -202q32 58 55 115.5t32 101.5q4 20 4 40q0 23 -5.5 39t-15.5 34q-13 24 -13 39q0 18 11.5 28.5t31.5 10.5q21 0 32 -16zM259 259q0 47 -15 80.5t-46 33.5q-28 0 -51 -31 t-30 -77q-3 -19 -3 -38q0 -46 17 -77.5t46 -31.5q28 0 50.5 29t29.5 78q2 11 2 34zM235.5 -113.5q-27.5 22.5 -81.5 50.5q-30 14 -47 25q-40 -25 -62.5 -50.5t-22.5 -62.5q0 -44 37.5 -72.5t97.5 -28.5q51 0 78.5 23t27.5 57q0 36 -27.5 58.5zM496 485q-12 12 -12 34 q0 21 12 32.5t34 11.5q21 0 32.5 -11.5t11.5 -32.5q0 -22 -11.5 -34t-32.5 -12q-22 0 -34 12zM649 485q-12 12 -12 34q0 21 12 32.5t34 11.5q21 0 33 -11.5t12 -32.5q0 -22 -12 -34t-33 -12q-22 0 -34 12z" />
<glyph horiz-adv-x="0" />
<glyph unicode="&#xd;" horiz-adv-x="234" />
<glyph horiz-adv-x="0" />
<glyph horiz-adv-x="0" />
<glyph unicode=" "  horiz-adv-x="234" />
<glyph unicode="&#x09;" horiz-adv-x="234" />
<glyph unicode="&#xa0;" horiz-adv-x="234" />
<glyph unicode="!" horiz-adv-x="219" d="M106.5 186.5q-5.5 0.5 -4.5 5.5q31 291 34 429q0 4 16.5 8t33.5 4q18 0 34 -4t14 -8q-55 -152 -121 -430q-1 -5 -6.5 -4.5zM48.5 3q-12.5 13 -12.5 35q0 20 12.5 32t34.5 12t34 -11.5t12 -32.5q0 -23 -12 -35.5t-34 -12.5t-34.5 13z" />
<glyph unicode="&#x22;" horiz-adv-x="325" d="M121 609q1 11 31.5 21t49.5 10q10 0 8 -3l-111 -334q-1 -3 -7 -3.5t-6 1.5zM272 609q1 11 31.5 21t49.5 10q10 0 8 -3l-111 -334q-1 -3 -7 -3.5t-6 1.5z" />
<glyph unicode="#" horiz-adv-x="438" d="M418 298q0 -24 -4 -24h-75l-53 -157h62q3 0 3 -18q0 -24 -4 -24h-75l-53 -157q0 -2 -5 -2q-7 0 -17.5 4t-9.5 7l49 148h-115l-53 -157q0 -2 -5 -2q-7 0 -17.5 4t-9.5 7l49 148h-60q-3 0 -3 21t3 21h74l53 157h-60q-2 0 -3 6.5t-1 14.5q0 7 1.5 13.5t2.5 6.5h74l56 169 q1 5 17 -1.5t15 -10.5l-53 -157h116l56 169q1 5 17 -1.5t15 -10.5l-53 -157h63q3 0 3 -17zM250 117l53 157h-115l-53 -157h115z" />
<glyph unicode="$" horiz-adv-x="384" d="M354.5 447.5q2.5 -3.5 1.5 -10.5l-12 -90q-1 -4 -5.5 -3.5t-4.5 5.5q1 18 -8.5 42t-27.5 43.5t-44 25.5l-33 -186q5 -4 15 -10q45 -28 68.5 -53.5t23.5 -65.5q0 -39 -20.5 -73t-56 -56.5t-80.5 -26.5l-16 -92q-1 -6 -10 -6q-5 0 -8.5 2.5t-2.5 6.5l16 88 q-33 0 -62.5 10.5t-47.5 26.5q-7 5 -6 20l10 104q1 4 5.5 3.5t5.5 -4.5q5 -51 31.5 -92.5t66.5 -48.5l36 207l-15 10q-42 27 -64 52t-22 63q0 61 43.5 98t104.5 42l15 84q0 3 3 4.5t6 1.5q5 0 8.5 -2.5t2.5 -6.5l-14 -80q45 -1 87 -24q8 -5 10.5 -8.5zM149 367 q0 -26 13.5 -44.5t39.5 -36.5l31 176q-33 -1 -55 -23t-28 -56q-1 -6 -1 -16zM262 113q0 27 -14 47.5t-40 39.5l-34 -194q30 3 54.5 24.5t31.5 62.5q2 14 2 20z" />
<glyph unicode="%" horiz-adv-x="522" d="M93 331q-24 28 -24 73q0 40 18.5 76t49.5 58t66 22q40 0 63 -28t23 -72q0 -15 -3 -30q-10 -54 -46.5 -90.5t-82.5 -36.5q-40 0 -64 28zM64 -8q-5 0 -14.5 6.5t-7.5 8.5l430 544q0 1 2 1q5 0 13.5 -7.5t6.5 -9.5l-429 -543h-1zM205 344q13 27 21 79q5 35 5 54 q0 33 -9.5 50.5t-26.5 17.5q-28 0 -42.5 -29t-22.5 -80q-4 -24 -4 -51q0 -68 39 -68q27 0 40 27zM287.5 23q-24.5 28 -24.5 73q0 40 18.5 76t49.5 58t66 22q40 0 63 -27.5t23 -71.5q0 -15 -3 -30q-10 -55 -46 -91.5t-82 -36.5q-40 0 -64.5 28zM400 37q13 27 21 79q5 33 5 54 q0 67 -37 67q-27 0 -41.5 -29t-22.5 -80q-5 -30 -5 -51q0 -31 10 -49t30 -18q27 0 40 27z" />
<glyph unicode="&#x26;" horiz-adv-x="755" d="M753.5 378.5q7.5 -7.5 7.5 -26.5q0 -26 -15 -51.5t-39.5 -41.5t-52.5 -16q-30 0 -70 20q-19 -134 -92.5 -204.5t-180.5 -70.5q-70 0 -124.5 32.5t-85 86.5t-30.5 118q0 26 6 53q12 54 46 96.5t81 66.5t96 24q50 0 82 -25q57 64 57 111q0 19 -6.5 29t-18.5 19 q-10 8 -15 15.5t-5 20.5q0 17 10.5 27.5t27.5 10.5q24 0 38.5 -21t14.5 -55q0 -57 -40 -114.5t-97 -107t-147 -118.5l-57 -44q9 -54 38.5 -95t72 -63t90.5 -22q86 0 146.5 62.5t74.5 176.5l-28 14q-37 19 -61.5 29t-45.5 10q-15 0 -23.5 -6t-8.5 -15q0 -12 10 -28 q4 -7 7 -13.5t3 -12.5q0 -11 -7 -19t-21 -8q-13 0 -21 8.5t-8 26.5q0 27 17.5 52t46 41t57.5 16q25 0 51 -10t67 -31q38 -19 58.5 -27.5t39.5 -8.5q12 0 20.5 5.5t8.5 13.5q0 9 -11 22q-14 16 -14 30q0 12 7.5 18.5t21.5 6.5t21.5 -7.5zM140 260q0 -10 2 -28l52 42 q83 66 130 108q-24 55 -76 55q-37 0 -64.5 -36.5t-38.5 -90.5q-5 -28 -5 -50z" />
<glyph unicode="'" horiz-adv-x="132" d="M103 609q1 11 31.5 21t49.5 10q10 0 8 -3l-111 -334q-1 -3 -7 -3.5t-6 1.5z" />
<glyph unicode="(" horiz-adv-x="283" d="M99.5 1q-32.5 77 -32.5 179q0 65 11 124q25 141 96 254t171 167h1q3 0 5.5 -3.5t-0.5 -4.5q-75 -71 -122.5 -172.5t-71.5 -240.5q-15 -85 -15 -160q0 -147 62 -253v-1q0 -3 -2.5 -5.5t-4.5 -1.5q-65 41 -97.5 118z" />
<glyph unicode=")" horiz-adv-x="283" d="M223.5 607q32.5 -77 32.5 -179q0 -65 -11 -124q-25 -141 -96 -254t-171 -167h-1q-3 0 -5.5 3.5t0.5 4.5q75 71 122.5 172.5t71.5 240.5q15 86 15 160q0 147 -62 253v1q0 3 2.5 5.5t4.5 1.5q65 -41 97.5 -118z" />
<glyph unicode="*" horiz-adv-x="448" d="M253 659q-1 11 30 21t52 10q10 0 8 -3l-67 -158q-1 -3 -5.5 -3t-5.5 3zM117 539q-10 3 -10 38q0 21 3.5 40.5t7.5 15.5l129 -112q1 -1 1 -3q0 -3 -1.5 -5.5t-3.5 -1.5zM291 503q-2 0 -3.5 4.5t0.5 5.5l119 51q8 4 23.5 -15t26 -40t4.5 -21zM176 369q-12 0 -32 7.5 t-34.5 16t-10.5 11.5l146 87q1 1 3 1t4.5 -3t1.5 -4l-66 -111q-3 -5 -12 -5zM273 481v1q0 2 3.5 4.5t4.5 1.5l86 -98q6 -7 -7 -27t-30.5 -37t-18.5 -11z" />
<glyph unicode="+" horiz-adv-x="398" d="M367.5 203.5q1.5 -6.5 1.5 -13.5q0 -8 -1.5 -14.5t-3.5 -6.5h-144v-144q0 -2 -8 -3.5t-16 -1.5q-18 0 -18 3v146h-144q-2 0 -3.5 7t-1.5 15q0 7 1 13t3 6h145v144q0 2 6.5 3.5t14.5 1.5t14.5 -1.5t6.5 -3.5v-144h144q2 0 3.5 -6.5z" />
<glyph unicode="," horiz-adv-x="227" d="M117.5 64q15.5 -18 15.5 -49q0 -14 -3 -29q-7 -38 -36.5 -75.5t-74.5 -69.5q-1 -1 -3 -1q-3 0 -5 4t1 6q72 57 82 120q1 6 1 17q0 10 -2 14q-7 -9 -26 -9q-22 0 -33.5 15t-9.5 34t15 30t36 11q27 0 42.5 -18z" />
<glyph unicode="-" horiz-adv-x="305" d="M28 195q0 17 2 18l249 46q2 1 3.5 -8t1.5 -19q0 -19 -3 -19l-248 -47q-5 -1 -5 29z" />
<glyph unicode="." horiz-adv-x="200" d="M36.5 3q-12.5 13 -12.5 35q0 20 12.5 32t34.5 12t34 -11.5t12 -32.5q0 -23 -12 -35.5t-34 -12.5t-34.5 13z" />
<glyph unicode="/" horiz-adv-x="305" d="M-19.5 -169q-9.5 2 -17.5 6.5t-7 7.5l384 887q2 4 11.5 2t17 -7t5.5 -9l-382 -886q-2 -3 -11.5 -1z" />
<glyph unicode="0" horiz-adv-x="441" d="M71.5 32q-43.5 45 -43.5 119q0 24 4 45q11 59 44 105t81 72t102 26q70 0 112.5 -43.5t42.5 -115.5q0 -19 -5 -47q-11 -60 -43.5 -106.5t-80 -73t-100.5 -26.5q-70 0 -113.5 45zM285 52q34 49 47 129q5 30 5 65q0 66 -24.5 101.5t-65.5 35.5q-50 0 -87.5 -49.5 t-50.5 -129.5q-5 -35 -5 -59q0 -64 24.5 -103t71.5 -39q51 0 85 49z" />
<glyph unicode="1" horiz-adv-x="291" d="M7 6q0 6 4 6q36 0 54 5t27 19.5t15 44.5l35 190q5 27 5 39q0 11 -3.5 16t-12.5 5q-14 0 -69 -25l-2 -1q-4 0 -5 5t2 7l163 80q2 2 5 0t2 -5l-56 -311q-3 -18 -3 -30q0 -24 16 -31.5t61 -7.5q3 0 3 -6t-3 -6q-31 0 -49 1l-67 1l-68 -1q-18 -1 -50 -1q-4 0 -4 6z" />
<glyph unicode="2" horiz-adv-x="366" d="M153.5 143q50.5 47 74 85.5t23.5 79.5q0 29 -16 47.5t-44 18.5q-33 0 -62 -30.5t-56 -89.5q-2 -2 -3 -2q-3 0 -6 2t-2 5l58 151q2 2 4 2q3 0 5 -2t1 -4q-3 -10 -3 -16q0 -11 10 -11q8 0 29 7q39 13 68 13q40 0 63 -21t23 -57q0 -37 -19 -68.5t-51.5 -60.5t-94.5 -78 q-39 -30 -66 -52q-3 -1 -2 -2t3 -1q89 0 130 3.5t63 16.5t33 43q2 3 5 3t5.5 -2t1.5 -4l-35 -111q-4 -8 -9 -8h-274q-5 0 -7.5 5t1.5 10q99 81 149.5 128z" />
<glyph unicode="3" horiz-adv-x="346" d="M274.5 204q-34.5 -49 -89.5 -73q49 -8 74 -39t25 -76q0 -14 -3 -31q-8 -47 -46 -96.5t-105.5 -93t-160.5 -71.5q-3 -1 -5 4.5t0 7.5q112 39 170.5 108t71.5 139q3 16 3 32q0 42 -20.5 67t-61.5 25q-16 0 -42 -7h-1q-4 0 -6 6.5t2 7.5q72 19 108.5 56.5t47.5 101.5 q4 19 4 38q0 65 -54 65q-79 0 -134 -118q-1 -1 -4 -1t-6 2t-2 4l59 144q2 2 3 2q3 0 5.5 -2t1.5 -5q-3 -9 -3 -14q0 -10 12 -10q11 0 30 8q22 7 37 10.5t33 3.5q44 0 67.5 -26t23.5 -67q0 -53 -34.5 -102z" />
<glyph unicode="4" horiz-adv-x="426" d="M363 28.5q-4 -25.5 -8 -25.5l-70 4l-29 -165q-2 -11 -9 -14l-50 -16l-6 -2q-4 0 -3 8l34 190q-62 2 -232 2q-4 0 -5.5 3.5t2.5 7.5l354 379q2 2 5 2t6 -1.5t2 -4.5l-61 -344l70 2q4 0 0 -25.5zM229 50l43 246l-227 -241q-3 -3 -2 -5t6 -2q76 0 180 2z" />
<glyph unicode="5" horiz-adv-x="374" d="M355 425q3 0 5.5 -2t1.5 -4l-32 -78q-6 -12 -11.5 -15t-17.5 -3l-174 -4q-11 0 -17 -15l-35 -108q111 -1 164 -41t53 -109q0 -17 -3 -37q-15 -83 -87.5 -148t-224.5 -136h-1q-4 0 -6 4.5t2 6.5q118 61 173 123t67 133q3 20 3 37q0 65 -41 101.5t-120 36.5q-4 0 -6 3.5 t0 8.5l60 178q2 7 4 8.5t10 2.5q117 15 157.5 21t53 12.5t19.5 21.5q2 2 3 2z" />
<glyph unicode="6" horiz-adv-x="422" d="M76.5 28q-42.5 41 -42.5 117q0 23 7 63q17 92 72 182t141 162t191 109q4 1 5.5 -5t-2.5 -7q-91 -43 -161.5 -112t-114 -150.5t-56.5 -160.5q-6 -34 -6 -66q0 -69 29.5 -110.5t83.5 -41.5q35 0 58.5 27.5t32.5 80.5q3 21 3 41q0 44 -17.5 70t-53.5 26q-19 0 -38 -8.5 t-43 -27.5l-2 -1q-3 0 -5 3t-1 5q55 58 128 58q55 0 81 -31t26 -77q0 -15 -3 -32q-8 -43 -36.5 -78.5t-70.5 -56t-89 -20.5q-74 0 -116.5 41z" />
<glyph unicode="7" horiz-adv-x="389" d="M-5 -275q-3 0 -4.5 2.5t0.5 4.5l347 590q6 7 -2 7q-131 0 -184 -4.5t-72.5 -17.5t-34.5 -47q0 -2 -4 -2q-3 0 -6 2t-2 4l60 151q0 2 3 2t6.5 -2t2.5 -3q-4 -12 -4 -14q0 -7 9 -9.5t32 -2.5h239q4 0 5.5 -4.5t-0.5 -8.5l-298 -593q-9 -17 -24 -24l-68 -31h-1z" />
<glyph unicode="8" horiz-adv-x="440" d="M357.5 301q22.5 -19 38.5 -46.5t16 -63.5q0 -13 -3 -30q-10 -51 -42.5 -90.5t-78.5 -61.5t-95 -22q-77 0 -121.5 39.5t-44.5 97.5q0 65 52.5 124t121.5 90q-33 23 -50.5 45.5t-17.5 53.5q0 5 2 19q9 56 56 87t100 31q37 0 63 -15t39.5 -37.5t13.5 -46.5q0 -5 -2 -15 q-5 -29 -34 -59t-74 -56q38 -25 60.5 -44zM221 406.5q23 -26.5 66 -54.5q28 26 42 54t14 63q0 37 -19.5 62.5t-50.5 25.5q-32 0 -53.5 -24.5t-21.5 -63.5q0 -36 23 -62.5zM340 165q0 41 -18 70t-39 45.5t-70 49.5q-44 -25 -72 -65t-36 -90q-3 -16 -3 -32q0 -58 31.5 -97 t87.5 -39q42 0 74.5 34t41.5 91q3 18 3 33z" />
<glyph unicode="9" horiz-adv-x="422" d="M-28 -270q-2 6 2 7q90 42 160 112.5t113.5 152t58.5 158.5q6 30 6 61q0 67 -29.5 112t-82.5 45q-34 0 -58 -23.5t-33 -72.5q-3 -18 -3 -36q0 -49 21.5 -80.5t58.5 -31.5q18 0 34.5 8.5t37.5 27.5q1 1 3 1q3 0 5 -2.5t1 -4.5q-50 -60 -118 -60q-57 0 -88 37.5t-31 87.5 q0 46 28 85t74.5 62t97.5 23q72 0 113.5 -44t41.5 -121q0 -31 -5 -56q-16 -92 -71 -182t-141 -161.5t-190 -109.5q-4 -1 -6 5z" />
<glyph unicode=":" horiz-adv-x="200" d="M36.5 3q-12.5 13 -12.5 35q0 20 12.5 32t34.5 12t34 -11.5t12 -32.5q0 -23 -12 -35.5t-34 -12.5t-34.5 13zM73.5 284q-12.5 13 -12.5 35q0 20 12.5 32t34.5 12t34 -11.5t12 -32.5q0 -23 -12 -35.5t-34 -12.5t-34.5 13z" />
<glyph unicode=";" horiz-adv-x="222" d="M117.5 64q15.5 -18 15.5 -49q0 -14 -3 -29q-7 -38 -36.5 -75.5t-74.5 -69.5q-1 -1 -3 -1q-3 0 -5 4t1 6q72 57 82 120q1 6 1 17q0 10 -2 14q-7 -9 -26 -9q-22 0 -33.5 15t-9.5 34t15 30t36 11q27 0 42.5 -18zM73.5 284q-12.5 13 -12.5 35q0 20 12.5 32t34.5 12t34 -11.5 t12 -32.5q0 -23 -12 -35.5t-34 -12.5t-34.5 13z" />
<glyph unicode="&#x3c;" horiz-adv-x="407" d="M377 43q0 -21 -7 -18l-334 148q-5 3 -5 17q0 15 5 17l334 147q3 2 5 -3.5t2 -14.5q0 -21 -7 -25l-284 -121l284 -121q7 -3 7 -26z" />
<glyph unicode="=" horiz-adv-x="468" d="M30.5 246q-1.5 7 -1.5 15q0 7 1 13t3 6h401q2 0 3.5 -6.5t1.5 -13.5q0 -8 -1.5 -14.5t-3.5 -6.5h-400q-2 0 -3.5 7zM30.5 106q-1.5 7 -1.5 15q0 7 1 13t3 6h401q2 0 3.5 -6.5t1.5 -13.5q0 -8 -1.5 -14.5t-3.5 -6.5h-400q-2 0 -3.5 7z" />
<glyph unicode="&#x3e;" horiz-adv-x="407" d="M376 189q0 -14 -5 -17l-334 -147q-3 -1 -5 4.5t-2 13.5t2 16t5 9l284 121l-284 121q-3 2 -5 10t-2 16q0 9 2 14.5t5 3.5l334 -148q5 -2 5 -17z" />
<glyph unicode="?" horiz-adv-x="295" d="M122.5 236q-5.5 26 -5.5 49q0 41 17.5 66t53.5 55q33 27 51.5 50.5t25.5 60.5q2 16 2 24q0 30 -14 49t-40 19q-23 0 -32.5 -11.5t-15.5 -32.5q-4 -21 -13 -35t-31 -14q-16 0 -24.5 9t-8.5 23q0 7 1 10q4 30 43.5 48.5t88.5 18.5q53 0 85 -24.5t32 -69.5q0 -12 -3 -26 q-6 -31 -21.5 -54.5t-31 -38t-47.5 -40.5q-42 -34 -60 -61t-24 -63q-2 -9 -2 -30q0 -18 1 -27q0 -4 -6 -5t-7 3q-9 21 -14.5 47zM80.5 3q-12.5 13 -12.5 35q0 20 12.5 32t34.5 12t34 -11.5t12 -32.5q0 -23 -12 -35.5t-34 -12.5t-34.5 13z" />
<glyph unicode="@" horiz-adv-x="722" d="M422 68q-15 15 -15 43q0 8 4 30l7 36q-34 -57 -75.5 -91.5t-78.5 -34.5q-24 0 -38.5 15t-14.5 47q0 13 1 20q8 54 41.5 106t78.5 85t85 33q14 0 27 -5.5t22 -16.5q8 5 14.5 12.5t7.5 16.5q2 2 6 2t7.5 -1t4.5 -2l-41 -224q-3 -15 -3 -28q0 -18 8.5 -27.5t28.5 -9.5 q26 0 52.5 19t44.5 56t18 87q0 65 -32.5 119t-89 86t-125.5 32q-77 0 -133.5 -36.5t-85.5 -99t-29 -138.5q0 -80 34.5 -140.5t97 -93.5t144.5 -33q46 0 83.5 10.5t82.5 37.5h1q3 0 5 -3.5t0 -4.5q-89 -72 -206 -72q-82 0 -148 32.5t-104.5 95t-38.5 147.5q0 93 45.5 166.5 t121.5 114t162 40.5q77 0 135.5 -31.5t90 -84t31.5 -114.5q0 -56 -26 -105t-69.5 -78.5t-94.5 -29.5q-29 0 -44 15zM350.5 124q28.5 26 52 66.5t32.5 81.5q2 12 2 17q0 20 -9 32.5t-27 12.5q-25 0 -51.5 -22.5t-46.5 -60t-27 -79.5q-4 -26 -4 -35q0 -39 27 -39q23 0 51.5 26 z" />
<glyph unicode="A" d="M570 6q0 -6 -4 -6q-15 0 -47 2q-36 2 -57 2q-22 0 -54 -2t-46 -2q-3 0 -3 6t3 6q35 0 49 9t14 33q0 14 -3 30l-40 235h-150l-103 -188q-29 -52 -29 -80q0 -22 17 -30.5t52 -8.5q4 0 3.5 -6t-4.5 -6q-12 0 -48 2q-40 2 -62 2q-21 0 -49 -2t-43 -2q-4 0 -4 6t4 6 q29 0 63.5 27.5t68.5 87.5l284 508q2 3 7 3q9 0 11 -5l95 -549q5 -31 10.5 -45t19 -20.5t41.5 -6.5q4 0 4 -6zM245 342h133l-32 185z" />
<glyph unicode="B" horiz-adv-x="534" d="M453.5 305.5q38.5 -38.5 38.5 -96.5q0 -14 -3 -31q-10 -50 -44.5 -91.5t-85 -66t-107.5 -24.5q-28 0 -63 3q-13 1 -30.5 2t-37.5 1l-64 -1q-16 -1 -45 -1q-3 0 -2.5 6t2.5 6q45 0 62.5 14t25.5 57l82 463q3 18 3 29q0 23 -13.5 30.5t-50.5 7.5q-3 0 -2.5 6t2.5 6l47 -1 q38 -2 60 -2q17 0 31.5 1t25.5 2q29 3 53 3q76 0 115 -28.5t39 -78.5q0 -14 -3 -29q-11 -48 -47 -84t-95 -57q68 -7 106.5 -45.5zM219 352l38 -1q67 0 108 39.5t53 102.5q4 16 4 34q0 40 -25.5 62.5t-77.5 22.5q-32 0 -46 -14t-21 -59zM413 205q0 58 -34 90t-102 33 q-25 1 -63 -2l-44 -247q-3 -13 -3 -24q0 -22 15.5 -31t56.5 -9q73 0 115 39.5t55 109.5q4 20 4 41z" />
<glyph unicode="C" horiz-adv-x="586" d="M120 60.5q-63 73.5 -63 183.5q0 30 7 72q17 95 73.5 168t135.5 112.5t161 39.5q41 0 82.5 -9t64.5 -24q6 -4 7.5 -8.5t0.5 -15.5l-12 -118q-1 -4 -6 -4t-5 4q-10 76 -54.5 113.5t-115.5 37.5q-62 0 -114 -32.5t-86.5 -92.5t-46.5 -141q-7 -41 -7 -84q0 -74 22 -133 t63.5 -92.5t96.5 -33.5t108.5 37.5t101.5 113.5q2 2 4 2q3 0 5 -2t1 -4l-29 -110q-3 -12 -6 -16.5t-12 -6.5q-87 -30 -179 -30q-135 0 -198 73.5z" />
<glyph unicode="D" horiz-adv-x="620" d="M185 -1q-12 1 -29.5 2t-39.5 1l-62 -1q-15 -1 -42 -1q-3 0 -3 6t3 6q31 0 46 5t23 19.5t13 44.5l82 463q4 17 4 32q0 22 -13 29.5t-48 7.5q-2 0 -2 6t2 6l44 -1q38 -2 62 -2q29 0 61 3q38 2 53 2q81 0 141.5 -31t93 -86.5t32.5 -127.5q0 -34 -5 -59q-17 -96 -72 -170.5 t-131.5 -115.5t-156.5 -41q-24 0 -56 3zM361 46q58 34 98.5 99t56.5 156q7 38 7 79q0 102 -47 166.5t-138 64.5q-46 0 -65.5 -14t-26.5 -55l-79 -450q-3 -16 -3 -30q0 -26 16 -38t56 -12q67 0 125 34z" />
<glyph unicode="E" horiz-adv-x="520" d="M516 616l-8 -54l-12 -73q0 -3 -5 -3q-2 0 -4.5 1.5t-2.5 2.5q4 53 -21 85.5t-71 32.5h-62q-31 0 -45.5 -5t-21.5 -18t-12 -42l-36 -206h132q41 0 62 16t28 56q0 3 6 3q2 0 4.5 -1.5t1.5 -3.5q-3 -22 -9 -46q-4 -15 -7 -36l-5 -31q-3 -31 -10 -65q-1 -4 -7 -3.5t-5 4.5 q3 15 3 27q0 30 -17 43.5t-52 13.5h-129l-41 -229q-3 -18 -3 -30q0 -21 12.5 -28.5t46.5 -7.5h83q44 0 86 36.5t68 96.5q2 3 7.5 2t3.5 -4q-18 -58 -32 -135q-2 -9 -5 -12t-11 -3h-409q-2 0 -2 6t2 6q31 0 46 5t22.5 19t13.5 45l81 463q4 17 4 33q0 21 -13 28.5t-47 7.5 q-3 0 -3 6t3 6h386q8 0 6 -9z" />
<glyph unicode="F" horiz-adv-x="484" d="M513 616l-12 -81l-7 -46q-1 -4 -7 -3t-5 4q3 53 -22 85.5t-71 32.5h-62q-31 0 -45.5 -5t-21.5 -18t-12 -42l-39 -218h118q41 0 62 16.5t28 55.5q1 4 7 3.5t5 -4.5q-4 -24 -16 -83l-15 -96q-1 -4 -7 -3.5t-5 4.5q2 10 2 26q0 31 -16.5 44.5t-51.5 13.5h-115l-38 -217 q-3 -16 -3 -29q0 -26 19.5 -35t75.5 -9q2 0 2 -6t-2 -6q-28 0 -46 1l-97 1l-60 -1q-15 -1 -42 -1q-3 0 -3 6t3 6q31 0 46 5t22.5 19.5t13.5 44.5l81 463q4 17 4 33q0 21 -13 28.5t-47 7.5q-3 0 -3 6t3 6h387q8 0 5 -9z" />
<glyph unicode="G" horiz-adv-x="631" d="M183 20q-61 32 -92.5 89.5t-31.5 132.5q0 36 7 71q17 93 74 167t140.5 115t177.5 41q42 0 81 -9t61 -25q7 -5 7 -12l-1 -11l-11 -118q-1 -4 -6 -4t-6 4q-9 73 -51.5 112.5t-113.5 39.5q-105 0 -175.5 -71t-91.5 -193q-7 -42 -7 -85q0 -118 57.5 -187.5t156.5 -69.5 q40 0 63.5 9.5t37 35t20.5 74.5q6 38 6 59t-8 31t-26 13.5t-54 3.5q-2 0 -3.5 2.5t-1.5 5.5t1.5 5.5t3.5 2.5q68 -5 113 -5q42 0 89 3q4 0 4 -7t-4 -7q-18 1 -26.5 -6.5t-14 -29.5t-14.5 -81q-7 -44 -7.5 -62t-1.5 -26q-1 -6 -3 -7.5t-9 -4.5q-110 -28 -193 -28 q-86 0 -147 32z" />
<glyph unicode="H" horiz-adv-x="672" d="M703 619q0 -6 -3 -6q-30 0 -45 -5.5t-22.5 -19.5t-13.5 -44l-82 -463q-3 -19 -3 -31q0 -23 13 -30.5t48 -7.5q3 0 3 -6t-3 -6q-26 0 -41 1l-62 1l-62 -1q-16 -1 -45 -1q-2 0 -2 6t2 6q32 0 47 5t22.5 19t12.5 45l41 233h-303l-41 -233q-4 -26 -4 -33q0 -21 13 -28.5 t48 -7.5q3 0 3 -6t-3 -6q-27 0 -43 1l-64 1l-60 -1q-15 -1 -42 -1q-3 0 -3 6t3 6q31 0 46 5t23 19.5t13 44.5l82 463q4 26 4 32q0 22 -13 29.5t-48 7.5q-2 0 -2 6t2 6l43 -1q36 -2 59 -2t63 2l44 1q2 0 2 -6t-2 -6q-30 0 -45.5 -6t-23 -20.5t-13.5 -44.5l-36 -205h302 l36 205q4 26 4 34q0 22 -13 29.5t-47 7.5q-3 0 -3 6t3 6l43 -1q38 -2 61 -2q22 0 62 2l42 1q3 0 3 -6z" />
<glyph unicode="I" horiz-adv-x="317" d="M19 6q0 6 3 6q31 0 45.5 5t22 19t12.5 45l82 463q4 26 4 32q0 22 -13.5 29.5t-47.5 7.5q-3 0 -3 6t3 6l43 -1q38 -2 60 -2q29 0 67 2l40 1q3 0 3 -6t-3 -6q-30 0 -45 -6t-22.5 -20.5t-13.5 -44.5l-82 -461q-4 -26 -4 -32q0 -22 13.5 -29.5t48.5 -7.5q2 0 2 -6t-2 -6 q-26 0 -42 1l-64 1l-60 -1q-16 -1 -44 -1q-3 0 -3 6z" />
<glyph unicode="J" horiz-adv-x="292" d="M-23 -193q-3 0 -5 4.5t1 6.5q45 27 71 81t42 141l89 504q3 18 3 31q0 23 -13 30.5t-48 7.5q-2 0 -2 6t2 6l43 -1q38 -2 61 -2q28 0 66 2l41 1q3 0 3 -6t-3 -6q-31 0 -46 -6t-22.5 -20.5t-12.5 -44.5l-84 -475q-15 -78 -37 -126.5t-56.5 -79t-91.5 -54.5h-1z" />
<glyph unicode="K" horiz-adv-x="604" d="M634 619q0 -6 -3 -6q-37 0 -82.5 -20.5t-88.5 -60.5l-160 -143l97 -182q51 -94 77 -133.5t43.5 -50.5t44.5 -11q3 0 3 -6t-3 -6h-88q-41 0 -51.5 5t-36.5 60t-43 87l-100 186l-40 -35l-39 -222q-5 -30 -5 -41q0 -17 11.5 -22.5t44.5 -5.5q2 0 2 -6t-2 -6q-27 0 -41 1 l-60 1l-60 -1q-15 -1 -42 -1q-3 0 -3 6t3 6q31 0 46 5t23 19.5t13 44.5l82 463q4 26 4 32q0 22 -13 29.5t-48 7.5q-2 0 -2 6t2 6l43 -1q36 -2 59 -2t63 2l44 1q2 0 2 -6t-2 -6q-30 0 -45.5 -6t-23 -20.5t-13.5 -44.5l-38 -215l230 211q35 32 35 53q0 22 -44 22q-2 0 -2 6 t2 6l41 -1q40 -2 70 -2q28 0 60 2l31 1q3 0 3 -6z" />
<glyph unicode="L" horiz-adv-x="499" d="M10 6q0 6 3 6q31 0 46 5t22.5 19.5t12.5 44.5l82 463q4 26 4 32q0 22 -13 29.5t-48 7.5q-2 0 -2 6t2 6l43 -1q36 -2 59 -2t63 2l44 1q2 0 2 -6t-2 -6q-31 0 -46 -5.5t-22.5 -20t-13.5 -44.5l-81 -458q-3 -18 -3 -31q0 -21 11.5 -28t41.5 -7h77q61 0 104 35t74 104 q1 3 6.5 2t4.5 -4q-20 -68 -33 -141q-2 -8 -5.5 -11.5t-10.5 -3.5h-419q-3 0 -3 6z" />
<glyph unicode="M" horiz-adv-x="735" d="M769 619q0 -6 -2 -6q-39 0 -57.5 -13.5t-24.5 -53.5l-69 -465q-3 -18 -3 -30q0 -23 12.5 -31t47.5 -8q3 0 3 -6t-3 -6q-26 0 -41 1l-63 1l-61 -1q-16 -1 -44 -1q-3 0 -3 6t3 6q32 0 47 5t22.5 19.5t11.5 44.5l71 475l-284 -549q-2 -4 -7 -4q-6 0 -8 5l-112 534v1 l-77 -427q-4 -21 -4 -42q0 -62 53 -62q3 0 3 -6t-3 -6q-21 0 -32 1l-49 1l-44 -1q-12 -1 -36 -1q-3 0 -3 6t3 6q35 0 57 25.5t32 77.5l86 464q-21 34 -66 34q-3 0 -3 6t3 6q16 0 26 -1l32 -1q21 0 35 1t22 1q11 0 17 -10t13 -42l98 -457l249 484q6 11 15 18t19 7q7 0 20 -1 t30 -1l39 1q9 1 27 1q2 0 2 -6z" />
<glyph unicode="N" horiz-adv-x="652" d="M696 619q0 -6 -2 -6q-75 0 -91 -98l-94 -524q0 -2 -3 -3.5t-7 -1.5q-8 0 -9 4l-293 553l-75 -434q-4 -26 -4 -35q0 -62 59 -62q2 0 2 -6t-2 -6q-22 0 -35 1l-49 1l-48 -1q-13 -1 -38 -1q-2 0 -2 6t2 6q75 0 91 97l82 462q-16 23 -32 32.5t-34 9.5q-3 0 -3 6t3 6l39 -1 q12 -1 33 -1q19 0 32 1t19 1t9 -3.5t7 -15.5q7 -20 14 -33l241 -457l71 399q4 26 4 36q0 62 -59 62q-2 0 -2 6t2 6l34 -1q30 -2 51 -2q16 0 46 2l39 1q2 0 2 -6z" />
<glyph unicode="O" horiz-adv-x="652" d="M162.5 20.5q-50.5 32.5 -76.5 89.5t-26 130q0 36 6 73q16 93 66.5 166.5t123 115t154.5 41.5q71 0 122.5 -32.5t78.5 -89t27 -128.5q0 -38 -7 -73q-17 -95 -69.5 -169.5t-126 -115t-152.5 -40.5q-70 0 -120.5 32.5zM467.5 79q59.5 65 81.5 181q10 49 10 98 q0 73 -22.5 130.5t-65.5 90.5t-101 33q-83 0 -142.5 -66t-80.5 -180q-9 -48 -9 -93q0 -73 22 -132t64.5 -93t101.5 -34q82 0 141.5 65z" />
<glyph unicode="P" horiz-adv-x="512" d="M11 6q0 6 2 6q31 0 46.5 5t23 19.5t13.5 44.5l81 463q4 17 4 33q0 21 -13 28.5t-47 7.5q-3 0 -3 6t3 6l42 -1q36 -2 60 -2l48 2q46 4 74 4q78 0 127 -35t49 -103q0 -11 -4 -37q-12 -63 -52.5 -106t-93 -64t-101.5 -21q-25 0 -41 5q-1 0 -1 3q0 4 2 9t4 4q13 -4 30 -4 q59 0 108.5 39.5t62.5 114.5q4 20 4 43q0 63 -33 99t-81 36q-30 0 -43.5 -4.5t-21 -18.5t-13.5 -46l-81 -461q-4 -26 -4 -33q0 -21 13 -28.5t48 -7.5q2 0 2 -6t-2 -6q-27 0 -43 1l-64 1l-60 -1q-16 -1 -43 -1q-2 0 -2 6z" />
<glyph unicode="Q" horiz-adv-x="652" d="M690.5 -177.5q1.5 -5.5 -0.5 -6.5q-47 -13 -80 -13q-64 0 -130 51.5t-113 145.5q-40 -12 -84 -12q-70 0 -120.5 32.5t-76.5 89.5t-26 130q0 36 6 73q16 93 66.5 166.5t123 115t154.5 41.5q71 0 122.5 -32.5t78.5 -89t27 -128.5q0 -38 -7 -73q-17 -94 -67.5 -167 t-122.5 -115q24 -59 61 -106.5t77.5 -74.5t72.5 -27q22 0 34 4q3 1 4.5 -4.5zM138 273q0 -73 22 -132t64.5 -93t101.5 -34q82 0 141.5 65t81.5 181q10 49 10 98q0 73 -22.5 130.5t-65.5 90.5t-101 33q-83 0 -142.5 -66t-80.5 -180q-9 -48 -9 -93z" />
<glyph unicode="R" horiz-adv-x="620" d="M599 6q0 -6 -4 -6h-121q-24 0 -69 84.5t-100 240.5q-32 -8 -61 -8q-11 0 -25 2l-43 -238q-4 -19 -4 -33q0 -21 13.5 -28.5t49.5 -7.5q4 0 4 -6t-3 -6q-29 0 -46 1l-63 1l-64 -1q-17 -1 -47 -1q-4 0 -4 6t4 6q33 0 50 5.5t25.5 19.5t14.5 44l81 463q4 17 4 33 q0 21 -13.5 28.5t-50.5 7.5q-4 0 -4 6t4 6l46 -1q38 -2 62 -2q17 0 31.5 1t25.5 2q28 3 50 3q70 0 107 -25.5t37 -71.5q0 -54 -34.5 -103t-89.5 -79q53 -129 91.5 -201t72 -104t69.5 -32q4 0 4 -6zM264 341q63 0 95.5 30t43.5 98q4 23 4 47q0 49 -22 72t-60 23 q-25 0 -36 -3.5t-18 -17.5t-13 -48l-35 -197q26 -4 41 -4z" />
<glyph unicode="S" horiz-adv-x="465" d="M117 -4.5q-33 7.5 -69 26.5q-8 5 -6 19l20 135q0 5 5.5 5t6.5 -5q7 -77 41 -123t96 -46q47 0 82 28t44 84q3 15 3 28q0 48 -28.5 81.5t-81.5 71.5q-37 27 -58.5 46t-36.5 45t-15 60q0 15 3 30q14 74 74.5 114.5t134.5 40.5q55 0 111 -24q13 -7 12 -17l-14 -117 q0 -4 -5.5 -4t-5.5 4q-8 63 -36 102t-82 39q-40 0 -66 -20.5t-38.5 -50.5t-12.5 -59q0 -31 14.5 -55t34.5 -41.5t58 -44.5q58 -41 88 -76t30 -86q0 -18 -2 -28q-13 -74 -74 -122t-158 -48q-36 0 -69 7.5z" />
<glyph unicode="T" horiz-adv-x="553" d="M130 6q0 6 3 6q35 0 52 5t25.5 19.5t14.5 44.5l81 463q3 18 3 30q0 19 -10 25.5t-37 6.5h-21q-55 0 -94.5 -37.5t-59.5 -110.5q0 -2 -4 -2q-3 0 -6 1.5t-2 2.5q9 27 24 90.5t21 96.5q1 3 7 2.5t5 -3.5q-3 -21 39 -21q74 -3 183 -3q51 0 113 2l63 1q30 0 45 5t21 20 q2 3 7 2.5t4 -4.5q-8 -29 -22.5 -96t-18.5 -92q-1 -3 -6.5 -2.5t-4.5 4.5q4 21 4 45q0 99 -99 99h-19q-34 0 -46 -12.5t-18 -51.5l-81 -461q-4 -26 -4 -32q0 -22 15.5 -29.5t57.5 -7.5q2 0 2 -6t-2 -6q-30 0 -47 1l-70 1l-67 -1q-17 -1 -48 -1q-3 0 -3 6z" />
<glyph unicode="U" horiz-adv-x="619" d="M565 544q0 69 -65 69q-3 0 -2.5 6t2.5 6l42 -1q32 -2 50 -2q17 0 49 2l36 1q4 0 3.5 -6t-3.5 -6q-36 0 -59.5 -27.5t-32.5 -77.5l-52 -294q-18 -107 -88 -167t-169 -60q-87 0 -137 47t-50 129q0 22 5 52l59 331q3 18 3 31q0 22 -13.5 29t-49.5 7q-3 0 -3 6t2 6l47 -1 q38 -2 61 -2q28 0 68 2l41 1q4 0 3.5 -6t-3.5 -6q-32 0 -48.5 -6.5t-24.5 -21.5t-13 -46l-53 -294q-7 -36 -7 -70q0 -78 37 -117t104 -39q80 0 134.5 53t70.5 146l53 294q3 18 3 32z" />
<glyph unicode="V" horiz-adv-x="595" d="M668 619q0 -6 -4 -6q-31 0 -56 -17.5t-52 -68.5l-272 -526q-3 -4 -12 -4q-11 0 -12 4l-121 541q-9 40 -22.5 55.5t-39.5 15.5q-2 0 -2 6t2 6l41 -1q28 -2 42 -2q30 0 68 2l40 1q3 0 3 -6t-3 -6q-29 0 -44 -9t-15 -32q0 -8 3 -20l101 -448l220 427q13 25 13 43 q0 39 -63 39q-3 0 -3 6t3 6l39 -1q32 -2 61 -2q16 0 42 2l39 1q4 0 4 -6z" />
<glyph unicode="W" horiz-adv-x="826" d="M899 619q0 -6 -4 -6q-31 0 -56 -17.5t-51 -68.5l-274 -526q-1 -4 -11 -4t-11 4l-64 280l-144 -280q-3 -4 -12 -4q-11 0 -12 4l-121 541q-9 40 -22.5 55.5t-39.5 15.5q-3 0 -3 6t3 6l41 -1q28 -2 42 -2q27 0 61 2l36 1q4 0 4 -6t-4 -6q-24 0 -36.5 -9t-12.5 -32 q0 -12 2 -20l103 -453l109 212l-53 231q-8 40 -20 55.5t-36 15.5q-3 0 -3 6t3 6l38 -1q28 -2 40 -2q21 0 45 2l25 1q5 0 5 -6t-5 -6q-15 0 -21 -4t-6 -15q0 -9 7 -42l35 -156l69 135q19 37 19 57q0 25 -33 25q-3 0 -3 6t3 6l25 -1q20 -2 38 -2q17 0 39 2l35 1q4 0 4 -6 t-4 -6q-29 0 -51.5 -17t-49.5 -69l-84 -163l60 -265l221 432q14 26 14 45q0 37 -55 37q-4 0 -4 6t4 6l36 -1q30 -2 55 -2q18 0 42 2l39 1q4 0 4 -6z" />
<glyph unicode="X" horiz-adv-x="579" d="M625 619q0 -6 -5 -6q-62 0 -142 -100l-135 -170l100 -260q14 -39 34 -55t54 -16q4 0 4 -6t-4 -6q-23 0 -37 1l-50 1l-72 -1q-18 -1 -46 -1q-4 0 -4 6t4 6q50 0 50 25q0 7 -3 14l-88 230l-144 -184q-28 -35 -28 -57q0 -28 50 -28q4 0 4 -6t-4 -6q-28 0 -44 1l-66 1l-37 -1 q-11 -1 -35 -1q-4 0 -4 6t4 6q30 0 66.5 23.5t73.5 70.5l155 196l-92 240q-14 38 -32 54.5t-46 16.5q-4 0 -4 6t4 6l34 -1q22 -2 33 -2q31 0 75 2l46 1q4 0 4 -6t-4 -6q-44 0 -44 -24q0 -8 4 -16l80 -209l124 159q30 39 30 61q0 29 -49 29q-4 0 -4 6t4 6l43 -1q42 -2 68 -2 q15 0 37 2l33 1q5 0 5 -6z" />
<glyph unicode="Y" horiz-adv-x="531" d="M605 619q0 -6 -3 -6q-64 0 -133 -99l-143 -203l-41 -230q-4 -19 -4 -34q0 -21 14 -28t52 -7q3 0 3 -6t-3 -6q-29 0 -45 1l-64 1l-67 -1q-16 -1 -44 -1q-4 0 -4 6t4 6q33 0 49.5 5.5t24.5 19.5t13 44l38 220l-102 241q-17 38 -34 54.5t-43 16.5q-4 0 -4 6t4 6l38 -1 q28 -2 40 -2q26 0 70 2l45 1q3 0 3 -5q0 -7 -4 -7q-26 0 -38 -5t-12 -16q0 -7 5 -19l100 -239l129 191q23 32 23 56q0 32 -43 32q-3 0 -3 6t3 6l44 -1q38 -2 62 -2q15 0 35 2l32 1q3 0 3 -6z" />
<glyph unicode="Z" horiz-adv-x="550" d="M17 0q-4 0 -5 4.5t1 8.5l467 587q5 5 4.5 6.5t-6.5 1.5q-143 0 -205 -8t-93 -31.5t-65 -83.5q-2 -4 -7 -2.5t-3 5.5l67 167q1 1 4 1t6 -1.5t2 -3.5q-2 -5 -2 -12q0 -9 9.5 -11.5t37.5 -2.5h340q4 0 5.5 -5t-0.5 -8l-462 -585q-4 -5 -3.5 -6.5t5.5 -1.5h176q80 0 127 27.5 t81 95.5q2 3 5 3t5.5 -1.5t1.5 -3.5l-37 -132q0 -3 -2.5 -6.5t-6.5 -3.5q-137 2 -447 2z" />
<glyph unicode="[" horiz-adv-x="250" d="M20 -115q-1 2 1 9l145 821q1 7 2.5 8.5t6.5 1.5h136q4 0 4 -6t-4 -6q-35 0 -53 -6t-26.5 -20.5t-13.5 -44.5l-119 -676q-4 -24 -4 -31q0 -23 15.5 -31.5t54.5 -8.5q5 0 5 -6t-5 -6h-139q-5 0 -6 2z" />
<glyph unicode="\" horiz-adv-x="305" d="M113 723q-1 4 7 7t18 3q11 0 13 -5l72 -887q1 -4 -7.5 -6.5t-17.5 -2.5q-13 0 -13 5z" />
<glyph unicode="]" horiz-adv-x="249" d="M269 723q1 -2 -1 -9l-145 -821q-1 -7 -2.5 -8.5t-6.5 -1.5h-136q-4 0 -4 6t4 6q35 0 53 6t26.5 20.5t13.5 44.5l119 676q4 24 4 31q0 23 -15.5 31.5t-54.5 8.5q-4 0 -4 6t4 6h139q5 0 6 -2z" />
<glyph unicode="^" horiz-adv-x="353" d="M93 374q-3 0 -6 2t-2 4l158 249q3 5 11 5q9 0 9 -5l70 -249q0 -2 -4.5 -4t-5.5 1l-88 148l-139 -150q-1 -1 -3 -1z" />
<glyph unicode="_" horiz-adv-x="363" d="M-10.5 -70q-1.5 7 -1.5 15q0 7 1 13.5t3 6.5h319q2 0 3.5 -6.5t1.5 -14.5t-1.5 -14.5t-3.5 -6.5h-318q-2 0 -3.5 7z" />
<glyph unicode="`" horiz-adv-x="166" d="M124 727q-1 5 13 5q16 0 35.5 -5.5t19.5 -10.5l-11 -240q0 -2 -4.5 -3t-4.5 2z" />
<glyph unicode="a" horiz-adv-x="437" d="M414 78q3 0 5 -3.5t0 -5.5q-33 -39 -60 -58.5t-52 -19.5q-20 0 -29.5 12t-9.5 38q0 16 5 48l16 95q-43 -91 -99 -144t-109 -53q-30 0 -46.5 18.5t-16.5 56.5q0 9 2 29q10 69 53.5 141.5t102.5 119.5t111 47q42 0 68 -27q19 16 26 35q2 2 4 2q3 0 6 -1.5t2 -2.5l-58 -316 q-3 -15 -3 -27q0 -28 17 -28q21 0 62 43q1 1 3 1zM197.5 79q37.5 35 67 88t39.5 102q3 14 3 27q0 29 -15 46t-43 17q-34 0 -68 -27.5t-59 -75.5t-34 -108q-4 -32 -4 -42q0 -62 42 -62q34 0 71.5 35z" />
<glyph unicode="b" horiz-adv-x="440" d="M401 370q22 -29 22 -77q0 -22 -4 -42q-16 -81 -61.5 -141t-102.5 -91.5t-106 -31.5q-47 0 -75 20.5t-28 54.5q0 6 2 18l99 530q2 9 2 23q0 28 -21 28q-16 0 -47 -15h-1q-4 0 -5.5 5.5t2.5 6.5l137 67h2q4 0 7.5 -3t2.5 -5l-89 -495q34 79 89.5 128t114.5 49q38 0 60 -29z M349 272q0 35 -13.5 55t-41.5 20q-40 0 -76 -31.5t-63.5 -88.5t-40.5 -131q-1 -5 -1 -14q0 -31 21 -50t55 -19q32 0 63.5 25t55.5 72t35 110q6 27 6 52z" />
<glyph unicode="c" horiz-adv-x="346" d="M59.5 32q-32.5 45 -32.5 112q0 30 6 58q11 59 45.5 104t80.5 69t91 24q36 0 62.5 -15.5t26.5 -41.5q0 -17 -10 -29t-29 -12q-31 0 -40 36q-11 38 -48 38q-42 0 -69 -38.5t-38 -102.5q-7 -40 -7 -66q0 -64 27 -103t81 -39q49 0 100 41l2 1q3 0 5.5 -4t0.5 -6 q-77 -71 -156 -71q-66 0 -98.5 45z" />
<glyph unicode="d" horiz-adv-x="446" d="M346 89q-3 -15 -3 -26q0 -29 18 -29q10 0 25 11t37 32q2 2 4 2q3 0 5 -3.5t-1 -6.5q-35 -40 -61 -59t-52 -19q-20 0 -29.5 11.5t-9.5 36.5q0 20 6 50l17 89q-44 -89 -94 -140t-102 -51q-36 0 -60 23.5t-24 73.5q0 22 4 42q13 71 55 134t100 101t114 38q27 0 46 -11 l41 222q2 9 2 23q0 28 -21 28q-15 0 -47 -15h-1q-4 0 -5.5 5.5t2.5 6.5l138 67h2q4 0 7 -3t2 -5zM228 88.5q41 46.5 67 108t26 96.5q0 32 -18 49t-48 17q-61 0 -105 -48.5t-59 -139.5q-4 -23 -4 -46q0 -41 15 -62t42 -21q43 0 84 46.5z" />
<glyph unicode="e" horiz-adv-x="347" d="M317 386.5q19 -12.5 19 -33.5q0 -47 -68.5 -85.5t-165.5 -55.5q-4 -24 -4 -52q0 -61 26.5 -98t77.5 -37q55 0 97 33h1q3 0 5.5 -3t0.5 -6q-71 -61 -149 -61q-66 0 -99 41t-33 106q0 22 5 50q10 52 43.5 101.5t83.5 81t106 31.5q35 0 54 -12.5zM259 337q0 17 -12.5 26 t-30.5 9q-41 0 -70 -40.5t-42 -105.5q138 26 153 98q2 10 2 13z" />
<glyph unicode="f" horiz-adv-x="264" d="M380 710.5q21 -15.5 18 -38.5q-3 -16 -14 -24.5t-25 -8.5q-19 0 -26.5 9.5t-13.5 28.5q-6 17 -11.5 24.5t-18.5 7.5q-36 0 -62.5 -67t-46.5 -203l-9 -62q30 1 67 5l33 2q7 0 7 -8t-11 -21.5t-21 -13.5q-6 0 -13 1t-15 2q-17 3 -51 7l-54 -372q-14 -97 -33 -151.5 t-47 -78.5t-71 -24q-37 0 -56 14t-16 34q1 15 12.5 24t27.5 9q18 0 25 -9t12 -27q4 -14 8 -20t14 -6q12 0 19.5 15.5t16.5 59t22 134.5l51 353q2 20 2 26q0 18 -11 23t-45 5q-3 0 -3 5q0 3 1.5 6t2.5 3q35 0 50 9.5t19 34.5q20 123 45 188.5t62.5 92.5t99.5 27 q38 0 59 -15.5z" />
<glyph unicode="g" horiz-adv-x="382" d="M392 381q0 -14 -4.5 -28.5t-8.5 -12.5q-29 18 -75 16q21 -30 21 -72q0 -21 -4 -38q-9 -44 -35 -77.5t-61.5 -52t-72.5 -18.5q-9 0 -23 2q-11 -16 -11 -34q0 -23 21 -39.5t66 -39.5q56 -27 86.5 -53t30.5 -67q0 -40 -29.5 -74t-78.5 -54t-106 -20q-71 0 -112 29t-41 71 q0 43 36.5 78t104.5 72q-36 25 -36 55q0 7 1 10q4 17 17 33.5t36 36.5q-32 11 -49 39t-17 67q0 12 4 36q12 63 60.5 104.5t109.5 41.5q41 0 68 -22q53 24 97 24q5 0 5 -13zM259 259q0 47 -15 80.5t-46 33.5q-28 0 -51 -31t-30 -77q-3 -19 -3 -38q0 -46 17 -77.5t46 -31.5 q28 0 50.5 29t29.5 78q2 11 2 34zM235.5 -113.5q-27.5 22.5 -81.5 50.5q-30 14 -47 25q-40 -25 -62.5 -50.5t-22.5 -62.5q0 -44 37.5 -72.5t97.5 -28.5q51 0 78.5 23t27.5 57q0 36 -27.5 58.5z" />
<glyph unicode="h" horiz-adv-x="448" d="M426 79q3 0 5.5 -3.5t-0.5 -6.5q-34 -40 -61 -59t-53 -19q-20 0 -29 11.5t-9 37.5q0 17 5 49l29 159q6 30 6 52q0 54 -39 54q-32 0 -66 -41t-64 -119t-49 -185q-2 -8 -12 -12.5t-27 -4.5q-27 0 -27 7l4 20q9 43 11 55l100 536q2 9 2 23q0 28 -21 28q-16 0 -46 -15h-1 q-4 0 -6 5t2 7l138 67h2q4 0 7 -3t2 -5l-95 -523q36 97 83.5 151t100.5 54q33 0 49 -18.5t16 -58.5q0 -29 -5 -55l-33 -178q-3 -15 -3 -25q0 -30 19 -30q10 0 25 11t37 32q2 2 3 2z" />
<glyph unicode="i" horiz-adv-x="247" d="M68 40q0 21 6 49l41 208q3 15 3 26q0 30 -19 30q-11 0 -28 -11.5t-37 -32.5q-1 -1 -3 -1q-3 0 -5.5 3.5t0.5 5.5q66 78 117 78q20 0 29.5 -11.5t9.5 -35.5q0 -23 -5 -46l-41 -213q-3 -15 -3 -26q0 -29 18 -29q23 0 63 42q1 1 3 1q4 0 6 -3.5t-1 -5.5q-33 -39 -60.5 -58 t-53.5 -19q-40 0 -40 49zM137.5 521.5q-12.5 12.5 -12.5 34.5q0 21 12.5 33t34.5 12t34.5 -12t12.5 -33q0 -22 -12 -34.5t-35 -12.5q-22 0 -34.5 12.5z" />
<glyph unicode="j" horiz-adv-x="242" d="M-77 -261q-19 14 -16 34q3 16 13.5 24.5t24.5 8.5q17 0 23 -9t10 -27q4 -15 8 -21.5t13 -6.5q13 0 22.5 18t18.5 58.5t24 125.5l61 353q3 15 3 25q0 31 -19 31q-24 0 -66 -44q-1 -1 -3 -1q-3 0 -5 3.5t0 5.5q35 41 63.5 59.5t55.5 18.5q20 0 29 -11.5t9 -36.5 q0 -15 -5 -45l-58 -334q-16 -95 -35 -147t-46 -74t-70 -22q-36 0 -55 14zM150.5 521.5q-12.5 12.5 -12.5 34.5q0 21 12.5 33t34.5 12t34.5 -12t12.5 -33q0 -22 -12 -34.5t-35 -12.5q-22 0 -34.5 12.5z" />
<glyph unicode="k" horiz-adv-x="415" d="M410 76q4 0 6 -3.5t0 -5.5q-67 -76 -106 -76q-24 0 -42 14.5t-40 52.5l-58 99q-9 16 -16.5 21t-20.5 4l-32 -173q-2 -8 -12 -12.5t-27 -4.5q-27 0 -27 7l4 20q9 43 11 55l100 536q2 9 2 23q0 28 -21 28q-16 0 -46 -15h-1q-4 0 -6 5t2 7l138 67h2q4 0 7 -3t2 -5l-73 -402 q37 39 82 61.5t89 22.5q32 0 45.5 -15t13.5 -34q0 -39 -45.5 -76.5t-124.5 -66.5l65 -112q20 -33 34 -44.5t30 -11.5q26 0 62 36q1 1 3 1zM191 322q-38 -43 -54 -115l-2 -9q86 20 124.5 47.5t45.5 72.5q1 4 1 11q0 17 -8 26.5t-22 9.5q-47 0 -85 -43z" />
<glyph unicode="l" horiz-adv-x="240" d="M62 3q-10 12 -10 37q0 19 6 49l96 521q3 15 3 25q0 26 -20 26q-16 0 -46 -15h-1q-5 0 -6.5 5.5t2.5 6.5l138 67h2q4 0 7 -3t2 -5l-115 -628q-3 -15 -3 -26q0 -29 18 -29q10 0 25 11t37 32q2 2 4 2q3 0 5 -3.5t-1 -6.5q-34 -40 -60.5 -59t-52.5 -19q-20 0 -30 12z" />
<glyph unicode="m" horiz-adv-x="679" d="M657 79q3 0 5 -3.5t-1 -6.5q-34 -40 -60.5 -59t-52.5 -19q-20 0 -29 11.5t-9 36.5q0 17 5 50l29 159q5 33 5 52q0 54 -35 54q-29 0 -60.5 -37.5t-60.5 -111t-48 -174.5l-4 -22q-1 -8 -11 -12.5t-28 -4.5q-26 0 -26 7q1 6 6.5 31t8.5 44l33 175q4 24 4 48q0 57 -35 57 q-29 0 -61.5 -40t-61.5 -116t-47 -178l-2 -11q-5 -17 -40 -17q-26 0 -26 7l5 23l10 49l41 226q3 15 3 25q0 31 -19 31q-24 0 -66 -44q-1 -1 -3 -1q-3 0 -5 3.5t0 5.5q34 40 63 59t56 19q20 0 29 -11.5t9 -36.5q0 -15 -5 -45l-18 -104q34 95 80.5 148t96.5 53q62 0 62 -77 q0 -22 -6 -54l-13 -71q35 96 81.5 149t96.5 53q61 0 61 -76q0 -24 -6 -56l-32 -178q-3 -15 -3 -26q0 -29 18 -29q10 0 25 11t37 32q2 2 4 2z" />
<glyph unicode="n" horiz-adv-x="468" d="M446 79q3 0 5 -3.5t0 -6.5q-34 -40 -61 -59t-53 -19q-20 0 -29 11.5t-9 37.5q0 17 5 49l29 159q6 30 6 52q0 54 -39 54q-32 0 -66 -41t-64 -119t-49 -185q-2 -8 -12 -12.5t-27 -4.5q-27 0 -27 7l4 20q9 43 11 55l41 223q3 15 3 25q0 31 -19 31q-24 0 -66 -44q-1 -1 -3 -1 q-3 0 -5 3.5t0 5.5q34 40 63 59t56 19q20 0 29 -11.5t9 -36.5q0 -15 -5 -45l-20 -110q36 98 84 152.5t101 54.5q33 0 49.5 -19t16.5 -58q0 -23 -6 -55l-33 -178q-3 -15 -3 -25q0 -30 19 -30q10 0 25 11t37 32q2 2 3 2z" />
<glyph unicode="o" horiz-adv-x="401" d="M59.5 28.5q-33.5 42.5 -33.5 110.5q0 22 5 54q11 59 42.5 106t76.5 73.5t95 26.5q64 0 98.5 -41.5t34.5 -109.5q0 -26 -6 -55q-13 -63 -46.5 -110t-78.5 -72t-92 -25q-62 0 -95.5 42.5zM259.5 48q30.5 37 42.5 101q6 32 6 63q0 68 -24.5 115.5t-69.5 47.5q-38 0 -69 -37 t-43 -102q-7 -38 -7 -67q0 -67 25.5 -112.5t69.5 -45.5q39 0 69.5 37z" />
<glyph unicode="p" horiz-adv-x="406" d="M359.5 366.5q25.5 -26.5 25.5 -77.5q0 -16 -3 -36q-9 -67 -45.5 -125.5t-87.5 -93.5t-104 -35q-31 0 -52 3l-32 -180q-3 -17 -3 -28q0 -17 8 -24.5t25 -7.5q6 0 24 2q4 1 5.5 -4.5t-2.5 -6.5l-178 -28q-4 -1 -5 5t3 7q22 4 32 10.5t15 20.5t11 47l85 476q-6 -4 -46 -34 l-2 -1q-4 0 -6 4.5t1 6.5q27 24 57 45l13 74q0 2 17 14.5t30.5 27.5t17.5 33q1 4 6.5 3t4.5 -5l-18 -103q69 37 129 37q49 0 74.5 -26.5zM317 255q0 98 -83 98q-39 0 -82 -20l-52 -289q37 -16 76 -16q59 0 93.5 52t45.5 140q2 24 2 35z" />
<glyph unicode="q" horiz-adv-x="417" d="M289 -178q-3 -15 -3 -26q0 -19 9.5 -28t31.5 -9q6 0 22 2h1q3 0 4 -5t-3 -6l-186 -25q-4 -1 -5 5t3 7q24 4 34.5 10t16.5 20.5t12 47.5l58 329q-37 -74 -87.5 -115.5t-98.5 -41.5q-35 0 -56 24.5t-21 66.5q0 7 2 25q10 77 49.5 145.5t97 109.5t119.5 41q19 0 37 -6.5 t30 -20.5q17 14 27 35q2 2 4 2q3 0 6 -1.5t2 -2.5zM210 71.5q34 27.5 58 74t34 100.5q4 20 4 41q0 72 -59 72q-58 0 -101 -51t-56 -152q-1 -10 -1 -30q0 -82 50 -82q37 0 71 27.5z" />
<glyph unicode="r" horiz-adv-x="345" d="M332 380q19 -15 19 -35q0 -15 -10.5 -26.5t-26.5 -11.5q-11 0 -18 4.5t-15 13.5q-5 5 -10.5 9.5t-12.5 4.5q-20 0 -48.5 -56.5t-54 -135t-37.5 -138.5q-2 -8 -12 -12.5t-27 -4.5q-26 0 -26 7q1 6 6.5 31t8.5 44l36 197q4 23 4 42q0 40 -22 40q-21 0 -59 -38q-1 -1 -3 -1 q-3 0 -5 3.5t0 5.5q32 37 59 54.5t53 17.5q21 0 31 -13t10 -44q0 -24 -6 -62l-21 -117q32 103 70.5 169.5t76.5 66.5q21 0 40 -15z" />
<glyph unicode="s" horiz-adv-x="306" d="M36.5 6.5q-28.5 17.5 -28.5 41.5q0 18 10.5 28t25.5 10q11 0 18 -6.5t17 -22.5q11 -20 24 -31t36 -11q48 0 55 54q1 4 1 13q0 29 -16.5 50t-50.5 49q-33 27 -50 48t-17 50q0 32 19.5 59t52 42.5t68.5 15.5q39 0 64 -15t22 -38q-3 -15 -13 -23.5t-22 -8.5q-15 0 -23 7 t-17 21q-10 16 -20.5 24.5t-29.5 8.5t-31.5 -10t-14.5 -27q-1 -4 -1 -13q0 -27 16.5 -48t48.5 -48q35 -30 52.5 -52.5t17.5 -52.5t-19.5 -61t-53 -51t-74.5 -20q-38 0 -66.5 17.5z" />
<glyph unicode="t" horiz-adv-x="297" d="M301 381q2 -3 1 -7q-3 -10 -13 -22t-20 -12q-5 0 -37.5 5t-66.5 6l-44 -245q-3 -15 -3 -27q0 -25 12 -36.5t38 -11.5q24 0 45.5 10.5t47.5 31.5h1q3 0 6 -3t1 -5q-45 -41 -79.5 -59t-66.5 -18t-52 15.5t-20 52.5q0 6 2 24l42 226q4 17 4 31t-8 18.5t-30 4.5q-3 0 -3 5 q0 3 1.5 6t2.5 3q37 0 64.5 22.5t39.5 57.5q0 3 7 3q4 0 7.5 -1.5t2.5 -2.5l-14 -77q24 1 46 2.5t40 2.5q29 3 40 3q4 0 6 -3z" />
<glyph unicode="u" horiz-adv-x="468" d="M442 78q3 0 5 -3.5t0 -5.5q-35 -41 -63 -59.5t-55 -18.5q-20 0 -29 11t-9 36q0 16 5 46l20 114q-36 -100 -84.5 -155.5t-101.5 -55.5q-67 0 -67 76q0 19 7 56l36 178q3 15 3 25q0 30 -19 30q-10 0 -24.5 -11t-36.5 -32q-2 -2 -4 -2q-3 0 -5 3.5t1 6.5q35 40 61 59t52 19 q39 0 39 -49q0 -19 -6 -49l-32 -159q-6 -30 -6 -51q0 -55 40 -55q32 0 66 41t63.5 119t48.5 185q2 8 12 12.5t28 4.5q26 0 26 -7l-4 -20q-9 -43 -11 -55l-41 -223q-2 -9 -2 -25q0 -31 18 -31q12 0 29 11.5t37 32.5q1 1 3 1z" />
<glyph unicode="v" horiz-adv-x="437" d="M117 21q-26 34 -26 81q0 33 14 69t40 88l21 42q5 12 5 17q0 9 -13 9h-50q-37 0 -51 -9.5t-24 -39.5q-1 -3 -6 -3q-3 0 -4.5 2t-0.5 5q16 46 27 67t27.5 29.5t46.5 8.5h90q11 0 11 -4q0 -2 -3 -8q-58 -133 -68 -208q-2 -11 -2 -30q0 -43 19 -67.5t52 -24.5q44 0 84.5 42.5 t55.5 108.5q6 27 6 46q0 27 -8 42t-23 31q-2 2 -9 9.5t-11 15.5t-4 17q0 19 13 29t31 10q25 0 36.5 -24.5t11.5 -67.5q0 -24 -3 -51q-10 -75 -45 -136t-81.5 -95.5t-89.5 -34.5t-69 34z" />
<glyph unicode="w" horiz-adv-x="621" d="M577.5 372q11.5 -24 11.5 -66q0 -15 -4 -53q-9 -75 -40.5 -136t-74 -95.5t-81.5 -34.5q-27 0 -48 17.5t-34 49.5q-28 -32 -60 -49.5t-61 -17.5q-43 0 -67 31t-24 80q0 16 3 32q6 37 23.5 77.5t44.5 93.5q5 10 5 17q0 9 -13 9h-50q-37 0 -51 -9.5t-24 -39.5q-1 -3 -6 -3 q-3 0 -4.5 2t-0.5 5q16 46 27 67t27.5 29.5t46.5 8.5h90q11 0 11 -4q0 -2 -3 -8q-24 -55 -42 -111t-24 -97q-2 -22 -2 -30q0 -44 18.5 -69t50.5 -25q38 0 75 39q-9 38 -9 82q0 41 7 79q11 69 32.5 109t48.5 40q18 0 28 -17t10 -47q0 -11 -4 -41q-17 -106 -70 -189 q32 -55 84 -55q25 0 50.5 19t45.5 54t27 80q3 21 3 37q0 30 -8 48.5t-24 36.5q-11 12 -16 20t-5 19q0 20 13 29.5t32 9.5q24 0 35.5 -24zM313 212q0 -51 16 -90q39 59 49 131q2 18 2 25q0 21 -7 32t-20 11q-14 0 -23 -16.5t-13 -43.5q-4 -21 -4 -49z" />
<glyph unicode="x" horiz-adv-x="424" d="M402 380.5q17 -14.5 17 -34.5q0 -14 -9.5 -23.5t-24.5 -9.5q-16 0 -29 13q-12 10 -22 10q-19 0 -38 -27l-58 -86l41 -136q9 -30 20.5 -39.5t26.5 -9.5q27 0 61 37q1 1 3 1q4 0 6 -3.5t0 -6.5q-37 -39 -63.5 -57.5t-49.5 -18.5t-37 14t-26 51l-31 99l-57 -91 q-29 -46 -44 -59.5t-37 -13.5t-39.5 17t-15.5 38q2 12 11.5 19.5t22.5 7.5q10 0 16 -3t13 -9q5 -4 10.5 -7t12.5 -3q19 0 37 26l65 97l-37 119q-9 34 -21.5 45t-27.5 11q-25 0 -62 -37q-1 -1 -3 -1q-3 0 -5.5 3.5t0.5 5.5q36 39 63 57.5t50 18.5t38.5 -15t27.5 -55l25 -83 l52 81q28 45 43 58.5t37 13.5q21 0 38 -14.5z" />
<glyph unicode="y" horiz-adv-x="446" d="M400 380q11 -16 11 -44q0 -79 -78.5 -230t-180.5 -269t-169 -118q-21 0 -34 9.5t-13 29.5l1 9q8 33 46 33q10 0 32 -2q20 -2 30 -2q33 0 55 17q29 19 76 83l1 52q0 190 -29.5 294.5t-80.5 104.5q-13 0 -26 -9t-22 -26q-1 -3 -6 -3q-7 0 -6 6q18 38 45 59t55 21 q41 0 70.5 -47t45 -128.5t15.5 -182.5q0 -35 -1 -53q41 64 72.5 126t40.5 95q5 25 5 40q0 21 -5 38t-14 37q-4 10 -7.5 19.5t-3.5 17.5q0 17 12 28t31 11q21 0 32 -16z" />
<glyph unicode="z" horiz-adv-x="344" d="M348 397q3 0 6.5 -4t1.5 -6l-273 -309q12 2 20 2q25 0 96 -13q58 -10 73 -10q16 0 26 10t19 34q1 1 4 1t5.5 -1.5t1.5 -3.5q-14 -47 -24 -67.5t-20.5 -27.5t-29.5 -7q-24 0 -56.5 5.5t-42.5 7.5q-62 13 -99 14q-16 0 -28 -6t-27 -23h-1q-3 0 -7 4t-2 6l274 308 q-12 -2 -20 -2q-21 0 -82 13q-46 11 -64 11q-17 0 -27.5 -10.5t-20.5 -34.5q-1 -3 -5 -3q-3 0 -5 2.5t-1 5.5q17 49 27 69.5t22 26.5t36 5q21 -1 77 -13q59 -12 89 -14q16 0 28 6t27 23z" />
<glyph unicode="{" horiz-adv-x="261" d="M109.5 -110q-23.5 7 -34.5 25t-11 52q0 35 13 113q16 91 16 128q0 39 -13 61t-41 29q-3 0 -3 6.5t3 6.5q49 7 74 58.5t44 159.5q15 86 33 126.5t47.5 55t84.5 14.5q3 0 3 -6t-3 -6q-65 0 -84 -106q-23 -119 -38.5 -170t-41.5 -79.5t-80 -52.5q44 -20 61.5 -44t17.5 -67 q0 -25 -6 -69t-15 -95l-5 -29q-3 -20 -3 -36q0 -34 12.5 -52t35.5 -18q2 0 2 -6t-2 -6q-43 0 -66.5 7z" />
<glyph unicode="|" horiz-adv-x="152" d="M19 -160q-8 0 -15 2.5t-6 6.5l154 882q1 5 16 5q9 0 16 -2.5t6 -6.5l-155 -881q-1 -6 -16 -6z" />
<glyph unicode="}" horiz-adv-x="262" d="M191.5 718q23.5 -7 34.5 -25t11 -52q0 -35 -13 -113q-16 -91 -16 -128q0 -39 13 -61t41 -29q3 0 3 -6.5t-3 -6.5q-49 -7 -74 -58.5t-44 -159.5q-15 -86 -33 -126.5t-47.5 -55t-84.5 -14.5q-3 0 -3 6t3 6q65 0 84 106q23 119 38.5 170t41.5 79.5t80 52.5q-44 20 -61.5 44 t-17.5 67q0 25 6 69t15 95l5 29q3 20 3 36q0 34 -12.5 52t-35.5 18q-2 0 -2 6t2 6q43 0 66.5 -7z" />
<glyph unicode="~" horiz-adv-x="443" d="M49 149q-2 0 -4.5 2.5t-1.5 4.5q30 39 56 59t57 20q24 0 77 -17q29 -9 47.5 -13.5t35.5 -4.5q28 0 45 10t33 28h1q3 0 5.5 -2.5t0.5 -4.5q-36 -46 -59.5 -62.5t-52.5 -16.5q-28 0 -79 17q-27 9 -46.5 13.5t-38.5 4.5q-27 0 -40 -8t-35 -30h-1z" />
<glyph unicode="&#xa1;" horiz-adv-x="219" d="M173.5 351q12.5 -13 12.5 -35q0 -20 -12.5 -32t-34.5 -12t-34 11.5t-12 32.5q0 23 12 35.5t34 12.5t34.5 -13zM115.5 167.5q5.5 -0.5 4.5 -5.5q-31 -291 -34 -429q0 -4 -16.5 -8t-33.5 -4q-18 0 -34 4t-14 8q55 152 121 430q1 5 6.5 4.5z" />
<glyph unicode="&#xa2;" horiz-adv-x="492" d="M471.5 442.5q1.5 -2.5 0.5 -10.5l-11 -102q-1 -4 -5.5 -4t-4.5 4q-6 61 -39 95t-86 38l-81 -459h9q53 0 94 32.5t75 103.5q2 3 6 3q3 0 5.5 -1.5t1.5 -4.5l-30 -106q-2 -9 -4 -11.5t-10 -5.5q-77 -26 -148 -26h-2l-16 -92q0 -5 -9 -5q-5 0 -9 2t-3 6l16 90 q-95 7 -138.5 64.5t-43.5 136.5q0 30 4 51q11 64 48.5 116t94 84.5t121.5 37.5l15 85q0 5 8 5q6 0 10 -2.5t3 -6.5l-14 -80h3q33 0 70.5 -8.5t60.5 -21.5q7 -5 8.5 -7.5zM116 185q0 -70 26.5 -118.5t81.5 -59.5l80 456q-65 -5 -115.5 -65.5t-67.5 -150.5q-5 -35 -5 -62z" />
<glyph unicode="&#xa3;" horiz-adv-x="388" d="M369 444l-12 -102q0 -2 -2 -3t-4 -1q-6 0 -6 6q-10 120 -80 120q-42 0 -66.5 -30.5t-33.5 -74.5q-4 -21 -4 -45q0 -19 2 -41t3 -31h94q7 0 7 -13q0 -4 -1.5 -7.5t-4.5 -3.5h-93q1 -9 1 -27q0 -24 -4 -47q-7 -37 -22 -59.5t-38 -40.5h102q40 0 60 6t32.5 22.5t26.5 53.5 q2 3 4 3q3 0 5.5 -2t1.5 -5q-22 -75 -28 -111q-1 -7 -4 -9t-11 -2h-296q-5 0 -5 6q0 2 1.5 4.5t3.5 2.5q50 13 71 37.5t27 65.5q5 26 5 56q0 25 -3 46h-42q-7 0 -7 13q0 4 1.5 7.5t4.5 3.5h40q-3 24 -3 48t4 45q13 74 64 109.5t118 35.5q41 0 78 -17q14 -6 13 -19z" />
<glyph unicode="&#xa5;" horiz-adv-x="438" d="M485 462q0 -6 -4 -6q-58 0 -123 -91l-98 -137l-2 -15h89q6 0 6 -12q0 -11 -6 -11h-253q-6 0 -6 12q0 4 1.5 7.5t4.5 3.5h96l1 4l-69 169q-16 39 -32 54.5t-41 15.5q-4 0 -4 6t4 6q11 0 33 -2l28 -1q29 0 77 2l47 1q3 0 3 -6t-3 -6q-48 0 -48 -28q0 -8 5 -21l66 -157 l81 119q24 36 24 59q0 28 -33 28q-4 0 -4 6t4 6l41 -1q30 -2 56 -2q13 0 31 2l24 1q4 0 4 -6zM342 136q0 -11 -6 -11h-94l-8 -46q-4 -17 -4 -33q0 -21 13.5 -27.5t51.5 -6.5q4 0 4 -6t-4 -6q-28 0 -44 1l-64 1l-63 -1q-17 -1 -45 -1q-4 0 -4 6t4 6q32 0 49 6t25.5 20.5 t13.5 44.5l8 42h-91q-7 0 -7 12q0 11 6 11h252q7 0 7 -12z" />
<glyph unicode="&#xa7;" horiz-adv-x="396" d="M378 540l-15 -108q0 -2 -5 -2t-5 2q-2 24 -14.5 51t-34.5 46t-51 19q-24 0 -41.5 -17t-23.5 -52q-2 -14 -2 -20q0 -35 19.5 -61t58.5 -59q44 -37 66.5 -68t22.5 -77q0 -45 -21 -83.5t-68 -79.5q26 -31 26 -70q0 -13 -3 -26q-11 -61 -57 -92t-106 -31q-48 0 -78 16 q-8 5 -7 16l14 107q1 3 6 3t5 -3q3 -24 15.5 -50.5t34 -45.5t49.5 -19q25 0 43 16.5t24 52.5q2 14 2 19q0 36 -19.5 61t-59.5 60q-44 38 -66.5 68.5t-22.5 76.5t21.5 84t67.5 78q-27 34 -27 71q0 13 3 26q11 61 57.5 92t106.5 31q48 0 78 -16q8 -6 7 -16zM292 158 q0 49 -22.5 80t-66.5 66q-30 26 -42 38q-26 -32 -34 -83q-3 -18 -3 -32q0 -49 22.5 -80t66.5 -67q30 -24 42 -38q26 31 34 83q3 18 3 33z" />
<glyph unicode="&#xa8;" horiz-adv-x="275" d="M84 485q-12 12 -12 34q0 21 12 32.5t34 11.5q21 0 32.5 -11.5t11.5 -32.5q0 -22 -11.5 -34t-32.5 -12q-22 0 -34 12zM237 485q-12 12 -12 34q0 21 12 32.5t34 11.5q21 0 33 -11.5t12 -32.5q0 -22 -12 -34t-33 -12q-22 0 -34 12z" />
<glyph unicode="&#xa9;" horiz-adv-x="725" d="M227.5 -69q-69.5 34 -113 100t-43.5 158q0 89 46.5 160.5t123 111t162.5 39.5q76 0 134 -31.5t89 -84t31 -115.5q0 -60 -33 -113t-90.5 -85t-128.5 -32q-61 0 -101.5 22.5t-59.5 58t-19 75.5q0 52 25 90t65 58.5t83 20.5q39 0 69 -14.5t31 -38.5q0 -15 -9 -24.5t-25 -9.5 q-21 0 -38 30q-12 19 -23.5 28.5t-32.5 9.5q-40 0 -56.5 -30.5t-16.5 -90.5q0 -69 35.5 -113.5t112.5 -44.5q43 0 81 20t61 59t23 94q0 65 -31.5 119.5t-86.5 86.5t-122 32q-76 0 -131 -35.5t-84 -95.5t-29 -133q0 -89 39.5 -153.5t103.5 -97.5t135 -33q57 0 100 10t93 38 q2 1 5 -2.5t1 -5.5q-55 -42 -110 -57t-120 -15q-76 0 -145.5 34z" />
<glyph unicode="&#xaa;" horiz-adv-x="276" d="M308 425q3 0 6 -3t2 -5q-23 -27 -41.5 -40t-35.5 -13q-25 0 -25 33q0 12 3 30l8 50q-27 -55 -62.5 -85.5t-68.5 -30.5q-19 0 -29.5 12t-10.5 37q0 46 27.5 98.5t68.5 88.5t77 36q27 0 44 -17q11 11 15 22q1 2 5 1t4 -3l-38 -209q-2 -14 -2 -17q0 -18 11 -18q7 0 16.5 8 t24.5 25h1zM166.5 421q24.5 24 45 60t26.5 68q2 12 2 17q0 19 -9.5 30t-26.5 11q-22 0 -44.5 -18.5t-39 -50t-21.5 -68.5q-3 -18 -3 -32q0 -41 26 -41q20 0 44.5 24zM272.5 309q1.5 -4 1.5 -9t-1.5 -9.5t-3.5 -4.5h-225q-4 0 -4 15q0 12 3 12h226q2 0 3.5 -4z" />
<glyph unicode="&#xab;" horiz-adv-x="427" d="M246 364q3 0 6 -3t1 -5l-128 -155l74 -154v-1q0 -3 -3.5 -6t-4.5 0l-141 149q-3 5 -3 10q0 7 6 13l192 152h1zM394 364q3 0 6 -3t0 -5l-128 -155l75 -154v-1q0 -3 -3.5 -6t-5.5 0l-141 149q-3 3 -3 9q0 8 7 14l191 152h2z" />
<glyph unicode="&#xac;" horiz-adv-x="400" d="M367 79q0 -2 -7 -3.5t-15 -1.5q-7 0 -13.5 1.5t-6.5 2.5v149h-288q-2 0 -3.5 7t-1.5 15q0 7 1.5 13.5t2.5 6.5h331v-190z" />
<glyph unicode="&#xad;" horiz-adv-x="305" d="M28 195q0 17 2 18l249 46q2 1 3.5 -8t1.5 -19q0 -19 -3 -19l-248 -47q-5 -1 -5 29z" />
<glyph unicode="&#xae;" horiz-adv-x="759" d="M588 688.5q65 -36.5 100 -99t35 -138.5q0 -86 -42.5 -158t-114.5 -113.5t-157 -41.5q-75 0 -143 34.5t-110.5 100t-42.5 152.5t45 155.5t120 106.5t160 38t150 -36.5zM613 235.5q63 69.5 63 185.5q0 82 -35 146t-97 99.5t-140 35.5t-133 -34t-82 -90t-27 -124 q0 -87 39.5 -152.5t103.5 -100.5t134 -35q111 0 174 69.5zM584.5 282q-0.5 -4 -2.5 -4h-85q-17 0 -68 162q-21 -4 -50 -4l-18 -102q-3 -13 -3 -22q0 -14 9 -18t34 -4q1 0 1 -3t-1 -5.5t-2 -3.5l-73 1l-71 -1q-1 0 -1 2q0 3 1 6t2 4q29 0 38 7.5t14 36.5l38 216q3 14 3 21 q0 13 -8.5 18t-30.5 5q-1 0 -1 2q0 3 1 6t2 4l71 -1q13 0 43 2l40 1q84 0 84 -52q0 -5 -2 -15q-10 -59 -71 -86q21 -62 34.5 -94.5t30 -50.5t40.5 -24q2 0 1.5 -4zM411 452q35 0 54.5 15.5t25.5 51.5q3 15 3 27q0 49 -46 49q-18 0 -26.5 -2.5t-14 -12.5t-9.5 -33l-16 -93 q22 -2 29 -2z" />
<glyph unicode="&#xaf;" horiz-adv-x="333" d="M95 493q0 16 7 16h234q4 0 6 -5t2 -11t-2 -11t-6 -5h-234q-7 0 -7 16z" />
<glyph unicode="&#xb0;" horiz-adv-x="299" d="M97.5 407q-29.5 34 -29.5 80q0 15 3 28q10 47 53.5 81t101.5 34q56 0 84.5 -32.5t28.5 -79.5q0 -41 -21 -74t-56.5 -52t-77.5 -19q-57 0 -86.5 34zM246.5 413.5q16.5 24.5 24.5 68.5q5 35 5 55q0 78 -58 78q-36 0 -54.5 -26.5t-27.5 -70.5q-5 -28 -5 -50q0 -79 63 -79 q36 0 52.5 24.5z" />
<glyph unicode="&#xb1;" horiz-adv-x="398" d="M30.5 239q-1.5 7 -1.5 15q0 7 1 13t3 6h145v145q0 4 21 4t21 -4v-145h144q2 0 3.5 -6.5t1.5 -13.5q0 -8 -1.5 -14.5t-3.5 -6.5h-144v-144q0 -2 -7 -3.5t-15 -1.5q-7 0 -13.5 1.5t-6.5 2.5v145h-144q-2 0 -3.5 7zM367.5 33q1.5 -6 1.5 -13t-1.5 -13t-3.5 -6h-330 q-2 0 -3.5 6.5t-1.5 13.5t1.5 12.5t2.5 5.5h331q2 0 3.5 -6z" />
<glyph unicode="&#xb2;" horiz-adv-x="230" d="M245 597q-22 -26 -65 -67q-32 -30 -48.5 -47.5t-25.5 -35.5h1q58 0 82.5 3.5t35 13.5t19.5 35q2 3 5 3t5.5 -1.5t1.5 -4.5l-18 -91q0 -2 -2 -2h-166q-3 0 -3.5 2.5t1.5 6.5q12 29 30.5 54t48.5 61q35 41 53 68t22 57q1 4 1 12q0 19 -9 30t-26 11q-21 0 -40 -16t-29 -41 q-1 -3 -5 -3q-3 0 -5.5 2t-1.5 5q37 77 102 77q32 0 48.5 -16t16.5 -43q0 -6 -2 -18q-5 -29 -27 -55z" />
<glyph unicode="&#xb3;" horiz-adv-x="230" d="M249 611q-21 -26 -52 -38q56 -14 56 -66q0 -24 -13.5 -50t-39.5 -43t-59 -17q-64 0 -72 67q-1 4 4.5 5t6.5 -3q4 -20 17.5 -34t36.5 -14q24 0 42 18.5t24 55.5q2 14 2 20q0 27 -15 40t-41 13q-3 0 -3 6t3 6q27 0 46 22.5t25 52.5q1 5 1 14q0 18 -9.5 28t-25.5 10 q-20 0 -38 -15.5t-28 -37.5q-1 -2 -4 -2t-5 2t-1 4q15 33 40 53.5t59 20.5q31 0 47.5 -16.5t16.5 -43.5q0 -32 -21 -58z" />
<glyph unicode="&#xb4;" horiz-adv-x="212" d="M112.5 472q-5.5 2 -3.5 4l87 240q2 5 24.5 10t39.5 5q13 0 12 -4l-153 -254q-1 -3 -6.5 -1z" />
<glyph unicode="&#xb6;" horiz-adv-x="594" d="M199.5 -180q-17.5 13 -14.5 34q3 17 13.5 25.5t25.5 8.5t21 -7t11 -21q4 -15 10 -22t22 -7q18 0 28.5 13.5t19 48t22.5 115.5l21 117q-36 -3 -79 -3q-93 0 -158.5 48.5t-65.5 153.5q0 29 6 62q23 119 103 180.5t201 61.5q28 0 59 -3q66 -3 74 -3q19 0 53 2l47 1q5 0 5 -6 t-5 -6q-39 0 -64.5 -21t-32.5 -60l-83 -477q-23 -128 -69 -188t-119 -60q-34 0 -51.5 13z" />
<glyph unicode="&#xb7;" horiz-adv-x="203" d="M69.5 175q-12.5 13 -12.5 35q0 20 12.5 32t34.5 12t34 -11.5t12 -32.5q0 -23 -12 -35.5t-34 -12.5t-34.5 13z" />
<glyph unicode="&#xb8;" horiz-adv-x="196" d="M-43.5 -263.5q-18.5 11.5 -18.5 30.5q0 16 9.5 24t24.5 8q13 0 20 -8t13 -22q6 -13 11 -19t15 -6q13 0 21.5 8.5t11.5 24.5q3 30 -42 85q-12 13 -12 34q0 20 12 44l29 60h13q-12 -27 -12 -45q0 -15 6.5 -28.5t20.5 -30.5q32 -42 32 -71q0 -9 -1 -13q-4 -31 -33 -59 t-75 -28q-27 0 -45.5 11.5z" />
<glyph unicode="&#xb9;" horiz-adv-x="239" d="M77 408.5q0 5.5 3 5.5q29 0 41.5 4t19 17.5t12.5 47.5l21 118q7 42 7 53q0 20 -13 20q-12 0 -49 -17h-2q-3 0 -4.5 4.5t1.5 6.5l122 61q1 1 3 1t4 -2.5t1 -4.5l-41 -240q-6 -36 -6 -42q0 -17 10.5 -22t39.5 -5q3 0 3 -5.5t-3 -5.5q-22 0 -34 1l-46 1l-51 -1 q-13 -1 -36 -1q-3 0 -3 5.5z" />
<glyph unicode="&#xba;" horiz-adv-x="269" d="M87 388q-23 29 -23 74q0 12 4 36q10 60 51.5 96t89.5 36q43 0 66 -29t23 -75q0 -14 -3 -31q-7 -40 -29.5 -71t-53 -48t-61.5 -17q-41 0 -64 29zM218 401.5q20 24.5 29 70.5q4 20 4 43q0 44 -16.5 71t-46.5 27q-27 0 -46.5 -23.5t-26.5 -69.5q-4 -21 -4 -45q0 -44 16 -71 t44 -27q27 0 47 24.5zM45.5 290.5q-1.5 4.5 -1.5 9.5t1 9t3 4h221q2 0 3.5 -4t1.5 -9t-1.5 -9.5t-3.5 -4.5h-220q-2 0 -3.5 4.5z" />
<glyph unicode="&#xbb;" horiz-adv-x="426" d="M35 37q-3 0 -6 3t-1 6l129 154l-75 154v1q0 3 3.5 6t4.5 0l142 -149q3 -4 3 -10q0 -7 -6 -13l-193 -152h-1zM182 37q-3 0 -6 3t0 6l129 154l-76 154v1q0 3 3.5 6t5.5 0l141 -149q3 -4 3 -10q0 -7 -6 -13l-192 -152h-2z" />
<glyph unicode="&#xbf;" horiz-adv-x="311" d="M240.5 347q12.5 -13 12.5 -35q0 -20 -12.5 -32t-34.5 -12t-34 11.5t-12 32.5q0 23 12 35.5t34 12.5t34.5 -13zM198.5 114q5.5 -26 5.5 -49q0 -41 -17.5 -66t-53.5 -55q-33 -27 -51.5 -50.5t-25.5 -60.5q-2 -16 -2 -24q0 -30 14 -49t40 -19q23 0 32.5 11.5t15.5 32.5 q4 21 13 35t31 14q16 0 24.5 -9t8.5 -23q0 -7 -1 -10q-4 -30 -43.5 -48.5t-88.5 -18.5q-53 0 -85 24.5t-32 69.5q0 12 3 26q6 31 21.5 54.5t31 38t47.5 40.5q42 34 60 61t24 63q2 9 2 30q0 18 -1 27q0 4 6 5t7 -3q9 -21 14.5 -47z" />
<glyph unicode="&#xc0;" d="M570 6q0 -6 -4 -6q-15 0 -47 2q-36 2 -57 2q-22 0 -54 -2t-46 -2q-3 0 -3 6t3 6q35 0 49 9t14 33q0 14 -3 30l-40 235h-150l-103 -188q-29 -52 -29 -80q0 -22 17 -30.5t52 -8.5q4 0 3.5 -6t-4.5 -6q-12 0 -48 2q-40 2 -62 2q-21 0 -49 -2t-43 -2q-4 0 -4 6t4 6 q29 0 63.5 27.5t68.5 87.5l284 508q2 3 7 3q9 0 11 -5l95 -549q5 -31 10.5 -45t19 -20.5t41.5 -6.5q4 0 4 -6zM245 342h133l-32 185zM385.5 724q-42.5 16 -95.5 32q-10 2 9.5 11t46 16t30.5 4q43 -39 110 -93q2 0 2 -3t-3 -5t-6 -1q-51 23 -93.5 39z" />
<glyph unicode="&#xc1;" d="M570 6q0 -6 -4 -6q-15 0 -47 2q-36 2 -57 2q-22 0 -54 -2t-46 -2q-3 0 -3 6t3 6q35 0 49 9t14 33q0 14 -3 30l-40 235h-150l-103 -188q-29 -52 -29 -80q0 -22 17 -30.5t52 -8.5q4 0 3.5 -6t-4.5 -6q-12 0 -48 2q-40 2 -62 2q-21 0 -49 -2t-43 -2q-4 0 -4 6t4 6 q29 0 63.5 27.5t68.5 87.5l284 508q2 3 7 3q9 0 11 -5l95 -549q5 -31 10.5 -45t19 -20.5t41.5 -6.5q4 0 4 -6zM245 342h133l-32 185zM335 678q-4 0 -5 4.5t2 6.5q33 18 65.5 40t41.5 28l43 30q5 3 28 -4t40.5 -16t8.5 -11q-62 -15 -113.5 -33.5t-108.5 -43.5z" />
<glyph unicode="&#xc2;" d="M570 6q0 -6 -4 -6q-15 0 -47 2q-36 2 -57 2q-22 0 -54 -2t-46 -2q-3 0 -3 6t3 6q35 0 49 9t14 33q0 14 -3 30l-40 235h-150l-103 -188q-29 -52 -29 -80q0 -22 17 -30.5t52 -8.5q4 0 3.5 -6t-4.5 -6q-12 0 -48 2q-40 2 -62 2q-21 0 -49 -2t-43 -2q-4 0 -4 6t4 6 q29 0 63.5 27.5t68.5 87.5l284 508q2 3 7 3q9 0 11 -5l95 -549q5 -31 10.5 -45t19 -20.5t41.5 -6.5q4 0 4 -6zM245 342h133l-32 185zM298 660q-3 0 -5 2.5t0 4.5l110 103q3 5 9 5t9 -5l77 -103l1 -2q0 -2 -3 -4t-5 -1l-88 51l-104 -51h-1z" />
<glyph unicode="&#xc3;" d="M570 6q0 -6 -4 -6q-15 0 -47 2q-36 2 -57 2q-22 0 -54 -2t-46 -2q-3 0 -3 6t3 6q35 0 49 9t14 33q0 14 -3 30l-40 235h-150l-103 -188q-29 -52 -29 -80q0 -22 17 -30.5t52 -8.5q4 0 3.5 -6t-4.5 -6q-12 0 -48 2q-40 2 -62 2q-21 0 -49 -2t-43 -2q-4 0 -4 6t4 6 q29 0 63.5 27.5t68.5 87.5l284 508q2 3 7 3q9 0 11 -5l95 -549q5 -31 10.5 -45t19 -20.5t41.5 -6.5q4 0 4 -6zM245 342h133l-32 185zM279 692q-3 0 -5.5 2.5t-0.5 4.5q18 26 41.5 47t49.5 21q16 0 51 -11q44 -14 72 -14q19 0 31 6.5t25 20.5h2q3 0 5 -2.5t0 -4.5 q-28 -40 -45.5 -53.5t-39.5 -13.5q-17 0 -36.5 5t-23.5 6q-41 13 -69 13q-19 0 -29 -5t-17 -12l-10 -10h-1z" />
<glyph unicode="&#xc4;" d="M570 6q0 -6 -4 -6q-15 0 -47 2q-36 2 -57 2q-22 0 -54 -2t-46 -2q-3 0 -3 6t3 6q35 0 49 9t14 33q0 14 -3 30l-40 235h-150l-103 -188q-29 -52 -29 -80q0 -22 17 -30.5t52 -8.5q4 0 3.5 -6t-4.5 -6q-12 0 -48 2q-40 2 -62 2q-21 0 -49 -2t-43 -2q-4 0 -4 6t4 6 q29 0 63.5 27.5t68.5 87.5l284 508q2 3 7 3q9 0 11 -5l95 -549q5 -31 10.5 -45t19 -20.5t41.5 -6.5q4 0 4 -6zM245 342h133l-32 185zM300 724q-12 12 -12 34q0 21 12 32.5t34 11.5q21 0 32.5 -11.5t11.5 -32.5q0 -22 -11.5 -34t-32.5 -12q-22 0 -34 12zM453 724 q-12 12 -12 34q0 21 12 32.5t34 11.5q21 0 33 -11.5t12 -32.5q0 -22 -12 -34t-33 -12q-22 0 -34 12z" />
<glyph unicode="&#xc5;" d="M570 6q0 -6 -4 -6q-15 0 -47 2q-36 2 -57 2q-22 0 -54 -2t-46 -2q-3 0 -3 6t3 6q35 0 49 9t14 33q0 14 -3 30l-40 235h-150l-103 -188q-29 -52 -29 -80q0 -22 17 -30.5t52 -8.5q4 0 3.5 -6t-4.5 -6q-12 0 -48 2q-40 2 -62 2q-21 0 -49 -2t-43 -2q-4 0 -4 6t4 6 q29 0 63.5 27.5t68.5 87.5l284 508q2 3 7 3q9 0 11 -5l95 -549q5 -31 10.5 -45t19 -20.5t41.5 -6.5q4 0 4 -6zM245 342h133l-32 185zM330.5 691.5q-23.5 23.5 -23.5 56.5q0 36 29.5 56.5t66.5 20.5t62.5 -23t25.5 -57q0 -35 -29.5 -56t-67.5 -21q-40 0 -63.5 23.5zM438 728 q0 34 -16 59.5t-38 25.5q-26 0 -26 -46q0 -33 14.5 -60.5t36.5 -27.5q29 0 29 49z" />
<glyph unicode="&#xc6;" horiz-adv-x="770" d="M765 616l-9 -61q-2 -15 -4.5 -32t-5.5 -34q-1 -4 -7 -3t-5 4q2 55 -24.5 88t-76.5 33h-31q-47 0 -64.5 -14t-22.5 -54l-26 -206h106q43 0 64.5 17t29.5 56q0 3 4 3q3 0 5.5 -1.5t1.5 -2.5q-5 -33 -10 -55l-5 -29q-6 -38 -8 -53l-7 -43q0 -2 -4 -2q-3 0 -5.5 1.5t-2.5 2.5 q2 9 2 25q0 30 -17.5 44t-54.5 14h-102l-29 -229q-2 -22 -2 -29q0 -23 12 -30.5t48 -7.5h51q43 0 83 36.5t64 97.5q2 3 7.5 2t3.5 -4q-18 -58 -32 -135q-2 -9 -5 -12t-11 -3h-373q-4 0 -4 6t4 6q31 0 47 5.5t23.5 19.5t11.5 44l30 233h-146l-139 -191q-31 -43 -31 -70 q0 -41 68 -41q4 0 3.5 -6t-3.5 -6q-15 0 -57 2q-44 2 -70 2q-23 0 -53 -2q-26 -2 -43 -2q-5 0 -5 6t5 6q40 0 75.5 25.5t87.5 95.5l319 442q14 20 14 27q0 8 -13.5 9.5t-55.5 1.5q-4 0 -4 6t4 6h388q8 0 6 -9zM286 337h132l29 221z" />
<glyph unicode="&#xc7;" horiz-adv-x="586" d="M588.5 594.5q1.5 -4.5 0.5 -15.5l-12 -118q-1 -4 -6 -4t-5 4q-10 76 -54.5 113.5t-115.5 37.5q-62 0 -114 -32.5t-86.5 -92.5t-46.5 -141q-7 -41 -7 -84q0 -74 22 -133t63.5 -92.5t96.5 -33.5t108.5 37.5t101.5 113.5q2 2 4 2q3 0 5 -2t1 -4l-29 -110q-3 -12 -6 -16.5 t-12 -6.5q-87 -30 -178 -30q-7 -18 -7 -33t7 -28.5t20 -29.5q32 -42 32 -71q0 -9 -1 -13q-4 -31 -33 -59t-75 -28q-27 0 -45.5 11.5t-18.5 30.5q0 16 9.5 24t24.5 8q13 0 20 -8t13 -22q6 -13 11 -19t15 -6q13 0 21.5 8.5t11.5 24.5q3 30 -42 85q-12 13 -12 34q0 20 12 44 l23 47q-128 4 -187.5 77t-59.5 180q0 36 6 72q17 95 73.5 168t135.5 112.5t161 39.5q41 0 82.5 -9t64.5 -24q6 -4 7.5 -8.5z" />
<glyph unicode="&#xc8;" horiz-adv-x="520" d="M516 616l-8 -54l-12 -73q0 -3 -5 -3q-2 0 -4.5 1.5t-2.5 2.5q4 53 -21 85.5t-71 32.5h-62q-31 0 -45.5 -5t-21.5 -18t-12 -42l-36 -206h132q41 0 62 16t28 56q0 3 6 3q2 0 4.5 -1.5t1.5 -3.5q-3 -22 -9 -46q-4 -15 -7 -36l-5 -31q-3 -31 -10 -65q-1 -4 -7 -3.5t-5 4.5 q3 15 3 27q0 30 -17 43.5t-52 13.5h-129l-41 -229q-3 -18 -3 -30q0 -21 12.5 -28.5t46.5 -7.5h83q44 0 86 36.5t68 96.5q2 3 7.5 2t3.5 -4q-18 -58 -32 -135q-2 -9 -5 -12t-11 -3h-409q-2 0 -2 6t2 6q31 0 46 5t22.5 19t13.5 45l81 463q4 17 4 33q0 21 -13 28.5t-47 7.5 q-3 0 -3 6t3 6h386q8 0 6 -9zM338.5 724q-42.5 16 -95.5 32q-10 2 9.5 11t46 16t30.5 4q43 -39 110 -93q2 0 2 -3t-3 -5t-6 -1q-51 23 -93.5 39z" />
<glyph unicode="&#xc9;" horiz-adv-x="520" d="M516 616l-8 -54l-12 -73q0 -3 -5 -3q-2 0 -4.5 1.5t-2.5 2.5q4 53 -21 85.5t-71 32.5h-62q-31 0 -45.5 -5t-21.5 -18t-12 -42l-36 -206h132q41 0 62 16t28 56q0 3 6 3q2 0 4.5 -1.5t1.5 -3.5q-3 -22 -9 -46q-4 -15 -7 -36l-5 -31q-3 -31 -10 -65q-1 -4 -7 -3.5t-5 4.5 q3 15 3 27q0 30 -17 43.5t-52 13.5h-129l-41 -229q-3 -18 -3 -30q0 -21 12.5 -28.5t46.5 -7.5h83q44 0 86 36.5t68 96.5q2 3 7.5 2t3.5 -4q-18 -58 -32 -135q-2 -9 -5 -12t-11 -3h-409q-2 0 -2 6t2 6q31 0 46 5t22.5 19t13.5 45l81 463q4 17 4 33q0 21 -13 28.5t-47 7.5 q-3 0 -3 6t3 6h386q8 0 6 -9zM288 678q-4 0 -5 4.5t2 6.5q33 18 65.5 40t41.5 28l43 30q5 3 28 -4t40.5 -16t8.5 -11q-62 -15 -113.5 -33.5t-108.5 -43.5z" />
<glyph unicode="&#xca;" horiz-adv-x="520" d="M516 616l-8 -54l-12 -73q0 -3 -5 -3q-2 0 -4.5 1.5t-2.5 2.5q4 53 -21 85.5t-71 32.5h-62q-31 0 -45.5 -5t-21.5 -18t-12 -42l-36 -206h132q41 0 62 16t28 56q0 3 6 3q2 0 4.5 -1.5t1.5 -3.5q-3 -22 -9 -46q-4 -15 -7 -36l-5 -31q-3 -31 -10 -65q-1 -4 -7 -3.5t-5 4.5 q3 15 3 27q0 30 -17 43.5t-52 13.5h-129l-41 -229q-3 -18 -3 -30q0 -21 12.5 -28.5t46.5 -7.5h83q44 0 86 36.5t68 96.5q2 3 7.5 2t3.5 -4q-18 -58 -32 -135q-2 -9 -5 -12t-11 -3h-409q-2 0 -2 6t2 6q31 0 46 5t22.5 19t13.5 45l81 463q4 17 4 33q0 21 -13 28.5t-47 7.5 q-3 0 -3 6t3 6h386q8 0 6 -9zM251 660q-3 0 -5 2.5t0 4.5l110 103q3 5 9 5t9 -5l77 -103l1 -2q0 -2 -3 -4t-5 -1l-88 51l-104 -51h-1z" />
<glyph unicode="&#xcb;" horiz-adv-x="520" d="M516 616l-8 -54l-12 -73q0 -3 -5 -3q-2 0 -4.5 1.5t-2.5 2.5q4 53 -21 85.5t-71 32.5h-62q-31 0 -45.5 -5t-21.5 -18t-12 -42l-36 -206h132q41 0 62 16t28 56q0 3 6 3q2 0 4.5 -1.5t1.5 -3.5q-3 -22 -9 -46q-4 -15 -7 -36l-5 -31q-3 -31 -10 -65q-1 -4 -7 -3.5t-5 4.5 q3 15 3 27q0 30 -17 43.5t-52 13.5h-129l-41 -229q-3 -18 -3 -30q0 -21 12.5 -28.5t46.5 -7.5h83q44 0 86 36.5t68 96.5q2 3 7.5 2t3.5 -4q-18 -58 -32 -135q-2 -9 -5 -12t-11 -3h-409q-2 0 -2 6t2 6q31 0 46 5t22.5 19t13.5 45l81 463q4 17 4 33q0 21 -13 28.5t-47 7.5 q-3 0 -3 6t3 6h386q8 0 6 -9zM253 724q-12 12 -12 34q0 21 12 32.5t34 11.5q21 0 32.5 -11.5t11.5 -32.5q0 -22 -11.5 -34t-32.5 -12q-22 0 -34 12zM406 724q-12 12 -12 34q0 21 12 32.5t34 11.5q21 0 33 -11.5t12 -32.5q0 -22 -12 -34t-33 -12q-22 0 -34 12z" />
<glyph unicode="&#xcc;" horiz-adv-x="317" d="M19 6q0 6 3 6q31 0 45.5 5t22 19t12.5 45l82 463q4 26 4 32q0 22 -13.5 29.5t-47.5 7.5q-3 0 -3 6t3 6l43 -1q38 -2 60 -2q29 0 67 2l40 1q3 0 3 -6t-3 -6q-30 0 -45 -6t-22.5 -20.5t-13.5 -44.5l-82 -461q-4 -26 -4 -32q0 -22 13.5 -29.5t48.5 -7.5q2 0 2 -6t-2 -6 q-26 0 -42 1l-64 1l-60 -1q-16 -1 -44 -1q-3 0 -3 6zM229.5 724q-42.5 16 -95.5 32q-10 2 9.5 11t46 16t30.5 4q43 -39 110 -93q2 0 2 -3t-3 -5t-6 -1q-51 23 -93.5 39z" />
<glyph unicode="&#xcd;" horiz-adv-x="317" d="M19 6q0 6 3 6q31 0 45.5 5t22 19t12.5 45l82 463q4 26 4 32q0 22 -13.5 29.5t-47.5 7.5q-3 0 -3 6t3 6l43 -1q38 -2 60 -2q29 0 67 2l40 1q3 0 3 -6t-3 -6q-30 0 -45 -6t-22.5 -20.5t-13.5 -44.5l-82 -461q-4 -26 -4 -32q0 -22 13.5 -29.5t48.5 -7.5q2 0 2 -6t-2 -6 q-26 0 -42 1l-64 1l-60 -1q-16 -1 -44 -1q-3 0 -3 6zM179 678q-4 0 -5 4.5t2 6.5q33 18 65.5 40t41.5 28l43 30q5 3 28 -4t40.5 -16t8.5 -11q-62 -15 -113.5 -33.5t-108.5 -43.5z" />
<glyph unicode="&#xce;" horiz-adv-x="317" d="M19 6q0 6 3 6q31 0 45.5 5t22 19t12.5 45l82 463q4 26 4 32q0 22 -13.5 29.5t-47.5 7.5q-3 0 -3 6t3 6l43 -1q38 -2 60 -2q29 0 67 2l40 1q3 0 3 -6t-3 -6q-30 0 -45 -6t-22.5 -20.5t-13.5 -44.5l-82 -461q-4 -26 -4 -32q0 -22 13.5 -29.5t48.5 -7.5q2 0 2 -6t-2 -6 q-26 0 -42 1l-64 1l-60 -1q-16 -1 -44 -1q-3 0 -3 6zM142 660q-3 0 -5 2.5t0 4.5l110 103q3 5 9 5t9 -5l77 -103l1 -2q0 -2 -3 -4t-5 -1l-88 51l-104 -51h-1z" />
<glyph unicode="&#xcf;" horiz-adv-x="317" d="M19 6q0 6 3 6q31 0 45.5 5t22 19t12.5 45l82 463q4 26 4 32q0 22 -13.5 29.5t-47.5 7.5q-3 0 -3 6t3 6l43 -1q38 -2 60 -2q29 0 67 2l40 1q3 0 3 -6t-3 -6q-30 0 -45 -6t-22.5 -20.5t-13.5 -44.5l-82 -461q-4 -26 -4 -32q0 -22 13.5 -29.5t48.5 -7.5q2 0 2 -6t-2 -6 q-26 0 -42 1l-64 1l-60 -1q-16 -1 -44 -1q-3 0 -3 6zM151.5 724q-12.5 12 -12.5 34q0 21 12.5 32.5t34.5 11.5t33 -11.5t11 -32.5q0 -22 -11 -34t-33 -12t-34.5 12zM291.5 724q-11.5 12 -11.5 34q0 21 11.5 32.5t33.5 11.5q21 0 32.5 -11.5t11.5 -32.5q0 -22 -11.5 -34 t-32.5 -12q-22 0 -33.5 12z" />
<glyph unicode="&#xd0;" horiz-adv-x="620" d="M480.5 596q60.5 -31 93 -86.5t32.5 -127.5q0 -34 -5 -59q-17 -96 -72 -170.5t-131.5 -115.5t-156.5 -41q-24 0 -56 3q-12 1 -29.5 2t-39.5 1l-62 -1q-15 -1 -42 -1q-3 0 -3 6t3 6q31 0 46 5t23 19.5t13 44.5l39 219h-73q-4 0 -4 11t4 11h77l39 222q4 17 4 32 q0 22 -13 29.5t-48 7.5q-2 0 -2 6t2 6l44 -1q38 -2 62 -2q29 0 61 3q38 2 53 2q81 0 141.5 -31zM523 380q0 102 -47 166.5t-138 64.5q-46 0 -65.5 -14t-26.5 -55l-39 -220h115q5 0 5 -11q0 -4 -1.5 -7.5t-3.5 -3.5h-118l-37 -208q-3 -16 -3 -30q0 -26 16 -38t56 -12 q67 0 125 34t98.5 99t56.5 156q7 38 7 79z" />
<glyph unicode="&#xd1;" horiz-adv-x="652" d="M696 619q0 -6 -2 -6q-75 0 -91 -98l-94 -524q0 -2 -3 -3.5t-7 -1.5q-8 0 -9 4l-293 553l-75 -434q-4 -26 -4 -35q0 -62 59 -62q2 0 2 -6t-2 -6q-22 0 -35 1l-49 1l-48 -1q-13 -1 -38 -1q-2 0 -2 6t2 6q75 0 91 97l82 462q-16 23 -32 32.5t-34 9.5q-3 0 -3 6t3 6l39 -1 q12 -1 33 -1q19 0 32 1t19 1t9 -3.5t7 -15.5q7 -20 14 -33l241 -457l71 399q4 26 4 36q0 62 -59 62q-2 0 -2 6t2 6l34 -1q30 -2 51 -2q16 0 46 2l39 1q2 0 2 -6zM286 692q-3 0 -5.5 2.5t-0.5 4.5q18 26 41.5 47t49.5 21q16 0 51 -11q44 -14 72 -14q19 0 31 6.5t25 20.5h2 q3 0 5 -2.5t0 -4.5q-28 -40 -45.5 -53.5t-39.5 -13.5q-17 0 -36.5 5t-23.5 6q-41 13 -69 13q-19 0 -29 -5t-17 -12l-10 -10h-1z" />
<glyph unicode="&#xd2;" horiz-adv-x="652" d="M162.5 20.5q-50.5 32.5 -76.5 89.5t-26 130q0 36 6 73q16 93 66.5 166.5t123 115t154.5 41.5q71 0 122.5 -32.5t78.5 -89t27 -128.5q0 -38 -7 -73q-17 -95 -69.5 -169.5t-126 -115t-152.5 -40.5q-70 0 -120.5 32.5zM467.5 79q59.5 65 81.5 181q10 49 10 98 q0 73 -22.5 130.5t-65.5 90.5t-101 33q-83 0 -142.5 -66t-80.5 -180q-9 -48 -9 -93q0 -73 22 -132t64.5 -93t101.5 -34q82 0 141.5 65zM397.5 724q-42.5 16 -95.5 32q-10 2 9.5 11t46 16t30.5 4q43 -39 110 -93q2 0 2 -3t-3 -5t-6 -1q-51 23 -93.5 39z" />
<glyph unicode="&#xd3;" horiz-adv-x="652" d="M162.5 20.5q-50.5 32.5 -76.5 89.5t-26 130q0 36 6 73q16 93 66.5 166.5t123 115t154.5 41.5q71 0 122.5 -32.5t78.5 -89t27 -128.5q0 -38 -7 -73q-17 -95 -69.5 -169.5t-126 -115t-152.5 -40.5q-70 0 -120.5 32.5zM467.5 79q59.5 65 81.5 181q10 49 10 98 q0 73 -22.5 130.5t-65.5 90.5t-101 33q-83 0 -142.5 -66t-80.5 -180q-9 -48 -9 -93q0 -73 22 -132t64.5 -93t101.5 -34q82 0 141.5 65zM347 678q-4 0 -5 4.5t2 6.5q33 18 65.5 40t41.5 28l43 30q5 3 28 -4t40.5 -16t8.5 -11q-62 -15 -113.5 -33.5t-108.5 -43.5z" />
<glyph unicode="&#xd4;" horiz-adv-x="652" d="M162.5 20.5q-50.5 32.5 -76.5 89.5t-26 130q0 36 6 73q16 93 66.5 166.5t123 115t154.5 41.5q71 0 122.5 -32.5t78.5 -89t27 -128.5q0 -38 -7 -73q-17 -95 -69.5 -169.5t-126 -115t-152.5 -40.5q-70 0 -120.5 32.5zM467.5 79q59.5 65 81.5 181q10 49 10 98 q0 73 -22.5 130.5t-65.5 90.5t-101 33q-83 0 -142.5 -66t-80.5 -180q-9 -48 -9 -93q0 -73 22 -132t64.5 -93t101.5 -34q82 0 141.5 65zM310 660q-3 0 -5 2.5t0 4.5l110 103q3 5 9 5t9 -5l77 -103l1 -2q0 -2 -3 -4t-5 -1l-88 51l-104 -51h-1z" />
<glyph unicode="&#xd5;" horiz-adv-x="652" d="M162.5 20.5q-50.5 32.5 -76.5 89.5t-26 130q0 36 6 73q16 93 66.5 166.5t123 115t154.5 41.5q71 0 122.5 -32.5t78.5 -89t27 -128.5q0 -38 -7 -73q-17 -95 -69.5 -169.5t-126 -115t-152.5 -40.5q-70 0 -120.5 32.5zM467.5 79q59.5 65 81.5 181q10 49 10 98 q0 73 -22.5 130.5t-65.5 90.5t-101 33q-83 0 -142.5 -66t-80.5 -180q-9 -48 -9 -93q0 -73 22 -132t64.5 -93t101.5 -34q82 0 141.5 65zM291 692q-3 0 -5.5 2.5t-0.5 4.5q18 26 41.5 47t49.5 21q16 0 51 -11q44 -14 72 -14q19 0 31 6.5t25 20.5h2q3 0 5 -2.5t0 -4.5 q-28 -40 -45.5 -53.5t-39.5 -13.5q-17 0 -36.5 5t-23.5 6q-41 13 -69 13q-19 0 -29 -5t-17 -12l-10 -10h-1z" />
<glyph unicode="&#xd6;" horiz-adv-x="652" d="M162.5 20.5q-50.5 32.5 -76.5 89.5t-26 130q0 36 6 73q16 93 66.5 166.5t123 115t154.5 41.5q71 0 122.5 -32.5t78.5 -89t27 -128.5q0 -38 -7 -73q-17 -95 -69.5 -169.5t-126 -115t-152.5 -40.5q-70 0 -120.5 32.5zM467.5 79q59.5 65 81.5 181q10 49 10 98 q0 73 -22.5 130.5t-65.5 90.5t-101 33q-83 0 -142.5 -66t-80.5 -180q-9 -48 -9 -93q0 -73 22 -132t64.5 -93t101.5 -34q82 0 141.5 65zM312 724q-12 12 -12 34q0 21 12 32.5t34 11.5q21 0 32.5 -11.5t11.5 -32.5q0 -22 -11.5 -34t-32.5 -12q-22 0 -34 12zM465 724 q-12 12 -12 34q0 21 12 32.5t34 11.5q21 0 33 -11.5t12 -32.5q0 -22 -12 -34t-33 -12q-22 0 -34 12z" />
<glyph unicode="&#xd8;" horiz-adv-x="652" d="M650 633q4 0 11 -6.5t4 -9.5l-71 -72q44 -65 44 -159q0 -29 -7 -73q-17 -95 -69.5 -169.5t-126 -115t-152.5 -40.5q-53 0 -95 18.5t-71 53.5l-69 -70l-2 -1q-5 0 -11.5 7.5t-3.5 10.5l72 73q-43 66 -43 161q0 35 6 72q16 93 66.5 166.5t123 115t154.5 41.5q108 0 170 -73 l68 69zM139 273q0 -77 22 -134l366 370q-24 49 -64 76t-93 27q-83 0 -142.5 -66t-80.5 -180q-8 -43 -8 -93zM559 357q0 70 -22 130l-366 -372q24 -47 63.5 -74t91.5 -27q82 0 141.5 65t81.5 181q10 47 10 97z" />
<glyph unicode="&#xd9;" horiz-adv-x="619" d="M565 544q0 69 -65 69q-3 0 -2.5 6t2.5 6l42 -1q32 -2 50 -2q17 0 49 2l36 1q4 0 3.5 -6t-3.5 -6q-36 0 -59.5 -27.5t-32.5 -77.5l-52 -294q-18 -107 -88 -167t-169 -60q-87 0 -137 47t-50 129q0 22 5 52l59 331q3 18 3 31q0 22 -13.5 29t-49.5 7q-3 0 -3 6t2 6l47 -1 q38 -2 61 -2q28 0 68 2l41 1q4 0 3.5 -6t-3.5 -6q-32 0 -48.5 -6.5t-24.5 -21.5t-13 -46l-53 -294q-7 -36 -7 -70q0 -78 37 -117t104 -39q80 0 134.5 53t70.5 146l53 294q3 18 3 32zM284 756q-9 2 8 11t40.5 16t27.5 4q34 -22 51 -34q66 -45 99 -64q3 -1 3 -4t-2 -5t-5 -1 q-112 50 -222 77z" />
<glyph unicode="&#xda;" horiz-adv-x="619" d="M565 544q0 69 -65 69q-3 0 -2.5 6t2.5 6l42 -1q32 -2 50 -2q17 0 49 2l36 1q4 0 3.5 -6t-3.5 -6q-36 0 -59.5 -27.5t-32.5 -77.5l-52 -294q-18 -107 -88 -167t-169 -60q-87 0 -137 47t-50 129q0 22 5 52l59 331q3 18 3 31q0 22 -13.5 29t-49.5 7q-3 0 -3 6t2 6l47 -1 q38 -2 61 -2q28 0 68 2l41 1q4 0 3.5 -6t-3.5 -6q-32 0 -48.5 -6.5t-24.5 -21.5t-13 -46l-53 -294q-7 -36 -7 -70q0 -78 37 -117t104 -39q80 0 134.5 53t70.5 146l53 294q3 18 3 32zM309 678q-4 0 -5.5 4.5t1.5 6.5q46 25 98 62q47 31 53 35q5 3 27.5 -4t40 -16t8.5 -10 q-118 -30 -222 -78h-1z" />
<glyph unicode="&#xdb;" horiz-adv-x="619" d="M565 544q0 69 -65 69q-3 0 -2.5 6t2.5 6l42 -1q32 -2 50 -2q17 0 49 2l36 1q4 0 3.5 -6t-3.5 -6q-36 0 -59.5 -27.5t-32.5 -77.5l-52 -294q-18 -107 -88 -167t-169 -60q-87 0 -137 47t-50 129q0 22 5 52l59 331q3 18 3 31q0 22 -13.5 29t-49.5 7q-3 0 -3 6t2 6l47 -1 q38 -2 61 -2q28 0 68 2l41 1q4 0 3.5 -6t-3.5 -6q-32 0 -48.5 -6.5t-24.5 -21.5t-13 -46l-53 -294q-7 -36 -7 -70q0 -78 37 -117t104 -39q80 0 134.5 53t70.5 146l53 294q3 18 3 32zM318 660q-3 0 -5 2.5t0 4.5l110 103q3 5 9 5t9 -5l77 -103l1 -2q0 -2 -3 -4t-5 -1l-88 51 l-104 -51h-1z" />
<glyph unicode="&#xdc;" horiz-adv-x="619" d="M565 544q0 69 -65 69q-3 0 -2.5 6t2.5 6l42 -1q32 -2 50 -2q17 0 49 2l36 1q4 0 3.5 -6t-3.5 -6q-36 0 -59.5 -27.5t-32.5 -77.5l-52 -294q-18 -107 -88 -167t-169 -60q-87 0 -137 47t-50 129q0 22 5 52l59 331q3 18 3 31q0 22 -13.5 29t-49.5 7q-3 0 -3 6t2 6l47 -1 q38 -2 61 -2q28 0 68 2l41 1q4 0 3.5 -6t-3.5 -6q-32 0 -48.5 -6.5t-24.5 -21.5t-13 -46l-53 -294q-7 -36 -7 -70q0 -78 37 -117t104 -39q80 0 134.5 53t70.5 146l53 294q3 18 3 32zM310 724.5q-13 12.5 -13 33.5t13 32.5t34 11.5q22 0 33.5 -11.5t11.5 -32.5 q0 -22 -11.5 -34t-33.5 -12q-21 0 -34 12.5zM485 724q-12 12 -12 34q0 21 12 32.5t34 11.5q21 0 33 -11.5t12 -32.5q0 -22 -12 -34t-33 -12q-22 0 -34 12z" />
<glyph unicode="&#xdd;" horiz-adv-x="531" d="M605 619q0 -6 -3 -6q-64 0 -133 -99l-143 -203l-41 -230q-4 -19 -4 -34q0 -21 14 -28t52 -7q3 0 3 -6t-3 -6q-29 0 -45 1l-64 1l-67 -1q-16 -1 -44 -1q-4 0 -4 6t4 6q33 0 49.5 5.5t24.5 19.5t13 44l38 220l-102 241q-17 38 -34 54.5t-43 16.5q-4 0 -4 6t4 6l38 -1 q28 -2 40 -2q26 0 70 2l45 1q3 0 3 -5q0 -7 -4 -7q-26 0 -38 -5t-12 -16q0 -7 5 -19l100 -239l129 191q23 32 23 56q0 32 -43 32q-3 0 -3 6t3 6l44 -1q38 -2 62 -2q15 0 35 2l32 1q3 0 3 -6zM294 678q-4 0 -5 4.5t2 6.5q33 18 65.5 40t41.5 28l43 30q5 3 28 -4t40.5 -16 t8.5 -11q-62 -15 -113.5 -33.5t-108.5 -43.5z" />
<glyph unicode="&#xde;" horiz-adv-x="538" d="M470.5 461.5q57.5 -37.5 57.5 -108.5q0 -18 -5 -41q-13 -61 -57 -103t-102 -62t-112 -20q-24 0 -41 4q-1 0 -1 3q0 4 2 9t4 4q15 -3 30 -3q66 0 122.5 37t71.5 111q5 25 5 44q0 66 -41.5 106.5t-110.5 40.5q-25 0 -57 -4l-70 -398q-4 -26 -4 -32q0 -23 17 -30t67 -7 q2 0 2 -6t-2 -6q-33 0 -52 1l-78 1l-60 -1q-16 -1 -43 -1q-2 0 -2 6t2 6q31 0 46.5 5t23 19.5t13.5 44.5l81 463q4 17 4 33q0 21 -13 28.5t-47 7.5q-3 0 -3 6t3 6l42 -1q36 -2 60 -2q33 0 81 2l50 1q2 0 2 -6t-2 -6q-45 0 -64.5 -4.5t-28 -18.5t-14.5 -48l-8 -48q34 5 82 5 q92 0 149.5 -37.5z" />
<glyph unicode="&#xdf;" horiz-adv-x="457" d="M-101 -261.5q-18 13.5 -16 34.5q1 14 12 23.5t28 9.5t24.5 -9.5t11.5 -25.5q4 -14 8.5 -20.5t14.5 -6.5t18 17t17 61t23 131l75 481q21 135 82 213.5t152 78.5q48 0 72 -23t24 -58q0 -10 -1 -15q-5 -33 -23.5 -60.5t-49.5 -60.5t-46.5 -56.5t-15.5 -51.5q0 -26 11.5 -51 t35.5 -61q27 -42 41 -72.5t14 -65.5q0 -37 -17.5 -75t-49.5 -62.5t-74 -24.5q-36 0 -56.5 17t-20.5 38q0 16 10 27t27 11q16 0 23.5 -8t14.5 -25q6 -16 13.5 -24.5t23.5 -8.5q43 0 52 62q1 5 1 16q0 30 -12.5 57t-37.5 66q-26 41 -38.5 69t-12.5 59q0 7 2 21q5 29 18 53 t37 57q31 43 46.5 76.5t15.5 80.5q0 75 -56 75q-49 0 -86 -68.5t-57 -196.5l-72 -464q-15 -97 -33.5 -151.5t-46.5 -78.5t-71 -24q-37 0 -55 13.5z" />
<glyph unicode="&#xe0;" horiz-adv-x="437" d="M414 78q3 0 5 -3.5t0 -5.5q-33 -39 -60 -58.5t-52 -19.5q-20 0 -29.5 12t-9.5 38q0 16 5 48l16 95q-43 -91 -99 -144t-109 -53q-30 0 -46.5 18.5t-16.5 56.5q0 9 2 29q10 69 53.5 141.5t102.5 119.5t111 47q42 0 68 -27q19 16 26 35q2 2 4 2q3 0 6 -1.5t2 -2.5l-58 -316 q-3 -15 -3 -27q0 -28 17 -28q21 0 62 43q1 1 3 1zM197.5 79q37.5 35 67 88t39.5 102q3 14 3 27q0 29 -15 46t-43 17q-34 0 -68 -27.5t-59 -75.5t-34 -108q-4 -32 -4 -42q0 -62 42 -62q34 0 71.5 35zM246 727q-1 5 13 5q16 0 35.5 -5.5t19.5 -10.5l-11 -240q0 -2 -4.5 -3 t-4.5 2z" />
<glyph unicode="&#xe1;" horiz-adv-x="437" d="M414 78q3 0 5 -3.5t0 -5.5q-33 -39 -60 -58.5t-52 -19.5q-20 0 -29.5 12t-9.5 38q0 16 5 48l16 95q-43 -91 -99 -144t-109 -53q-30 0 -46.5 18.5t-16.5 56.5q0 9 2 29q10 69 53.5 141.5t102.5 119.5t111 47q42 0 68 -27q19 16 26 35q2 2 4 2q3 0 6 -1.5t2 -2.5l-58 -316 q-3 -15 -3 -27q0 -28 17 -28q21 0 62 43q1 1 3 1zM197.5 79q37.5 35 67 88t39.5 102q3 14 3 27q0 29 -15 46t-43 17q-34 0 -68 -27.5t-59 -75.5t-34 -108q-4 -32 -4 -42q0 -62 42 -62q34 0 71.5 35zM276.5 472q-5.5 2 -3.5 4l87 240q2 5 24.5 10t39.5 5q13 0 12 -4 l-153 -254q-1 -3 -6.5 -1z" />
<glyph unicode="&#xe2;" horiz-adv-x="437" d="M414 78q3 0 5 -3.5t0 -5.5q-33 -39 -60 -58.5t-52 -19.5q-20 0 -29.5 12t-9.5 38q0 16 5 48l16 95q-43 -91 -99 -144t-109 -53q-30 0 -46.5 18.5t-16.5 56.5q0 9 2 29q10 69 53.5 141.5t102.5 119.5t111 47q42 0 68 -27q19 16 26 35q2 2 4 2q3 0 6 -1.5t2 -2.5l-58 -316 q-3 -15 -3 -27q0 -28 17 -28q21 0 62 43q1 1 3 1zM197.5 79q37.5 35 67 88t39.5 102q3 14 3 27q0 29 -15 46t-43 17q-34 0 -68 -27.5t-59 -75.5t-34 -108q-4 -32 -4 -42q0 -62 42 -62q34 0 71.5 35zM370 477q0 -2 -5.5 -2.5t-5.5 1.5l-39 139l-90 -141q-2 -2 -3 -2 q-3 0 -5.5 1.5t-1.5 3.5l110 249q1 5 10 5q8 0 8 -5z" />
<glyph unicode="&#xe3;" horiz-adv-x="437" d="M414 78q3 0 5 -3.5t0 -5.5q-33 -39 -60 -58.5t-52 -19.5q-20 0 -29.5 12t-9.5 38q0 16 5 48l16 95q-43 -91 -99 -144t-109 -53q-30 0 -46.5 18.5t-16.5 56.5q0 9 2 29q10 69 53.5 141.5t102.5 119.5t111 47q42 0 68 -27q19 16 26 35q2 2 4 2q3 0 6 -1.5t2 -2.5l-58 -316 q-3 -15 -3 -27q0 -28 17 -28q21 0 62 43q1 1 3 1zM197.5 79q37.5 35 67 88t39.5 102q3 14 3 27q0 29 -15 46t-43 17q-34 0 -68 -27.5t-59 -75.5t-34 -108q-4 -32 -4 -42q0 -62 42 -62q34 0 71.5 35zM165 477q-3 0 -5 2.5t0 4.5q47 67 90 67q14 0 50 -10q46 -14 74 -14 q19 0 30.5 6.5t24.5 20.5h1q3 0 5.5 -2.5t0.5 -4.5q-28 -40 -45.5 -54t-39.5 -14q-20 0 -60 12q-4 1 -25.5 7t-43.5 6q-18 0 -28 -5t-17 -12l-10 -10h-2z" />
<glyph unicode="&#xe4;" horiz-adv-x="437" d="M414 78q3 0 5 -3.5t0 -5.5q-33 -39 -60 -58.5t-52 -19.5q-20 0 -29.5 12t-9.5 38q0 16 5 48l16 95q-43 -91 -99 -144t-109 -53q-30 0 -46.5 18.5t-16.5 56.5q0 9 2 29q10 69 53.5 141.5t102.5 119.5t111 47q42 0 68 -27q19 16 26 35q2 2 4 2q3 0 6 -1.5t2 -2.5l-58 -316 q-3 -15 -3 -27q0 -28 17 -28q21 0 62 43q1 1 3 1zM197.5 79q37.5 35 67 88t39.5 102q3 14 3 27q0 29 -15 46t-43 17q-34 0 -68 -27.5t-59 -75.5t-34 -108q-4 -32 -4 -42q0 -62 42 -62q34 0 71.5 35zM189 485q-12 12 -12 34q0 21 12 32.5t34 11.5q21 0 32.5 -11.5t11.5 -32.5 q0 -22 -11.5 -34t-32.5 -12q-22 0 -34 12zM342 485q-12 12 -12 34q0 21 12 32.5t34 11.5q21 0 33 -11.5t12 -32.5q0 -22 -12 -34t-33 -12q-22 0 -34 12z" />
<glyph unicode="&#xe5;" horiz-adv-x="437" d="M414 78q3 0 5 -3.5t0 -5.5q-33 -39 -60 -58.5t-52 -19.5q-20 0 -29.5 12t-9.5 38q0 16 5 48l16 95q-43 -91 -99 -144t-109 -53q-30 0 -46.5 18.5t-16.5 56.5q0 9 2 29q10 69 53.5 141.5t102.5 119.5t111 47q42 0 68 -27q19 16 26 35q2 2 4 2q3 0 6 -1.5t2 -2.5l-58 -316 q-3 -15 -3 -27q0 -28 17 -28q21 0 62 43q1 1 3 1zM197.5 79q37.5 35 67 88t39.5 102q3 14 3 27q0 29 -15 46t-43 17q-34 0 -68 -27.5t-59 -75.5t-34 -108q-4 -32 -4 -42q0 -62 42 -62q34 0 71.5 35zM229.5 491.5q-23.5 23.5 -23.5 55.5q0 36 30 57t67 21q36 0 61.5 -23.5 t25.5 -56.5q0 -35 -29.5 -56t-67.5 -21q-40 0 -63.5 23.5zM338 527q0 34 -16.5 60t-38.5 26q-25 0 -25 -46q0 -33 14 -60.5t37 -27.5q29 0 29 48z" />
<glyph unicode="&#xe6;" horiz-adv-x="556" d="M542 385q17 -14 17 -37q0 -38 -47 -71t-172 -72q-3 -27 -3 -49q0 -64 21 -97t58 -33q45 0 81 32l2 1q3 0 5.5 -4t0.5 -6q-35 -32 -67 -46.5t-66 -14.5q-50 0 -77 35t-27 99q0 29 6 63q-41 -90 -91.5 -144t-98.5 -54q-31 0 -48.5 19.5t-17.5 57.5q0 7 2 27q9 69 49 141 t96 119.5t111 47.5q28 0 48.5 -14t25.5 -42q62 56 138 56q37 0 54 -14zM476 364.5q-9 12.5 -29 12.5q-37 0 -66.5 -44.5t-39.5 -114.5q64 23 104 50.5t40 66.5q0 17 -9 29.5zM188.5 81q33.5 35 61.5 87.5t37 101.5q3 15 3 28q0 31 -13.5 50t-37.5 19q-29 0 -60.5 -29 t-55 -79.5t-32.5 -111.5q-3 -22 -3 -39q0 -62 41 -62q26 0 59.5 35z" />
<glyph unicode="&#xe7;" horiz-adv-x="346" d="M312.5 383.5q26.5 -15.5 26.5 -41.5q0 -17 -10 -29t-29 -12q-31 0 -40 36q-11 38 -48 38q-42 0 -69 -38.5t-38 -102.5q-7 -40 -7 -66q0 -64 27 -103t81 -39q49 0 100 41l2 1q3 0 5.5 -4t0.5 -6q-74 -68 -149 -71q-7 -17 -7 -33q0 -15 7 -28.5t20 -29.5q32 -42 32 -71 q0 -9 -1 -13q-4 -31 -33 -59t-75 -28q-27 0 -45.5 11.5t-18.5 30.5q0 16 9.5 24t24.5 8q13 0 20 -8t13 -22q6 -13 11 -19t15 -6q13 0 21.5 8.5t11.5 24.5q3 30 -42 85q-12 13 -12 34q0 20 12 44l23 47q-63 3 -93.5 47t-30.5 110q0 30 6 58q11 59 45.5 104t80.5 69t91 24 q36 0 62.5 -15.5z" />
<glyph unicode="&#xe8;" horiz-adv-x="347" d="M317 386.5q19 -12.5 19 -33.5q0 -47 -68.5 -85.5t-165.5 -55.5q-4 -24 -4 -52q0 -61 26.5 -98t77.5 -37q55 0 97 33h1q3 0 5.5 -3t0.5 -6q-71 -61 -149 -61q-66 0 -99 41t-33 106q0 22 5 50q10 52 43.5 101.5t83.5 81t106 31.5q35 0 54 -12.5zM259 337q0 17 -12.5 26 t-30.5 9q-41 0 -70 -40.5t-42 -105.5q138 26 153 98q2 10 2 13zM200 727q-1 5 13 5q16 0 35.5 -5.5t19.5 -10.5l-11 -240q0 -2 -4.5 -3t-4.5 2z" />
<glyph unicode="&#xe9;" horiz-adv-x="347" d="M317 386.5q19 -12.5 19 -33.5q0 -47 -68.5 -85.5t-165.5 -55.5q-4 -24 -4 -52q0 -61 26.5 -98t77.5 -37q55 0 97 33h1q3 0 5.5 -3t0.5 -6q-71 -61 -149 -61q-66 0 -99 41t-33 106q0 22 5 50q10 52 43.5 101.5t83.5 81t106 31.5q35 0 54 -12.5zM259 337q0 17 -12.5 26 t-30.5 9q-41 0 -70 -40.5t-42 -105.5q138 26 153 98q2 10 2 13zM230.5 472q-5.5 2 -3.5 4l87 240q2 5 24.5 10t39.5 5q13 0 12 -4l-153 -254q-1 -3 -6.5 -1z" />
<glyph unicode="&#xea;" horiz-adv-x="347" d="M317 386.5q19 -12.5 19 -33.5q0 -47 -68.5 -85.5t-165.5 -55.5q-4 -24 -4 -52q0 -61 26.5 -98t77.5 -37q55 0 97 33h1q3 0 5.5 -3t0.5 -6q-71 -61 -149 -61q-66 0 -99 41t-33 106q0 22 5 50q10 52 43.5 101.5t83.5 81t106 31.5q35 0 54 -12.5zM259 337q0 17 -12.5 26 t-30.5 9q-41 0 -70 -40.5t-42 -105.5q138 26 153 98q2 10 2 13zM317 478q0 -3 -5.5 -3.5t-6.5 2.5l-38 139l-90 -142q-1 -1 -3 -1q-3 0 -5.5 1.5t-1.5 3.5l109 249q3 5 11 5t8 -5z" />
<glyph unicode="&#xeb;" horiz-adv-x="347" d="M317 386.5q19 -12.5 19 -33.5q0 -47 -68.5 -85.5t-165.5 -55.5q-4 -24 -4 -52q0 -61 26.5 -98t77.5 -37q55 0 97 33h1q3 0 5.5 -3t0.5 -6q-71 -61 -149 -61q-66 0 -99 41t-33 106q0 22 5 50q10 52 43.5 101.5t83.5 81t106 31.5q35 0 54 -12.5zM259 337q0 17 -12.5 26 t-30.5 9q-41 0 -70 -40.5t-42 -105.5q138 26 153 98q2 10 2 13zM143 485q-12 12 -12 34q0 21 12 32.5t34 11.5q21 0 32.5 -11.5t11.5 -32.5q0 -22 -11.5 -34t-32.5 -12q-22 0 -34 12zM296 485q-12 12 -12 34q0 21 12 32.5t34 11.5q21 0 33 -11.5t12 -32.5q0 -22 -12 -34 t-33 -12q-22 0 -34 12z" />
<glyph unicode="&#xec;" horiz-adv-x="247" d="M68 40q0 21 6 49l41 208q3 15 3 26q0 30 -19 30q-11 0 -28 -11.5t-37 -32.5q-1 -1 -3 -1q-3 0 -5.5 3.5t0.5 5.5q66 78 117 78q20 0 29.5 -11.5t9.5 -35.5q0 -23 -5 -46l-41 -213q-3 -15 -3 -26q0 -29 18 -29q23 0 63 42q1 1 3 1q4 0 6 -3.5t-1 -5.5q-33 -39 -60.5 -58 t-53.5 -19q-40 0 -40 49zM110 727q-1 5 13 5q16 0 35.5 -5.5t19.5 -10.5l-11 -240q0 -2 -4.5 -3t-4.5 2z" />
<glyph unicode="&#xed;" horiz-adv-x="247" d="M68 40q0 21 6 49l41 208q3 15 3 26q0 30 -19 30q-11 0 -28 -11.5t-37 -32.5q-1 -1 -3 -1q-3 0 -5.5 3.5t0.5 5.5q66 78 117 78q20 0 29.5 -11.5t9.5 -35.5q0 -23 -5 -46l-41 -213q-3 -15 -3 -26q0 -29 18 -29q23 0 63 42q1 1 3 1q4 0 6 -3.5t-1 -5.5q-33 -39 -60.5 -58 t-53.5 -19q-40 0 -40 49zM140.5 472q-5.5 2 -3.5 4l87 240q2 5 24.5 10t39.5 5q13 0 12 -4l-153 -254q-1 -3 -6.5 -1z" />
<glyph unicode="&#xee;" horiz-adv-x="247" d="M68 40q0 21 6 49l41 208q3 15 3 26q0 30 -19 30q-11 0 -28 -11.5t-37 -32.5q-1 -1 -3 -1q-3 0 -5.5 3.5t0.5 5.5q66 78 117 78q20 0 29.5 -11.5t9.5 -35.5q0 -23 -5 -46l-41 -213q-3 -15 -3 -26q0 -29 18 -29q23 0 63 42q1 1 3 1q4 0 6 -3.5t-1 -5.5q-33 -39 -60.5 -58 t-53.5 -19q-40 0 -40 49zM234 477q0 -2 -5.5 -2.5t-5.5 1.5l-39 139l-90 -141q-2 -2 -3 -2q-3 0 -5.5 1.5t-1.5 3.5l110 249q1 5 10 5q8 0 8 -5z" />
<glyph unicode="&#xef;" horiz-adv-x="247" d="M68 40q0 21 6 49l41 208q3 15 3 26q0 30 -19 30q-11 0 -28 -11.5t-37 -32.5q-1 -1 -3 -1q-3 0 -5.5 3.5t0.5 5.5q66 78 117 78q20 0 29.5 -11.5t9.5 -35.5q0 -23 -5 -46l-41 -213q-3 -15 -3 -26q0 -29 18 -29q23 0 63 42q1 1 3 1q4 0 6 -3.5t-1 -5.5q-33 -39 -60.5 -58 t-53.5 -19q-40 0 -40 49zM60.5 485q-12.5 12 -12.5 34q0 21 12.5 32.5t34.5 11.5t33 -11.5t11 -32.5q0 -22 -11 -34t-33 -12t-34.5 12zM200.5 485q-11.5 12 -11.5 34q0 21 11.5 32.5t33.5 11.5q21 0 32.5 -11.5t11.5 -32.5q0 -22 -11.5 -34t-32.5 -12q-22 0 -33.5 12z" />
<glyph unicode="&#xf0;" horiz-adv-x="401" d="M406 644q4 0 8 -8.5t0 -9.5l-96 -46q33 -58 50.5 -128t17.5 -141q0 -54 -8 -95q-13 -74 -47 -125.5t-80.5 -77.5t-96.5 -26q-62 0 -97 42.5t-35 108.5q0 21 5 48q12 69 47.5 117t81 72t86.5 24q39 0 69 -21q-11 97 -43 178l-127 -60h-1q-5 0 -9 8.5t0 9.5l129 61 q-41 94 -100 137l-1 2q0 5 11.5 9.5t15.5 1.5q73 -44 122 -127l97 46h1zM258 55.5q33 47.5 49 148.5q6 38 6 69q0 53 -20.5 80t-64.5 27q-43 0 -79.5 -44t-48.5 -121q-5 -33 -5 -59q0 -65 23 -106.5t63 -41.5q44 0 77 47.5z" />
<glyph unicode="&#xf1;" horiz-adv-x="468" d="M446 79q3 0 5 -3.5t0 -6.5q-34 -40 -61 -59t-53 -19q-20 0 -29 11.5t-9 37.5q0 17 5 49l29 159q6 30 6 52q0 54 -39 54q-32 0 -66 -41t-64 -119t-49 -185q-2 -8 -12 -12.5t-27 -4.5q-27 0 -27 7l4 20q9 43 11 55l41 223q3 15 3 25q0 31 -19 31q-24 0 -66 -44q-1 -1 -3 -1 q-3 0 -5 3.5t0 5.5q34 40 63 59t56 19q20 0 29 -11.5t9 -36.5q0 -15 -5 -45l-20 -110q36 98 84 152.5t101 54.5q33 0 49.5 -19t16.5 -58q0 -23 -6 -55l-33 -178q-3 -15 -3 -25q0 -30 19 -30q10 0 25 11t37 32q2 2 3 2zM151 477q-3 0 -5 2.5t0 4.5q47 67 90 67q14 0 50 -10 q46 -14 74 -14q19 0 30.5 6.5t24.5 20.5h1q3 0 5.5 -2.5t0.5 -4.5q-28 -40 -45.5 -54t-39.5 -14q-20 0 -60 12q-4 1 -25.5 7t-43.5 6q-18 0 -28 -5t-17 -12l-10 -10h-2z" />
<glyph unicode="&#xf2;" horiz-adv-x="401" d="M59.5 28.5q-33.5 42.5 -33.5 110.5q0 22 5 54q11 59 42.5 106t76.5 73.5t95 26.5q64 0 98.5 -41.5t34.5 -109.5q0 -26 -6 -55q-13 -63 -46.5 -110t-78.5 -72t-92 -25q-62 0 -95.5 42.5zM259.5 48q30.5 37 42.5 101q6 32 6 63q0 68 -24.5 115.5t-69.5 47.5q-38 0 -69 -37 t-43 -102q-7 -38 -7 -67q0 -67 25.5 -112.5t69.5 -45.5q39 0 69.5 37zM199 727q-1 5 13 5q16 0 35.5 -5.5t19.5 -10.5l-11 -240q0 -2 -4.5 -3t-4.5 2z" />
<glyph unicode="&#xf3;" horiz-adv-x="401" d="M59.5 28.5q-33.5 42.5 -33.5 110.5q0 22 5 54q11 59 42.5 106t76.5 73.5t95 26.5q64 0 98.5 -41.5t34.5 -109.5q0 -26 -6 -55q-13 -63 -46.5 -110t-78.5 -72t-92 -25q-62 0 -95.5 42.5zM259.5 48q30.5 37 42.5 101q6 32 6 63q0 68 -24.5 115.5t-69.5 47.5q-38 0 -69 -37 t-43 -102q-7 -38 -7 -67q0 -67 25.5 -112.5t69.5 -45.5q39 0 69.5 37zM229.5 472q-5.5 2 -3.5 4l87 240q2 5 24.5 10t39.5 5q13 0 12 -4l-153 -254q-1 -3 -6.5 -1z" />
<glyph unicode="&#xf4;" horiz-adv-x="401" d="M59.5 28.5q-33.5 42.5 -33.5 110.5q0 22 5 54q11 59 42.5 106t76.5 73.5t95 26.5q64 0 98.5 -41.5t34.5 -109.5q0 -26 -6 -55q-13 -63 -46.5 -110t-78.5 -72t-92 -25q-62 0 -95.5 42.5zM259.5 48q30.5 37 42.5 101q6 32 6 63q0 68 -24.5 115.5t-69.5 47.5q-38 0 -69 -37 t-43 -102q-7 -38 -7 -67q0 -67 25.5 -112.5t69.5 -45.5q39 0 69.5 37zM316 478q0 -3 -5.5 -3.5t-6.5 2.5l-38 139l-90 -142q-1 -1 -3 -1q-3 0 -5.5 1.5t-1.5 3.5l109 249q3 5 11 5t8 -5z" />
<glyph unicode="&#xf5;" horiz-adv-x="401" d="M59.5 28.5q-33.5 42.5 -33.5 110.5q0 22 5 54q11 59 42.5 106t76.5 73.5t95 26.5q64 0 98.5 -41.5t34.5 -109.5q0 -26 -6 -55q-13 -63 -46.5 -110t-78.5 -72t-92 -25q-62 0 -95.5 42.5zM259.5 48q30.5 37 42.5 101q6 32 6 63q0 68 -24.5 115.5t-69.5 47.5q-38 0 -69 -37 t-43 -102q-7 -38 -7 -67q0 -67 25.5 -112.5t69.5 -45.5q39 0 69.5 37zM118 477q-3 0 -5 2.5t0 4.5q47 67 90 67q14 0 50 -10q46 -14 74 -14q19 0 30.5 6.5t24.5 20.5h1q3 0 5.5 -2.5t0.5 -4.5q-28 -40 -45.5 -54t-39.5 -14q-20 0 -60 12q-4 1 -25.5 7t-43.5 6q-18 0 -28 -5 t-17 -12l-10 -10h-2z" />
<glyph unicode="&#xf6;" horiz-adv-x="401" d="M59.5 28.5q-33.5 42.5 -33.5 110.5q0 22 5 54q11 59 42.5 106t76.5 73.5t95 26.5q64 0 98.5 -41.5t34.5 -109.5q0 -26 -6 -55q-13 -63 -46.5 -110t-78.5 -72t-92 -25q-62 0 -95.5 42.5zM259.5 48q30.5 37 42.5 101q6 32 6 63q0 68 -24.5 115.5t-69.5 47.5q-38 0 -69 -37 t-43 -102q-7 -38 -7 -67q0 -67 25.5 -112.5t69.5 -45.5q39 0 69.5 37zM142 485q-12 12 -12 34q0 21 12 32.5t34 11.5q21 0 32.5 -11.5t11.5 -32.5q0 -22 -11.5 -34t-32.5 -12q-22 0 -34 12zM295 485q-12 12 -12 34q0 21 12 32.5t34 11.5q21 0 33 -11.5t12 -32.5 q0 -22 -12 -34t-33 -12q-22 0 -34 12z" />
<glyph unicode="&#xf7;" horiz-adv-x="389" d="M162.5 327.5q-12.5 12.5 -12.5 34.5q0 21 12.5 33t34.5 12t34.5 -12t12.5 -33q0 -22 -12.5 -34.5t-34.5 -12.5t-34.5 12.5zM30.5 181q-1.5 7 -1.5 15q0 7 1.5 13.5t2.5 6.5h331q2 0 3.5 -6.5t1.5 -14.5t-1.5 -14.5t-3.5 -6.5h-330q-2 0 -3.5 7zM164 3q-13 13 -13 35 q0 20 13 32t35 12t34 -12t12 -32q0 -23 -12 -35.5t-34 -12.5t-35 13z" />
<glyph unicode="&#xf8;" horiz-adv-x="408" d="M387 400q4 0 11 -5.5t4 -8.5l-46 -47q22 -37 22 -90q0 -27 -6 -56q-13 -63 -46.5 -110t-78.5 -72t-92 -25q-62 0 -97 45l-45 -47h-1q-5 0 -11.5 6t-2.5 10l48 49q-20 38 -20 90q0 22 5 54q11 59 42.5 106t76.5 73.5t95 26.5q63 0 99 -42l42 43h1zM95 169q0 -27 7 -62 l191 197q-12 33 -32 52t-47 19q-38 0 -69 -37t-43 -102q-7 -38 -7 -67zM307 211q0 39 -7 70l-191 -198q12 -34 32.5 -53t48.5 -19q39 0 69.5 37t42.5 101q5 26 5 62z" />
<glyph unicode="&#xf9;" horiz-adv-x="468" d="M442 78q3 0 5 -3.5t0 -5.5q-35 -41 -63 -59.5t-55 -18.5q-20 0 -29 11t-9 36q0 16 5 46l20 114q-36 -100 -84.5 -155.5t-101.5 -55.5q-67 0 -67 76q0 19 7 56l36 178q3 15 3 25q0 30 -19 30q-10 0 -24.5 -11t-36.5 -32q-2 -2 -4 -2q-3 0 -5 3.5t1 6.5q35 40 61 59t52 19 q39 0 39 -49q0 -19 -6 -49l-32 -159q-6 -30 -6 -51q0 -55 40 -55q32 0 66 41t63.5 119t48.5 185q2 8 12 12.5t28 4.5q26 0 26 -7l-4 -20q-9 -43 -11 -55l-41 -223q-2 -9 -2 -25q0 -31 18 -31q12 0 29 11.5t37 32.5q1 1 3 1zM223 727q-1 5 13 5q16 0 35.5 -5.5t19.5 -10.5 l-11 -240q0 -2 -4.5 -3t-4.5 2z" />
<glyph unicode="&#xfa;" horiz-adv-x="468" d="M442 78q3 0 5 -3.5t0 -5.5q-35 -41 -63 -59.5t-55 -18.5q-20 0 -29 11t-9 36q0 16 5 46l20 114q-36 -100 -84.5 -155.5t-101.5 -55.5q-67 0 -67 76q0 19 7 56l36 178q3 15 3 25q0 30 -19 30q-10 0 -24.5 -11t-36.5 -32q-2 -2 -4 -2q-3 0 -5 3.5t1 6.5q35 40 61 59t52 19 q39 0 39 -49q0 -19 -6 -49l-32 -159q-6 -30 -6 -51q0 -55 40 -55q32 0 66 41t63.5 119t48.5 185q2 8 12 12.5t28 4.5q26 0 26 -7l-4 -20q-9 -43 -11 -55l-41 -223q-2 -9 -2 -25q0 -31 18 -31q12 0 29 11.5t37 32.5q1 1 3 1zM253.5 472q-5.5 2 -3.5 4l87 240q2 5 24.5 10 t39.5 5q13 0 12 -4l-153 -254q-1 -3 -6.5 -1z" />
<glyph unicode="&#xfb;" horiz-adv-x="468" d="M442 78q3 0 5 -3.5t0 -5.5q-35 -41 -63 -59.5t-55 -18.5q-20 0 -29 11t-9 36q0 16 5 46l20 114q-36 -100 -84.5 -155.5t-101.5 -55.5q-67 0 -67 76q0 19 7 56l36 178q3 15 3 25q0 30 -19 30q-10 0 -24.5 -11t-36.5 -32q-2 -2 -4 -2q-3 0 -5 3.5t1 6.5q35 40 61 59t52 19 q39 0 39 -49q0 -19 -6 -49l-32 -159q-6 -30 -6 -51q0 -55 40 -55q32 0 66 41t63.5 119t48.5 185q2 8 12 12.5t28 4.5q26 0 26 -7l-4 -20q-9 -43 -11 -55l-41 -223q-2 -9 -2 -25q0 -31 18 -31q12 0 29 11.5t37 32.5q1 1 3 1zM340 478q0 -3 -5.5 -3.5t-6.5 2.5l-38 139 l-90 -142q-1 -1 -3 -1q-3 0 -5.5 1.5t-1.5 3.5l109 249q3 5 11 5t8 -5z" />
<glyph unicode="&#xfc;" horiz-adv-x="468" d="M442 78q3 0 5 -3.5t0 -5.5q-35 -41 -63 -59.5t-55 -18.5q-20 0 -29 11t-9 36q0 16 5 46l20 114q-36 -100 -84.5 -155.5t-101.5 -55.5q-67 0 -67 76q0 19 7 56l36 178q3 15 3 25q0 30 -19 30q-10 0 -24.5 -11t-36.5 -32q-2 -2 -4 -2q-3 0 -5 3.5t1 6.5q35 40 61 59t52 19 q39 0 39 -49q0 -19 -6 -49l-32 -159q-6 -30 -6 -51q0 -55 40 -55q32 0 66 41t63.5 119t48.5 185q2 8 12 12.5t28 4.5q26 0 26 -7l-4 -20q-9 -43 -11 -55l-41 -223q-2 -9 -2 -25q0 -31 18 -31q12 0 29 11.5t37 32.5q1 1 3 1zM166 485q-12 12 -12 34q0 21 12 32.5t34 11.5 q21 0 32.5 -11.5t11.5 -32.5q0 -22 -11.5 -34t-32.5 -12q-22 0 -34 12zM319 485q-12 12 -12 34q0 21 12 32.5t34 11.5q21 0 33 -11.5t12 -32.5q0 -22 -12 -34t-33 -12q-22 0 -34 12z" />
<glyph unicode="&#xfd;" horiz-adv-x="446" d="M400 380q11 -16 11 -44q0 -79 -78.5 -230t-180.5 -269t-169 -118q-21 0 -34 9.5t-13 29.5l1 9q8 33 46 33q10 0 32 -2q20 -2 30 -2q33 0 55 17q29 19 76 83l1 52q0 190 -29.5 294.5t-80.5 104.5q-13 0 -26 -9t-22 -26q-1 -3 -6 -3q-7 0 -6 6q18 38 45 59t55 21 q41 0 70.5 -47t45 -128.5t15.5 -182.5q0 -35 -1 -53q41 64 72.5 126t40.5 95q5 25 5 40q0 21 -5 38t-14 37q-4 10 -7.5 19.5t-3.5 17.5q0 17 12 28t31 11q21 0 32 -16zM235.5 472q-5.5 2 -3.5 4l87 240q2 5 24.5 10t39.5 5q13 0 12 -4l-153 -254q-1 -3 -6.5 -1z" />
<glyph unicode="&#xfe;" horiz-adv-x="409" d="M365.5 364q26.5 -29 26.5 -79q0 -15 -3 -33q-13 -73 -52.5 -130.5t-91.5 -90t-100 -32.5q-31 0 -52 3l-32 -180q-3 -17 -3 -28q0 -17 8 -24.5t25 -7.5q6 0 24 2q4 1 5.5 -4.5t-2.5 -6.5l-178 -28q-4 -1 -5 5t3 7q22 4 32 10.5t15 20.5t11 47l86 476q-29 -19 -47 -34 l-2 -1q-4 0 -6 4t1 6q38 32 58 46l54 298q3 15 3 26q0 25 -20 25q-16 0 -46 -15h-1q-5 0 -6.5 5.5t2.5 6.5l138 67h2q4 0 7 -3t2 -5l-65 -362q71 38 135 38q48 0 74.5 -29zM320 251q0 45 -20 73.5t-62 28.5q-41 0 -86 -21l-51 -288q32 -16 75 -16q112 0 142 192q2 20 2 31z " />
<glyph unicode="&#xff;" horiz-adv-x="446" d="M400 380q11 -16 11 -44q0 -79 -78.5 -230t-180.5 -269t-169 -118q-21 0 -34 9.5t-13 29.5l1 9q8 33 46 33q10 0 32 -2q20 -2 30 -2q33 0 55 17q29 19 76 83l1 52q0 190 -29.5 294.5t-80.5 104.5q-13 0 -26 -9t-22 -26q-1 -3 -6 -3q-7 0 -6 6q18 38 45 59t55 21 q41 0 70.5 -47t45 -128.5t15.5 -182.5q0 -35 -1 -53q41 64 72.5 126t40.5 95q5 25 5 40q0 21 -5 38t-14 37q-4 10 -7.5 19.5t-3.5 17.5q0 17 12 28t31 11q21 0 32 -16zM148 485q-12 12 -12 34q0 21 12 32.5t34 11.5q21 0 32.5 -11.5t11.5 -32.5q0 -22 -11.5 -34t-32.5 -12 q-22 0 -34 12zM301 485q-12 12 -12 34q0 21 12 32.5t34 11.5q21 0 33 -11.5t12 -32.5q0 -22 -12 -34t-33 -12q-22 0 -34 12z" />
<glyph unicode="&#x127;" horiz-adv-x="443" d="M426 79q3 0 5.5 -3.5t-0.5 -6.5q-34 -40 -61 -59t-53 -19q-20 0 -29 11.5t-9 37.5q0 17 5 49l29 159q6 30 6 52q0 54 -39 54q-32 0 -66 -41t-64 -119t-49 -185q-2 -8 -12 -12.5t-27 -4.5q-27 0 -27 7l4 20q9 43 11 55l79 426h-56q-4 0 -4 10t4 10h60l17 90q2 9 2 23 q0 28 -21 28q-16 0 -46 -15h-1q-4 0 -6 5t2 7l138 67h2q4 0 7 -3t2 -5l-36 -197h166q2 0 3.5 -3t1.5 -7t-1.5 -7t-3.5 -3h-169l-56 -306q36 97 83.5 151t100.5 54q33 0 49 -18.5t16 -58.5q0 -29 -5 -55l-33 -178q-3 -15 -3 -25q0 -30 19 -30q10 0 25 11t37 32q2 2 3 2z" />
<glyph unicode="&#x131;" horiz-adv-x="247" d="M68 40q0 21 6 49l41 208q3 15 3 26q0 30 -19 30q-11 0 -28 -11.5t-37 -32.5q-1 -1 -3 -1q-3 0 -5.5 3.5t0.5 5.5q66 78 117 78q20 0 29.5 -11.5t9.5 -35.5q0 -23 -5 -46l-41 -213q-3 -15 -3 -26q0 -29 18 -29q23 0 63 42q1 1 3 1q4 0 6 -3.5t-1 -5.5q-33 -39 -60.5 -58 t-53.5 -19q-40 0 -40 49z" />
<glyph unicode="&#x13f;" horiz-adv-x="499" d="M10 6q0 6 3 6q31 0 46 5t22.5 19.5t12.5 44.5l82 463q4 26 4 32q0 22 -13 29.5t-48 7.5q-2 0 -2 6t2 6l43 -1q36 -2 59 -2t63 2l44 1q2 0 2 -6t-2 -6q-31 0 -46 -5.5t-22.5 -20t-13.5 -44.5l-81 -458q-3 -18 -3 -31q0 -21 11.5 -28t41.5 -7h77q61 0 104 35t74 104 q1 3 6.5 2t4.5 -4q-20 -68 -33 -141q-2 -8 -5.5 -11.5t-10.5 -3.5h-419q-3 0 -3 6zM396.5 291q-12.5 13 -12.5 35q0 20 12.5 32t34.5 12t34 -11.5t12 -32.5q0 -23 -12 -35.5t-34 -12.5t-34.5 13z" />
<glyph unicode="&#x140;" horiz-adv-x="240" d="M62 3q-10 12 -10 37q0 19 6 49l96 521q3 15 3 25q0 26 -20 26q-16 0 -46 -15h-1q-5 0 -6.5 5.5t2.5 6.5l138 67h2q4 0 7 -3t2 -5l-115 -628q-3 -15 -3 -26q0 -29 18 -29q10 0 25 11t37 32q2 2 4 2q3 0 5 -3.5t-1 -6.5q-34 -40 -60.5 -59t-52.5 -19q-20 0 -30 12zM226 322 q-12 12 -12 34q0 21 12 32.5t34 11.5q21 0 33 -11.5t12 -32.5q0 -22 -12 -34t-33 -12q-22 0 -34 12z" />
<glyph unicode="&#x152;" horiz-adv-x="807" d="M814 616l-20 -127q-1 -4 -7 -3t-5 4q2 55 -18.5 86.5t-64.5 31.5h-42q-31 0 -46 -5t-22 -18t-13 -42l-36 -206h105q42 0 62.5 16.5t27.5 55.5q0 3 6 3q2 0 4.5 -1.5t1.5 -3.5q-3 -18 -5.5 -30.5t-3.5 -21.5l-6 -30l-15 -96q-1 -4 -7 -3.5t-5 4.5q2 9 2 26q0 30 -17 44 t-52 14h-102l-40 -229q-4 -26 -4 -32q0 -21 13 -28t48 -7h60q43 0 76.5 35t61.5 99q1 3 6.5 2t4.5 -4q-18 -53 -31 -135q-2 -9 -5.5 -12t-11.5 -3h-263q-23 0 -69 -2q-40 -2 -55 -2q-82 0 -142.5 32t-93 89t-32.5 130q0 25 5 58q17 96 71.5 169t131.5 113t159 40q36 0 58 -1 l71 -1h253q8 0 6 -9zM501 531q4 24 4 32q0 25 -16.5 36t-55.5 11q-69 0 -127.5 -32.5t-99 -96.5t-55.5 -154q-7 -39 -7 -81q0 -105 47 -169.5t129 -64.5q36 0 55.5 4.5t31 19.5t16.5 46z" />
<glyph unicode="&#x153;" horiz-adv-x="610" d="M585.5 386.5q18.5 -12.5 18.5 -33.5q0 -47 -72 -86t-161 -54q-4 -24 -4 -53q0 -62 26.5 -98.5t77.5 -36.5q55 0 97 33h1q3 0 5.5 -3t0.5 -6q-71 -61 -149 -61q-46 0 -76 21t-44 58q-32 -39 -73.5 -60t-83.5 -21q-60 0 -92.5 42.5t-32.5 109.5q0 31 5 55q10 59 41 106 t76 73.5t95 26.5q46 0 76.5 -24t42.5 -66q34 41 78.5 65.5t94.5 24.5q34 0 52.5 -12.5zM251.5 48.5q30.5 37.5 41.5 100.5q6 32 6 64q0 68 -23.5 115t-66.5 47q-38 0 -68.5 -37.5t-41.5 -101.5q-6 -33 -6 -66q0 -67 24 -113t66 -46q38 0 68.5 37.5zM527 338q0 17 -11 25.5 t-30 8.5q-43 0 -71.5 -40.5t-40.5 -104.5q64 11 103.5 33.5t47.5 63.5q2 10 2 14z" />
<glyph unicode="&#x178;" horiz-adv-x="531" d="M605 619q0 -6 -3 -6q-64 0 -133 -99l-143 -203l-41 -230q-4 -19 -4 -34q0 -21 14 -28t52 -7q3 0 3 -6t-3 -6q-29 0 -45 1l-64 1l-67 -1q-16 -1 -44 -1q-4 0 -4 6t4 6q33 0 49.5 5.5t24.5 19.5t13 44l38 220l-102 241q-17 38 -34 54.5t-43 16.5q-4 0 -4 6t4 6l38 -1 q28 -2 40 -2q26 0 70 2l45 1q3 0 3 -5q0 -7 -4 -7q-26 0 -38 -5t-12 -16q0 -7 5 -19l100 -239l129 191q23 32 23 56q0 32 -43 32q-3 0 -3 6t3 6l44 -1q38 -2 62 -2q15 0 35 2l32 1q3 0 3 -6zM259 724q-12 12 -12 34q0 21 12 32.5t34 11.5q21 0 32.5 -11.5t11.5 -32.5 q0 -22 -11.5 -34t-32.5 -12q-22 0 -34 12zM412 724q-12 12 -12 34q0 21 12 32.5t34 11.5q21 0 33 -11.5t12 -32.5q0 -22 -12 -34t-33 -12q-22 0 -34 12z" />
<glyph unicode="&#x192;" horiz-adv-x="264" d="M380 710.5q21 -15.5 18 -38.5q-3 -16 -14 -24.5t-25 -8.5q-19 0 -26.5 9.5t-13.5 28.5q-6 17 -11.5 24.5t-18.5 7.5q-36 0 -62.5 -67t-46.5 -203l-9 -62q30 1 67 5l33 2q7 0 7 -8t-11 -21.5t-21 -13.5q-6 0 -13 1t-15 2q-17 3 -51 7l-54 -372q-14 -97 -33 -151.5 t-47 -78.5t-71 -24q-37 0 -56 14t-16 34q1 15 12.5 24t27.5 9q18 0 25 -9t12 -27q4 -14 8 -20t14 -6q12 0 19.5 15.5t16.5 59t22 134.5l51 353q2 20 2 26q0 18 -11 23t-45 5q-3 0 -3 5q0 3 1.5 6t2.5 3q35 0 50 9.5t19 34.5q20 123 45 188.5t62.5 92.5t99.5 27 q38 0 59 -15.5z" />
<glyph unicode="&#x237;" horiz-adv-x="242" d="M-77 -261q-19 14 -16 34q3 16 13.5 24.5t24.5 8.5q17 0 23 -9t10 -27q4 -15 8 -21.5t13 -6.5q13 0 22.5 18t18.5 58.5t24 125.5l61 353q3 15 3 25q0 31 -19 31q-24 0 -66 -44q-1 -1 -3 -1q-3 0 -5 3.5t0 5.5q35 41 63.5 59.5t55.5 18.5q20 0 29 -11.5t9 -36.5 q0 -15 -5 -45l-58 -334q-16 -95 -35 -147t-46 -74t-70 -22q-36 0 -55 14z" />
<glyph unicode="&#x2c6;" horiz-adv-x="239" d="M251 478q0 -3 -5.5 -3.5t-6.5 2.5l-38 139l-90 -142q-1 -1 -3 -1q-3 0 -5.5 1.5t-1.5 3.5l109 249q3 5 11 5t8 -5z" />
<glyph unicode="&#x2c7;" horiz-adv-x="222" d="M136 726q0 3 5.5 3.5t6.5 -2.5l38 -139l90 142q1 1 3 1q3 0 5.5 -1.5t1.5 -3.5l-109 -249q-2 -5 -11 -5q-3 0 -5.5 1.5t-2.5 3.5z" />
<glyph unicode="&#x2d8;" horiz-adv-x="234" d="M104.5 500q-24.5 25 -24.5 64q0 6 17.5 11t32.5 5q11 0 11 -3q2 -28 19 -44t44 -16q44 0 71 56q2 3 6 3t7.5 -2t2.5 -4q-21 -46 -51.5 -70.5t-68.5 -24.5q-42 0 -66.5 25z" />
<glyph unicode="&#x2d9;" horiz-adv-x="146" d="M103.5 521.5q-12.5 12.5 -12.5 34.5q0 21 12.5 33t34.5 12t34.5 -12t12.5 -33q0 -22 -12 -34.5t-35 -12.5q-22 0 -34.5 12.5z" />
<glyph unicode="&#x2da;" horiz-adv-x="249" d="M118.5 491.5q-23.5 23.5 -23.5 55.5q0 36 30 57t67 21q36 0 61.5 -23.5t25.5 -56.5q0 -35 -29.5 -56t-67.5 -21q-40 0 -63.5 23.5zM227 527q0 34 -16.5 60t-38.5 26q-25 0 -25 -46q0 -33 14 -60.5t37 -27.5q29 0 29 48z" />
<glyph unicode="&#x2db;" horiz-adv-x="228" d="M-8 -253.5q-21 21.5 -21 56.5q0 49 40.5 100t112.5 111l9 -7q-48 -49 -74 -91.5t-26 -88.5q0 -31 15.5 -49.5t43.5 -18.5q16 0 28 6t27 18l1 1q3 0 5.5 -4t0.5 -6q-28 -26 -52.5 -37.5t-50.5 -11.5q-38 0 -59 21.5z" />
<glyph unicode="&#x2dc;" horiz-adv-x="273" d="M60 477q-3 0 -5 2.5t0 4.5q47 67 90 67q14 0 50 -10q46 -14 74 -14q19 0 30.5 6.5t24.5 20.5h1q3 0 5.5 -2.5t0.5 -4.5q-28 -40 -45.5 -54t-39.5 -14q-20 0 -60 12q-4 1 -25.5 7t-43.5 6q-18 0 -28 -5t-17 -12l-10 -10h-2z" />
<glyph unicode="&#x2dd;" horiz-adv-x="317" d="M74 458q-4 0 -5 5t2 7q58 60 108 115q4 4 26 -1t38 -12.5t7 -11.5q-105 -51 -174 -101zM201 458q-3 0 -4 5t1 7q55 55 109 115q4 4 25.5 -1t38 -13t7.5 -11q-95 -42 -175 -101z" />
<glyph unicode="&#x300;" horiz-adv-x="0" d="M-101 727q-1 5 13 5q16 0 36 -5.5t20 -10.5l-11 -240q0 -2 -5 -3t-5 2z" />
<glyph unicode="&#x301;" horiz-adv-x="0" d="M-99.5 472q-5.5 2 -3.5 4l87 240q2 5 24.5 10t39.5 5q13 0 12 -4l-153 -254q-1 -3 -6.5 -1z" />
<glyph unicode="&#x302;" horiz-adv-x="0" d="M12 477q0 -2 -5.5 -2.5t-5.5 1.5l-39 139l-90 -141q-2 -2 -3 -2q-3 0 -5.5 1.5t-1.5 3.5l110 249q1 5 10 5q8 0 8 -5z" />
<glyph unicode="&#x304;" horiz-adv-x="0" d="M-304 478.5q-2 4.5 -2 10.5t2 10.5t6 4.5h251q7 0 7 -15t-7 -15h-251q-4 0 -6 4.5z" />
<glyph unicode="&#x306;" horiz-adv-x="0" d="M-132 497.5q-25 23.5 -25 66.5q0 6 17.5 11t32.5 5q11 0 11 -3q3 -29 20 -45t41 -16q20 0 40 14.5t34 42.5q3 3 7 3q3 0 6 -2t2 -5q-20 -45 -55 -70t-69 -25q-37 0 -62 23.5z" />
<glyph unicode="&#x308;" horiz-adv-x="0" d="M-225 485.5q-13 12.5 -13 33.5t13 32.5t34 11.5q22 0 33.5 -11.5t11.5 -32.5q0 -22 -11.5 -34t-33.5 -12q-21 0 -34 12.5zM-50 485q-12 12 -12 34q0 21 12 32.5t34 11.5q21 0 33 -11.5t12 -32.5q0 -22 -12 -34t-33 -12q-22 0 -34 12z" />
<glyph unicode="&#x30b;" horiz-adv-x="0" d="M-202 471q-3 0 -5.5 1.5t-1.5 3.5l88 240q1 5 24 10t40 5q14 0 11 -4l-152 -254q-2 -2 -4 -2zM-78 471q-3 0 -5.5 1.5t-1.5 3.5l88 240q2 5 24.5 10t39.5 5q14 0 11 -4l-152 -254q-2 -2 -4 -2z" />
<glyph unicode="&#x3a9;" horiz-adv-x="647" d="M383 138.5q-2 -2.5 -3 -6.5l-20 -114q85 1 131 23.5t90 81.5q1 1 3 1q3 0 6 -1.5t2 -3.5l-62 -151q0 -1 -3 -1t-6 1.5t-2 3.5l2 12q0 10 -10.5 13t-38.5 3h-118q-5 0 -9.5 5.5t-3.5 12.5l21 117q1 10 4 12.5t15 6.5q39 16 69.5 36t59.5 65t40 118q5 28 5 62q0 86 -46 133 t-134 47q-96 0 -148.5 -56t-67.5 -147q-5 -26 -5 -61q0 -133 117 -194q9 -4 9 -14q0 -6 -1 -10l-21 -115q-1 -7 -5 -12.5t-8 -5.5h-166q-23 0 -33 -2.5t-14 -7.5t-10 -19q-2 -2 -3 -2q-3 0 -6 2t-2 3l64 148q1 1 4 1q8 0 7 -4q-2 -14 -2 -19q0 -42 37 -61t119 -21l17 98 q1 4 1 10q0 7 -3.5 11t-11.5 7q-87 27 -130 72.5t-43 115.5q0 26 4 47q15 80 64.5 139t122 90t154.5 31q110 0 167.5 -53t57.5 -141q0 -22 -5 -54q-13 -75 -53.5 -125t-87 -76t-104.5 -47q-5 -2 -7 -4.5z" />
<glyph unicode="&#x3c0;" horiz-adv-x="440" d="M332 325q-14 -103 -14 -168q0 -21 1 -32q1 -39 8.5 -60.5t21.5 -21.5q21 0 63 39q2 2 3 2q3 0 5.5 -3.5t-0.5 -6.5q-38 -43 -65 -63t-52 -20q-22 0 -31.5 13.5t-9.5 42.5q0 16 3 37q7 58 27 142q12 51 21 99q-70 2 -92 2q-30 0 -68 -2q-19 -109 -19 -217l1 -72 q1 -11 1 -27q0 -20 -54 -20q-17 0 -24.5 4.5t-7.5 16.5q0 8 7 32q27 82 44.5 141.5t34.5 140.5q-46 -3 -63.5 -10.5t-24.5 -24.5q-2 -2 -6.5 -1.5t-3.5 3.5l29 81q4 11 10.5 14t19.5 3q22 0 32 -1l120 -1q76 0 113 3.5t51.5 10.5t21.5 22q2 3 6.5 2.5t2.5 -4.5l-29 -79 q-5 -13 -10.5 -16t-17.5 -3z" />
<glyph unicode="&#x400;" horiz-adv-x="520" d="M516 616l-8 -54l-12 -73q0 -3 -5 -3q-2 0 -4.5 1.5t-2.5 2.5q4 53 -21 85.5t-71 32.5h-62q-31 0 -45.5 -5t-21.5 -18t-12 -42l-36 -206h132q41 0 62 16t28 56q0 3 6 3q2 0 4.5 -1.5t1.5 -3.5q-3 -22 -9 -46q-4 -15 -7 -36l-5 -31q-3 -31 -10 -65q-1 -4 -7 -3.5t-5 4.5 q3 15 3 27q0 30 -17 43.5t-52 13.5h-129l-41 -229q-3 -18 -3 -30q0 -21 12.5 -28.5t46.5 -7.5h83q44 0 86 36.5t68 96.5q2 3 7.5 2t3.5 -4q-18 -58 -32 -135q-2 -9 -5 -12t-11 -3h-409q-2 0 -2 6t2 6q31 0 46 5t22.5 19t13.5 45l81 463q4 17 4 33q0 21 -13 28.5t-47 7.5 q-3 0 -3 6t3 6h386q8 0 6 -9zM217 756q-9 2 8 11t40.5 16t27.5 4q34 -22 51 -34q66 -45 99 -64q3 -1 3 -4t-2 -5t-5 -1q-112 50 -222 77z" />
<glyph unicode="&#x401;" horiz-adv-x="520" d="M516 616l-8 -54l-12 -73q0 -3 -5 -3q-2 0 -4.5 1.5t-2.5 2.5q4 53 -21 85.5t-71 32.5h-62q-31 0 -45.5 -5t-21.5 -18t-12 -42l-36 -206h132q41 0 62 16t28 56q0 3 6 3q2 0 4.5 -1.5t1.5 -3.5q-3 -22 -9 -46q-4 -15 -7 -36l-5 -31q-3 -31 -10 -65q-1 -4 -7 -3.5t-5 4.5 q3 15 3 27q0 30 -17 43.5t-52 13.5h-129l-41 -229q-3 -18 -3 -30q0 -21 12.5 -28.5t46.5 -7.5h83q44 0 86 36.5t68 96.5q2 3 7.5 2t3.5 -4q-18 -58 -32 -135q-2 -9 -5 -12t-11 -3h-409q-2 0 -2 6t2 6q31 0 46 5t22.5 19t13.5 45l81 463q4 17 4 33q0 21 -13 28.5t-47 7.5 q-3 0 -3 6t3 6h386q8 0 6 -9zM243 724.5q-13 12.5 -13 33.5t13 32.5t34 11.5q22 0 33.5 -11.5t11.5 -32.5q0 -22 -11.5 -34t-33.5 -12q-21 0 -34 12.5zM418 724q-12 12 -12 34q0 21 12 32.5t34 11.5q21 0 33 -11.5t12 -32.5q0 -22 -12 -34t-33 -12q-22 0 -34 12z" />
<glyph unicode="&#x402;" horiz-adv-x="664" d="M586.5 356q37.5 -39 37.5 -108q0 -21 -5 -49q-10 -54 -37.5 -102.5t-69 -78.5t-91.5 -30q-34 0 -53 15.5t-19 38.5q0 20 12 33.5t31 13.5q31 0 31 -42q0 -22 5 -30.5t21 -8.5q65 0 91 153q7 44 7 67q0 63 -26.5 94t-75.5 31q-65 0 -138 -58l-39 -216q-3 -18 -3 -29 q0 -23 10.5 -30.5t32.5 -7.5q4 0 4 -6t-4 -6q-23 0 -38 1l-51 1l-71 -1q-18 -1 -49 -1q-4 0 -4 6t4 6q36 0 55 6t28 21t14 44l82 463q4 26 4 31q0 18 -11 23t-43 5q-49 0 -82 -35.5t-59 -113.5q0 -2 -4 -2q-3 0 -6 1.5t-2 4.5q8 24 23 88t22 100q0 4 6 4q2 0 4.5 -1.5 t1.5 -4.5q-3 -21 44 -21q72 -3 149 -3q54 0 112 2l57 1q34 0 47.5 4t19.5 19q2 3 5 3t5.5 -1.5t1.5 -3.5q-8 -28 -21.5 -90t-20.5 -100q0 -3 -5 -3q-3 0 -5.5 1.5t-1.5 3.5q2 28 2 38q0 56 -22 82.5t-69 26.5q-31 0 -46 -5t-22 -18.5t-12 -42.5l-39 -221q47 39 90 58t86 19 q62 0 99.5 -39z" />
<glyph unicode="&#x403;" horiz-adv-x="476" d="M8 6q0 6 4 6q33 0 50 6t25.5 20.5t13.5 44.5l82 463q3 18 3 31q0 22 -13 29t-49 7q-4 0 -4 6t4 6h389q10 0 8 -11l-23 -143q-1 -4 -6.5 -3.5t-5.5 4.5q4 62 -19.5 95.5t-72.5 33.5h-63q-38 0 -54.5 -13t-22.5 -47l-81 -458q-3 -16 -3 -29q0 -26 19.5 -34t75.5 -8 q4 0 4 -6t-4 -6q-38 0 -59 1l-83 1l-66 -1q-17 -1 -45 -1q-4 0 -4 6zM235 678q-4 0 -5.5 4.5t1.5 6.5q46 25 98 62q47 31 53 35q5 3 27.5 -4t40 -16t8.5 -10q-118 -30 -222 -78h-1z" />
<glyph unicode="&#x404;" horiz-adv-x="586" d="M588.5 594.5q1.5 -4.5 0.5 -15.5l-12 -118q-1 -4 -6 -4t-5 4q-10 76 -54.5 113.5t-115.5 37.5q-62 0 -114 -32.5t-86.5 -92.5t-46.5 -141l-3 -21h166q60 0 91.5 23t42.5 73q1 5 6.5 4.5t4.5 -5.5q-4 -25 -9 -47q-8 -40 -10 -56l-8 -50q-2 -10 -3.5 -24.5t-5.5 -32.5 q-1 -4 -6.5 -3t-4.5 5q1 5 1 13q0 35 -26.5 56t-78.5 21h-162q-2 -28 -2 -41q0 -74 22.5 -132.5t63.5 -92t96 -33.5t108.5 37.5t101.5 113.5q2 2 4 2q3 0 5 -2t1 -4l-29 -110q-3 -12 -6 -16.5t-12 -6.5q-87 -30 -179 -30q-135 0 -198 73.5t-63 183.5q0 30 7 72 q17 95 73.5 168t135.5 112.5t161 39.5q41 0 82.5 -9t64.5 -24q6 -4 7.5 -8.5z" />
<glyph unicode="&#x405;" horiz-adv-x="465" d="M117 -4.5q-33 7.5 -69 26.5q-8 5 -6 19l20 135q0 5 5.5 5t6.5 -5q7 -77 41 -123t96 -46q47 0 82 28t44 84q3 15 3 28q0 48 -28.5 81.5t-81.5 71.5q-37 27 -58.5 46t-36.5 45t-15 60q0 15 3 30q14 74 74.5 114.5t134.5 40.5q55 0 111 -24q13 -7 12 -17l-14 -117 q0 -4 -5.5 -4t-5.5 4q-8 63 -36 102t-82 39q-40 0 -66 -20.5t-38.5 -50.5t-12.5 -59q0 -31 14.5 -55t34.5 -41.5t58 -44.5q58 -41 88 -76t30 -86q0 -18 -2 -28q-13 -74 -74 -122t-158 -48q-36 0 -69 7.5z" />
<glyph unicode="&#x406;" horiz-adv-x="317" d="M19 6q0 6 3 6q31 0 45.5 5t22 19t12.5 45l82 463q4 26 4 32q0 22 -13.5 29.5t-47.5 7.5q-3 0 -3 6t3 6l43 -1q38 -2 60 -2q29 0 67 2l40 1q3 0 3 -6t-3 -6q-30 0 -45 -6t-22.5 -20.5t-13.5 -44.5l-82 -461q-4 -26 -4 -32q0 -22 13.5 -29.5t48.5 -7.5q2 0 2 -6t-2 -6 q-26 0 -42 1l-64 1l-60 -1q-16 -1 -44 -1q-3 0 -3 6z" />
<glyph unicode="&#x407;" horiz-adv-x="317" d="M19 6q0 6 3 6q31 0 45.5 5t22 19t12.5 45l82 463q4 26 4 32q0 22 -13.5 29.5t-47.5 7.5q-3 0 -3 6t3 6l43 -1q38 -2 60 -2q29 0 67 2l40 1q3 0 3 -6t-3 -6q-30 0 -45 -6t-22.5 -20.5t-13.5 -44.5l-82 -461q-4 -26 -4 -32q0 -22 13.5 -29.5t48.5 -7.5q2 0 2 -6t-2 -6 q-26 0 -42 1l-64 1l-60 -1q-16 -1 -44 -1q-3 0 -3 6zM151.5 724q-12.5 12 -12.5 34q0 21 12.5 32.5t34.5 11.5t33 -11.5t11 -32.5q0 -22 -11 -34t-33 -12t-34.5 12zM291.5 724q-11.5 12 -11.5 34q0 21 11.5 32.5t33.5 11.5q21 0 32.5 -11.5t11.5 -32.5q0 -22 -11.5 -34 t-32.5 -12q-22 0 -33.5 12z" />
<glyph unicode="&#x408;" horiz-adv-x="292" d="M-23 -193q-3 0 -5 4.5t1 6.5q45 27 71 81t42 141l89 504q3 18 3 31q0 23 -13 30.5t-48 7.5q-2 0 -2 6t2 6l43 -1q38 -2 61 -2q28 0 66 2l41 1q3 0 3 -6t-3 -6q-31 0 -46 -6t-22.5 -20.5t-12.5 -44.5l-84 -475q-15 -78 -37 -126.5t-56.5 -79t-91.5 -54.5h-1z" />
<glyph unicode="&#x409;" horiz-adv-x="818" d="M735.5 317.5q50.5 -35.5 50.5 -108.5q0 -18 -3 -39q-14 -80 -75.5 -127t-144.5 -47q-26 0 -59 3q-14 1 -32 2t-39 1l-66 -1q-16 -1 -43 -1q-4 0 -4 6t4 6q32 0 48.5 6t25 20.5t14.5 44.5l79 457q1 7 3.5 20.5t2.5 19.5q0 14 -10 16.5t-47 2.5h-47q-27 0 -42 -5.5 t-24.5 -22.5t-15.5 -53q-17 -100 -55.5 -223t-98 -215t-130.5 -92q-21 0 -33 9t-12 26q0 25 12.5 34t33.5 9h19q51 0 100 71.5t86.5 178.5t56.5 211q4 24 4 33q0 27 -17 40t-60 13q-2 0 -2 6t2 6h435q4 0 4 -6t-4 -6q-33 0 -50 -6t-25.5 -20.5t-13.5 -44.5l-34 -194 q31 5 72 5q84 0 134.5 -35.5zM707 207q0 123 -131 123q-15 0 -51 -4l-44 -247q-2 -16 -2 -22q0 -21 14.5 -31t52.5 -10q72 0 108.5 34.5t47.5 102.5q5 25 5 54z" />
<glyph unicode="&#x40a;" horiz-adv-x="894" d="M811.5 309.5q50.5 -33.5 50.5 -102.5q0 -21 -4 -38q-14 -79 -75 -126t-144 -47q-26 0 -59 3q-14 1 -32 2t-39 1l-66 -1q-16 -1 -44 -1q-4 0 -4 6t4 6q32 0 48.5 6t25 20.5t13.5 44.5l41 231h-328l-41 -235q-4 -26 -4 -32q0 -22 14.5 -28.5t54.5 -6.5q4 0 4 -6t-4 -6 q-30 0 -47 1l-68 1l-66 -1q-16 -1 -45 -1q-4 0 -4 6t4 6q33 0 50.5 6t26 20.5t13.5 44.5l81 463q4 17 4 33q0 21 -13.5 27.5t-51.5 6.5q-4 0 -4 6t4 6l46 -1q38 -2 62 -2q30 0 72 2l43 1q4 0 4 -6t-4 -6q-33 0 -51 -6.5t-26.5 -21.5t-14.5 -46l-35 -202h328l36 207 q4 26 4 32q0 22 -14 29.5t-54 7.5q-4 0 -4 6t4 6l44 -1q40 -2 69 -2q25 0 67 2l46 1q4 0 4 -6t-4 -6q-34 0 -51 -6t-25.5 -20.5t-14.5 -44.5l-36 -203q54 4 85 4q74 0 124.5 -33.5zM784 201q0 60 -32.5 89.5t-90.5 29.5q-32 0 -62 -3l-42 -238q-2 -16 -2 -22q0 -21 14.5 -31 t52.5 -10q73 0 109 35.5t48 101.5q5 30 5 48z" />
<glyph unicode="&#x40b;" horiz-adv-x="671" d="M628 6q0 -6 -4 -6q-19 0 -32 1l-60 1l-59 -1q-13 -1 -34 -1q-4 0 -4 6t4 6q34 0 47 14t20 57l23 129q7 34 7 60q0 45 -21 63t-62 18q-32 0 -70.5 -15.5t-77.5 -44.5l-38 -214q-4 -28 -4 -35q0 -20 11.5 -26t42.5 -6q4 0 4 -6t-4 -6q-26 0 -41 1l-58 1l-72 -1 q-18 -1 -48 -1q-4 0 -4 6t4 6q36 0 55 6t28.5 20.5t14.5 44.5l82 463q3 18 3 29q0 20 -11 25t-43 5q-48 0 -81 -35t-59 -111q-1 -3 -5 -3q-3 0 -5 2t-1 5q8 25 22.5 88t21.5 98q1 5 7 4.5t5 -5.5q-2 -13 12.5 -18t30.5 -5q73 -3 150 -3q53 0 111 2l57 1q32 0 47.5 5.5 t21.5 21.5q2 4 7.5 3t3.5 -5q-7 -26 -20.5 -89.5t-19.5 -100.5q-1 -4 -6 -4q-2 0 -4.5 1.5t-1.5 4.5q2 26 2 36q0 56 -23 81.5t-71 25.5q-31 0 -46 -5t-22 -18.5t-12 -42.5l-40 -222q98 78 187 78q51 0 82.5 -27.5t31.5 -84.5q0 -24 -4 -45l-28 -159q-4 -28 -4 -34 q0 -20 10.5 -26.5t39.5 -6.5q4 0 4 -6z" />
<glyph unicode="&#x40c;" horiz-adv-x="600" d="M633 619q0 -6 -4 -6q-45 0 -90 -28.5t-95 -85.5l-150 -168q26 -4 42.5 -18t30 -39.5t41.5 -88.5q33 -69 52 -101.5t42 -52t56 -19.5q4 0 4 -6t-4 -6h-123q-12 0 -19.5 8t-23 40.5t-56.5 123.5q-34 72 -47.5 96.5t-31 35.5t-50.5 11h-10l-41 -236q-4 -26 -4 -33 q0 -21 13.5 -27.5t52.5 -6.5q4 0 4 -6t-4 -6q-31 0 -48 1l-66 1l-64 -1q-16 -1 -45 -1q-4 0 -4 6t4 6q33 0 50 6t25.5 20.5t14.5 44.5l81 463q4 26 4 32q0 21 -13.5 28t-52.5 7q-3 0 -3 6t3 6l46 -1q38 -2 62 -2q27 0 69 2l45 1q4 0 4 -6t-4 -6q-33 0 -50 -6.5t-25.5 -21.5 t-13.5 -46l-37 -207q24 1 59 1h14l133 163q56 66 56 94q0 23 -39 23q-4 0 -4 6t4 6l40 -1q38 -2 65 -2q34 0 68 2l33 1q4 0 4 -6zM283 678q-4 0 -5.5 4.5t1.5 6.5q46 25 98 62q47 31 53 35q5 3 27.5 -4t40 -16t8.5 -10q-118 -30 -222 -78h-1z" />
<glyph unicode="&#x40d;" horiz-adv-x="702" d="M736 619q0 -6 -4 -6q-33 0 -50.5 -6t-26 -20.5t-13.5 -44.5l-81 -463q-4 -26 -4 -31q0 -22 14.5 -29t52.5 -7q4 0 4 -6t-4 -6q-31 0 -48 1l-63 1l-72 -1q-15 -1 -42 -1q-3 0 -3 6t3 6q35 0 52 6t25.5 20.5t13.5 44.5l70 400l-383 -378l-5 -26q-4 -26 -4 -32 q0 -22 14 -28.5t54 -6.5q4 0 4 -6t-4 -6q-29 0 -45 1l-69 1l-65 -1q-17 -1 -45 -1q-4 0 -4 6t4 6q33 0 50 6t25.5 20.5t13.5 44.5l82 463q3 18 3 31q0 22 -13.5 29t-51.5 7q-4 0 -4 6t4 6l47 -1q38 -2 60 -2q31 0 73 2l43 1q3 0 3 -6t-3 -6q-33 0 -50.5 -6.5t-26 -21.5 t-14.5 -46l-70 -397l384 377l4 25q4 26 4 32q0 22 -14 29.5t-54 7.5q-4 0 -4 6t4 6l44 -1q40 -2 69 -2q26 0 66 2l46 1q4 0 4 -6zM305 756q-9 2 8 11t40.5 16t27.5 4q34 -22 51 -34q66 -45 99 -64q3 -1 3 -4t-2 -5t-5 -1q-112 50 -222 77z" />
<glyph unicode="&#x40e;" horiz-adv-x="555" d="M638 619q0 -6 -3 -6q-24 0 -52 -22.5t-50 -59.5l-273 -468q-23 -39 -46 -57t-56 -18q-30 0 -48 13.5t-18 36.5t14.5 36.5t35.5 13.5q20 0 28.5 -11t13.5 -30q3 -11 6 -16.5t8 -5.5q15 0 41 44l36 62l-123 412q-13 40 -25.5 55t-39.5 15q-2 0 -2 6t2 6l33 -1q28 -2 54 -2 q43 0 83 2q13 1 33 1q3 0 3 -6t-3 -6q-31 0 -48.5 -10.5t-17.5 -32.5q0 -8 3 -19l100 -330l184 317q15 24 15 41q0 34 -61 34q-3 0 -3 6t3 6l39 -1q32 -2 56 -2q18 0 40 2l35 1q3 0 3 -6zM296 704.5q-35 26.5 -48 70.5q-2 6 15.5 11t34.5 5q11 0 13 -3q14 -34 40.5 -52.5 t63.5 -18.5q34 0 66.5 16.5t54.5 51.5q1 2 4 2q4 0 7.5 -2.5t2.5 -4.5q-28 -49 -71 -75.5t-94 -26.5q-54 0 -89 26.5z" />
<glyph unicode="&#x40f;" horiz-adv-x="682" d="M280 -79q0 43 -12 61.5t-38 18.5l-218 -1q-4 0 -4 6t4 6q33 0 50.5 6t26 20.5t13.5 44.5l82 463q4 26 4 32q0 21 -14 28t-53 7q-3 0 -3 6t3 6l47 -1q38 -2 60 -2q29 0 73 2l44 1q4 0 4 -6t-4 -6q-34 0 -51 -6t-25.5 -20.5t-13.5 -44.5l-81 -461q-5 -28 -5 -39 q0 -15 10 -18t47 -3h168q36 0 49 3.5t18 15t11 45.5l81 461q4 26 4 32q0 21 -14 28t-53 7q-4 0 -4 6t4 6l47 -1q40 -2 67 -2q24 0 64 2l45 1q4 0 4 -6t-4 -6q-33 0 -49.5 -6t-25 -20.5t-14.5 -44.5l-82 -463q-4 -20 -4 -37q0 -20 12.5 -25t53.5 -5q4 0 4 -6t-4 -6l-219 1 q-37 0 -61.5 -42t-43.5 -151q-1 -3 -5 -3q-3 0 -5.5 1.5t-1.5 3.5q12 70 12 111z" />
<glyph unicode="&#x410;" d="M570 6q0 -6 -4 -6q-15 0 -47 2q-36 2 -57 2q-22 0 -54 -2t-46 -2q-3 0 -3 6t3 6q35 0 49 9t14 33q0 14 -3 30l-40 235h-150l-103 -188q-29 -52 -29 -80q0 -22 17 -30.5t52 -8.5q4 0 3.5 -6t-4.5 -6q-12 0 -48 2q-40 2 -62 2q-21 0 -49 -2t-43 -2q-4 0 -4 6t4 6 q29 0 63.5 27.5t68.5 87.5l284 508q2 3 7 3q9 0 11 -5l95 -549q5 -31 10.5 -45t19 -20.5t41.5 -6.5q4 0 4 -6zM245 342h133l-32 185z" />
<glyph unicode="&#x411;" horiz-adv-x="513" d="M486.5 621.5q2.5 -3.5 1.5 -15.5l-15 -135q0 -3 -5.5 -3t-5.5 4q1 62 -23.5 97t-69.5 35h-47q-39 0 -54.5 -14t-23.5 -54l-33 -188q31 5 72 5q85 0 135 -32.5t50 -101.5q0 -17 -3 -37q-9 -54 -40.5 -96.5t-78.5 -66t-101 -23.5q-25 0 -58 3q-13 1 -31.5 2t-40.5 1l-65 -1 q-17 -1 -45 -1q-3 0 -3 6t3 6q32 0 49 6t25.5 20.5t13.5 44.5l82 463q3 18 3 31q0 22 -13 29t-50 7q-4 0 -4 6t4 6h361q8 0 10.5 -3.5zM207 326l-43 -247q-3 -12 -3 -22q0 -21 15 -31t52 -10q69 0 107 37t51 112q5 30 5 48q0 62 -34.5 89.5t-98.5 27.5q-15 0 -51 -4z" />
<glyph unicode="&#x412;" horiz-adv-x="534" d="M453.5 305.5q38.5 -38.5 38.5 -96.5q0 -14 -3 -31q-10 -50 -44.5 -91.5t-85 -66t-107.5 -24.5q-28 0 -63 3q-13 1 -30.5 2t-37.5 1l-64 -1q-16 -1 -45 -1q-3 0 -2.5 6t2.5 6q45 0 62.5 14t25.5 57l82 463q3 18 3 29q0 23 -13.5 30.5t-50.5 7.5q-3 0 -2.5 6t2.5 6l47 -1 q38 -2 60 -2q17 0 31.5 1t25.5 2q29 3 53 3q76 0 115 -28.5t39 -78.5q0 -14 -3 -29q-11 -48 -47 -84t-95 -57q68 -7 106.5 -45.5zM219 352l38 -1q67 0 108 39.5t53 102.5q4 16 4 34q0 40 -25.5 62.5t-77.5 22.5q-32 0 -46 -14t-21 -59zM413 205q0 58 -34 90t-102 33 q-25 1 -63 -2l-44 -247q-3 -13 -3 -24q0 -22 15.5 -31t56.5 -9q73 0 115 39.5t55 109.5q4 20 4 41z" />
<glyph unicode="&#x413;" horiz-adv-x="476" d="M8 6q0 6 4 6q33 0 50 6t25.5 20.5t13.5 44.5l82 463q3 18 3 31q0 22 -13 29t-49 7q-4 0 -4 6t4 6h389q10 0 8 -11l-23 -143q-1 -4 -6.5 -3.5t-5.5 4.5q4 62 -19.5 95.5t-72.5 33.5h-63q-38 0 -54.5 -13t-22.5 -47l-81 -458q-3 -16 -3 -29q0 -26 19.5 -34t75.5 -8 q4 0 4 -6t-4 -6q-38 0 -59 1l-83 1l-66 -1q-17 -1 -45 -1q-4 0 -4 6z" />
<glyph unicode="&#x414;" horiz-adv-x="628" d="M650 619q0 -6 -3 -6q-33 0 -50 -6t-25.5 -20.5t-14.5 -44.5l-81 -463q-1 -9 -3 -19t-2 -15q0 -10 7 -14.5t23 -5.5t55 -1q5 0 8 -1t3 -4q0 -1 -2 -11q-3 -17 -8 -34q-19 -68 -32 -140q-1 -4 -7 -3.5t-5 4.5q6 36 6 63q0 102 -89 102h-302q-123 0 -151 -167q-1 -4 -6.5 -3 t-4.5 5q14 75 16 140q2 28 5 42q1 5 5.5 6t13.5 1q70 0 126.5 88t93.5 206.5t54 219.5q2 16 2 23q0 26 -18 39t-63 13q-2 0 -2 6t2 6h446q3 0 3 -6zM491 582q0 15 -10 17.5t-46 2.5h-59q-27 0 -39 -7t-19.5 -28t-21.5 -80q-37 -155 -87.5 -284t-130.5 -179h250 q36 0 48.5 2.5t18 14t10.5 44.5l81 459q5 28 5 38z" />
<glyph unicode="&#x415;" horiz-adv-x="520" d="M516 616l-8 -54l-12 -73q0 -3 -5 -3q-2 0 -4.5 1.5t-2.5 2.5q4 53 -21 85.5t-71 32.5h-62q-31 0 -45.5 -5t-21.5 -18t-12 -42l-36 -206h132q41 0 62 16t28 56q0 3 6 3q2 0 4.5 -1.5t1.5 -3.5q-3 -22 -9 -46q-4 -15 -7 -36l-5 -31q-3 -31 -10 -65q-1 -4 -7 -3.5t-5 4.5 q3 15 3 27q0 30 -17 43.5t-52 13.5h-129l-41 -229q-3 -18 -3 -30q0 -21 12.5 -28.5t46.5 -7.5h83q44 0 86 36.5t68 96.5q2 3 7.5 2t3.5 -4q-18 -58 -32 -135q-2 -9 -5 -12t-11 -3h-409q-2 0 -2 6t2 6q31 0 46 5t22.5 19t13.5 45l81 463q4 17 4 33q0 21 -13 28.5t-47 7.5 q-3 0 -3 6t3 6h386q8 0 6 -9z" />
<glyph unicode="&#x416;" horiz-adv-x="909" d="M965 619q0 -6 -3 -6q-97 0 -197 -114l-151 -168q27 -3 43 -16.5t29 -38.5t42 -91q29 -67 47.5 -101.5t40 -53t51.5 -18.5q4 0 3.5 -6t-3.5 -6h-123q-11 0 -17.5 8t-24 50t-44.5 114q-26 67 -42 95t-35 38t-55 10q-9 0 -15 -1l-41 -235q-4 -19 -4 -33q0 -21 13.5 -27.5 t52.5 -6.5q4 0 4 -6t-4 -6q-30 0 -47 1l-66 1l-64 -1q-16 -1 -45 -1q-3 0 -3 6t3 6q33 0 50 6t25.5 20.5t14.5 44.5l41 231q-5 1 -14 1q-36 0 -58.5 -11t-47 -39t-78.5 -99q-65 -87 -90.5 -119t-35.5 -39.5t-21 -7.5h-121q-3 0 -2.5 6t2.5 6q31 1 60 20.5t59.5 54.5 t83.5 105q45 58 69.5 85.5t45.5 39.5t49 15l-89 170q-57 111 -156 111q-4 0 -4 6t4 6l34 -1q34 -2 65 -2q30 0 70 2l46 1q4 0 4 -6t-4 -6q-52 0 -52 -38q0 -28 30 -90l75 -152h11q12 0 68 -2l38 215q3 15 3 27q0 24 -15.5 32t-56.5 8q-4 0 -4 6t4 6l50 -1q40 -2 62 -2 q30 0 74 2l46 1q4 0 4 -6t-4 -6q-48 0 -67 -15t-27 -59l-37 -208l64 2h15l127 154q33 42 49 66.5t16 38.5q0 21 -40 21q-3 0 -3 6t3 6l49 -1q40 -2 68 -2q32 0 66 2l34 1q3 0 3 -6z" />
<glyph unicode="&#x417;" horiz-adv-x="468" d="M426 441q-23 -38 -59 -65.5t-73 -39.5q56 -5 89.5 -39.5t33.5 -88.5q0 -16 -3 -34q-9 -54 -44.5 -96.5t-87.5 -66t-109 -23.5q-38 0 -72.5 12t-53.5 28q-7 6 -9 10t-1 13l9 117q1 4 6.5 4t5.5 -4q-1 -54 17.5 -91t48.5 -55t66 -18q56 0 93 46.5t48 115.5q4 21 4 43 q0 57 -33 86.5t-96 29.5q-4 0 -4 6t4 6q69 0 110.5 39t53.5 109q4 20 4 41q0 46 -21 71.5t-58 25.5q-47 0 -94 -43t-78 -119q-1 -3 -4 -3q-2 0 -4.5 2t-1.5 5l34 122q5 15 7 18t10 6q76 25 141 25q72 0 108 -31.5t36 -82.5q0 -43 -23 -81z" />
<glyph unicode="&#x418;" horiz-adv-x="702" d="M736 619q0 -6 -4 -6q-33 0 -50.5 -6t-26 -20.5t-13.5 -44.5l-81 -463q-4 -26 -4 -31q0 -22 14.5 -29t52.5 -7q4 0 4 -6t-4 -6q-31 0 -48 1l-63 1l-72 -1q-15 -1 -42 -1q-3 0 -3 6t3 6q35 0 52 6t25.5 20.5t13.5 44.5l70 400l-383 -378l-5 -26q-4 -26 -4 -32 q0 -22 14 -28.5t54 -6.5q4 0 4 -6t-4 -6q-29 0 -45 1l-69 1l-65 -1q-17 -1 -45 -1q-4 0 -4 6t4 6q33 0 50 6t25.5 20.5t13.5 44.5l82 463q3 18 3 31q0 22 -13.5 29t-51.5 7q-4 0 -4 6t4 6l47 -1q38 -2 60 -2q31 0 73 2l43 1q3 0 3 -6t-3 -6q-33 0 -50.5 -6.5t-26 -21.5 t-14.5 -46l-70 -397l384 377l4 25q4 26 4 32q0 22 -14 29.5t-54 7.5q-4 0 -4 6t4 6l44 -1q40 -2 69 -2q26 0 66 2l46 1q4 0 4 -6z" />
<glyph unicode="&#x419;" horiz-adv-x="702" d="M736 619q0 -6 -4 -6q-33 0 -50.5 -6t-26 -20.5t-13.5 -44.5l-81 -463q-4 -26 -4 -31q0 -22 14.5 -29t52.5 -7q4 0 4 -6t-4 -6q-31 0 -48 1l-63 1l-72 -1q-15 -1 -42 -1q-3 0 -3 6t3 6q35 0 52 6t25.5 20.5t13.5 44.5l70 400l-383 -378l-5 -26q-4 -26 -4 -32 q0 -22 14 -28.5t54 -6.5q4 0 4 -6t-4 -6q-29 0 -45 1l-69 1l-65 -1q-17 -1 -45 -1q-4 0 -4 6t4 6q33 0 50 6t25.5 20.5t13.5 44.5l82 463q3 18 3 31q0 22 -13.5 29t-51.5 7q-4 0 -4 6t4 6l47 -1q38 -2 60 -2q31 0 73 2l43 1q3 0 3 -6t-3 -6q-33 0 -50.5 -6.5t-26 -21.5 t-14.5 -46l-70 -397l384 377l4 25q4 26 4 32q0 22 -14 29.5t-54 7.5q-4 0 -4 6t4 6l44 -1q40 -2 69 -2q26 0 66 2l46 1q4 0 4 -6zM348 704.5q-35 26.5 -48 70.5q-2 6 15.5 11t34.5 5q11 0 13 -3q14 -34 40.5 -52.5t63.5 -18.5q34 0 66.5 16.5t54.5 51.5q1 2 4 2 q4 0 7.5 -2.5t2.5 -4.5q-28 -49 -71 -75.5t-94 -26.5q-54 0 -89 26.5z" />
<glyph unicode="&#x41a;" horiz-adv-x="600" d="M633 619q0 -6 -4 -6q-45 0 -90 -28.5t-95 -85.5l-150 -168q26 -4 42.5 -18t30 -39.5t41.5 -88.5q33 -69 52 -101.5t42 -52t56 -19.5q4 0 4 -6t-4 -6h-123q-12 0 -19.5 8t-23 40.5t-56.5 123.5q-34 72 -47.5 96.5t-31 35.5t-50.5 11h-10l-41 -236q-4 -26 -4 -33 q0 -21 13.5 -27.5t52.5 -6.5q4 0 4 -6t-4 -6q-31 0 -48 1l-66 1l-64 -1q-16 -1 -45 -1q-4 0 -4 6t4 6q33 0 50 6t25.5 20.5t14.5 44.5l81 463q4 26 4 32q0 21 -13.5 28t-52.5 7q-3 0 -3 6t3 6l46 -1q38 -2 62 -2q27 0 69 2l45 1q4 0 4 -6t-4 -6q-33 0 -50 -6.5t-25.5 -21.5 t-13.5 -46l-37 -207q24 1 59 1h14l133 163q56 66 56 94q0 23 -39 23q-4 0 -4 6t4 6l40 -1q38 -2 65 -2q34 0 68 2l33 1q4 0 4 -6z" />
<glyph unicode="&#x41b;" horiz-adv-x="626" d="M-6 -3q-12 9 -12 26q0 25 12.5 34t33.5 9h19q51 0 100.5 71.5t87 179t55.5 210.5q4 24 4 33q0 27 -17 40t-60 13q-2 0 -2 6t2 6h440q2 0 2 -6t-2 -6q-34 0 -51.5 -6t-25.5 -20.5t-13 -44.5l-82 -463q-3 -18 -3 -31q0 -22 14 -29t53 -7q3 0 3 -6t-3 -6q-30 0 -47 1l-63 1 l-68 -1q-17 -1 -46 -1q-3 0 -3 6t3 6q33 0 50 6t25.5 20.5t13.5 44.5l80 457q6 27 6 39q0 15 -10 17.5t-46 2.5h-51q-27 0 -42 -5.5t-24.5 -22.5t-15.5 -53q-18 -102 -56.5 -224t-97.5 -214t-130 -92q-21 0 -33 9z" />
<glyph unicode="&#x41c;" horiz-adv-x="735" d="M769 619q0 -6 -2 -6q-39 0 -57.5 -13.5t-24.5 -53.5l-69 -465q-3 -18 -3 -30q0 -23 12.5 -31t47.5 -8q3 0 3 -6t-3 -6q-26 0 -41 1l-63 1l-61 -1q-16 -1 -44 -1q-3 0 -3 6t3 6q32 0 47 5t22.5 19.5t11.5 44.5l71 475l-284 -549q-2 -4 -7 -4q-6 0 -8 5l-112 534v1 l-77 -427q-4 -21 -4 -42q0 -62 53 -62q3 0 3 -6t-3 -6q-21 0 -32 1l-49 1l-44 -1q-12 -1 -36 -1q-3 0 -3 6t3 6q35 0 57 25.5t32 77.5l86 464q-21 34 -66 34q-3 0 -3 6t3 6q16 0 26 -1l32 -1q21 0 35 1t22 1q11 0 17 -10t13 -42l98 -457l249 484q6 11 15 18t19 7q7 0 20 -1 t30 -1l39 1q9 1 27 1q2 0 2 -6z" />
<glyph unicode="&#x41d;" horiz-adv-x="672" d="M703 619q0 -6 -3 -6q-30 0 -45 -5.5t-22.5 -19.5t-13.5 -44l-82 -463q-3 -19 -3 -31q0 -23 13 -30.5t48 -7.5q3 0 3 -6t-3 -6q-26 0 -41 1l-62 1l-62 -1q-16 -1 -45 -1q-2 0 -2 6t2 6q32 0 47 5t22.5 19t12.5 45l41 233h-303l-41 -233q-4 -26 -4 -33q0 -21 13 -28.5 t48 -7.5q3 0 3 -6t-3 -6q-27 0 -43 1l-64 1l-60 -1q-15 -1 -42 -1q-3 0 -3 6t3 6q31 0 46 5t23 19.5t13 44.5l82 463q4 26 4 32q0 22 -13 29.5t-48 7.5q-2 0 -2 6t2 6l43 -1q36 -2 59 -2t63 2l44 1q2 0 2 -6t-2 -6q-30 0 -45.5 -6t-23 -20.5t-13.5 -44.5l-36 -205h302 l36 205q4 26 4 34q0 22 -13 29.5t-47 7.5q-3 0 -3 6t3 6l43 -1q38 -2 61 -2q22 0 62 2l42 1q3 0 3 -6z" />
<glyph unicode="&#x41e;" horiz-adv-x="652" d="M162.5 20.5q-50.5 32.5 -76.5 89.5t-26 130q0 36 6 73q16 93 66.5 166.5t123 115t154.5 41.5q71 0 122.5 -32.5t78.5 -89t27 -128.5q0 -38 -7 -73q-17 -95 -69.5 -169.5t-126 -115t-152.5 -40.5q-70 0 -120.5 32.5zM467.5 79q59.5 65 81.5 181q10 49 10 98 q0 73 -22.5 130.5t-65.5 90.5t-101 33q-83 0 -142.5 -66t-80.5 -180q-9 -48 -9 -93q0 -73 22 -132t64.5 -93t101.5 -34q82 0 141.5 65z" />
<glyph unicode="&#x41f;" horiz-adv-x="693" d="M619 6q0 -6 -3 -6q-30 0 -46 1l-62 1l-70 -1q-16 -1 -44 -1q-4 0 -4 6t4 6q33 0 50 6t25 20.5t13 44.5l81 457q5 30 5 39q0 15 -9.5 17.5t-47.5 2.5h-179q-36 0 -49 -3.5t-18 -15t-11 -45.5l-80 -456q-4 -17 -4 -33q0 -21 14 -27.5t52 -6.5q5 0 5 -6t-5 -6q-29 0 -46 1 l-67 1l-66 -1q-16 -1 -45 -1q-4 0 -4 6t4 6q34 0 51.5 6t25.5 20.5t13 44.5l80 451q4 26 4 34q0 25 -14.5 35t-50.5 10q-3 0 -3 6t3 6q31 0 59 -1q118 -2 243 -2q122 0 272 3h29q3 0 3 -6t-3 -6q-47 0 -65.5 -19t-25.5 -64l-80 -451q-3 -18 -3 -31q0 -22 13.5 -29t52.5 -7 q3 0 3 -6z" />
<glyph unicode="&#x420;" horiz-adv-x="512" d="M11 6q0 6 2 6q31 0 46.5 5t23 19.5t13.5 44.5l81 463q4 17 4 33q0 21 -13 28.5t-47 7.5q-3 0 -3 6t3 6l42 -1q36 -2 60 -2l48 2q46 4 74 4q78 0 127 -35t49 -103q0 -11 -4 -37q-12 -63 -52.5 -106t-93 -64t-101.5 -21q-25 0 -41 5q-1 0 -1 3q0 4 2 9t4 4q13 -4 30 -4 q59 0 108.5 39.5t62.5 114.5q4 20 4 43q0 63 -33 99t-81 36q-30 0 -43.5 -4.5t-21 -18.5t-13.5 -46l-81 -461q-4 -26 -4 -33q0 -21 13 -28.5t48 -7.5q2 0 2 -6t-2 -6q-27 0 -43 1l-64 1l-60 -1q-16 -1 -43 -1q-2 0 -2 6z" />
<glyph unicode="&#x421;" horiz-adv-x="586" d="M120 60.5q-63 73.5 -63 183.5q0 30 7 72q17 95 73.5 168t135.5 112.5t161 39.5q41 0 82.5 -9t64.5 -24q6 -4 7.5 -8.5t0.5 -15.5l-12 -118q-1 -4 -6 -4t-5 4q-10 76 -54.5 113.5t-115.5 37.5q-62 0 -114 -32.5t-86.5 -92.5t-46.5 -141q-7 -41 -7 -84q0 -74 22 -133 t63.5 -92.5t96.5 -33.5t108.5 37.5t101.5 113.5q2 2 4 2q3 0 5 -2t1 -4l-29 -110q-3 -12 -6 -16.5t-12 -6.5q-87 -30 -179 -30q-135 0 -198 73.5z" />
<glyph unicode="&#x422;" horiz-adv-x="553" d="M130 6q0 6 3 6q35 0 52 5t25.5 19.5t14.5 44.5l81 463q3 18 3 30q0 19 -10 25.5t-37 6.5h-21q-55 0 -94.5 -37.5t-59.5 -110.5q0 -2 -4 -2q-3 0 -6 1.5t-2 2.5q9 27 24 90.5t21 96.5q1 3 7 2.5t5 -3.5q-3 -21 39 -21q74 -3 183 -3q51 0 113 2l63 1q30 0 45 5t21 20 q2 3 7 2.5t4 -4.5q-8 -29 -22.5 -96t-18.5 -92q-1 -3 -6.5 -2.5t-4.5 4.5q4 21 4 45q0 99 -99 99h-19q-34 0 -46 -12.5t-18 -51.5l-81 -461q-4 -26 -4 -32q0 -22 15.5 -29.5t57.5 -7.5q2 0 2 -6t-2 -6q-30 0 -47 1l-70 1l-67 -1q-17 -1 -48 -1q-3 0 -3 6z" />
<glyph unicode="&#x423;" horiz-adv-x="555" d="M638 619q0 -6 -3 -6q-24 0 -52 -22.5t-50 -59.5l-273 -468q-23 -39 -46 -57t-56 -18q-30 0 -48 13.5t-18 36.5t14.5 36.5t35.5 13.5q20 0 28.5 -11t13.5 -30q3 -11 6 -16.5t8 -5.5q15 0 41 44l36 62l-123 412q-13 40 -25.5 55t-39.5 15q-2 0 -2 6t2 6l33 -1q28 -2 54 -2 q43 0 83 2q13 1 33 1q3 0 3 -6t-3 -6q-31 0 -48.5 -10.5t-17.5 -32.5q0 -8 3 -19l100 -330l184 317q15 24 15 41q0 34 -61 34q-3 0 -3 6t3 6l39 -1q32 -2 56 -2q18 0 40 2l35 1q3 0 3 -6z" />
<glyph unicode="&#x424;" horiz-adv-x="698" d="M578.5 540.5q51.5 -29.5 77.5 -76t26 -101.5q0 -13 -4 -41q-11 -63 -55 -116.5t-111.5 -88.5t-147.5 -43l-8 -42q-2 -14 -2 -18q0 -22 18.5 -31t67.5 -9q3 0 3 -6t-3 -6q-35 0 -55 1l-76 1l-79 -1q-19 -1 -52 -1q-3 0 -3 6t3 6q57 0 79 14.5t28 48.5l6 36 q-109 7 -168.5 63.5t-59.5 142.5q0 20 5 47q12 72 58 125t112 83.5t141 38.5l5 29q3 15 3 25q0 23 -18 30t-68 7q-3 0 -3 6t3 6l57 -1q46 -2 73 -2q33 0 81 2l50 1q4 0 4 -6t-4 -6q-40 0 -61 -6.5t-30.5 -20.5t-14.5 -42l-4 -21q75 -4 126.5 -33.5zM602 388q0 74 -38 119.5 t-114 53.5l-84 -473q90 11 151 73.5t79 165.5q6 32 6 61zM144 265q0 -75 37.5 -121.5t112.5 -55.5l83 473q-92 -12 -151 -74t-77 -162q-5 -26 -5 -60z" />
<glyph unicode="&#x425;" horiz-adv-x="579" d="M625 619q0 -6 -5 -6q-62 0 -142 -100l-135 -170l100 -260q14 -39 34 -55t54 -16q4 0 4 -6t-4 -6q-23 0 -37 1l-50 1l-72 -1q-18 -1 -46 -1q-4 0 -4 6t4 6q50 0 50 25q0 7 -3 14l-88 230l-144 -184q-28 -35 -28 -57q0 -28 50 -28q4 0 4 -6t-4 -6q-28 0 -44 1l-66 1l-37 -1 q-11 -1 -35 -1q-4 0 -4 6t4 6q30 0 66.5 23.5t73.5 70.5l155 196l-92 240q-14 38 -32 54.5t-46 16.5q-4 0 -4 6t4 6l34 -1q22 -2 33 -2q31 0 75 2l46 1q4 0 4 -6t-4 -6q-44 0 -44 -24q0 -8 4 -16l80 -209l124 159q30 39 30 61q0 29 -49 29q-4 0 -4 6t4 6l43 -1q42 -2 68 -2 q15 0 37 2l33 1q5 0 5 -6z" />
<glyph unicode="&#x426;" horiz-adv-x="682" d="M563 -114q0 57 -20.5 85.5t-59.5 28.5h-471q-4 0 -4 6t4 6q33 0 50.5 6t26 20.5t13.5 44.5l82 463q4 26 4 32q0 21 -14 28t-53 7q-3 0 -3 6t3 6l48 -1q38 -2 60 -2q29 0 73 2l43 1q4 0 4 -6t-4 -6q-34 0 -51 -6t-25.5 -20.5t-13.5 -44.5l-81 -461q-5 -30 -5 -39 q0 -15 10 -18t46 -3h168q36 0 49 3.5t18.5 15t11.5 45.5l81 461q4 26 4 31q0 22 -14.5 29t-53.5 7q-4 0 -4 6t4 6l48 -1q40 -2 67 -2q25 0 65 2l45 1q4 0 4 -6t-4 -6q-33 0 -50 -6t-25.5 -20.5t-14.5 -44.5l-82 -463q-5 -25 -5 -35q0 -16 11.5 -19.5t47.5 -3.5q7 0 8.5 -1 t1.5 -5q0 -5 -1 -9l-7 -35q-7 -35 -30 -163q0 -2 -5 -2q-8 0 -7 4q7 39 7 76z" />
<glyph unicode="&#x427;" horiz-adv-x="586" d="M621 619q0 -6 -4 -6q-33 0 -50 -6t-25.5 -20.5t-14.5 -44.5l-82 -463q-3 -18 -3 -30q0 -23 14 -30t53 -7q4 0 4 -6t-4 -6q-30 0 -47 1l-61 1l-70 -1q-16 -1 -45 -1q-4 0 -4 6t4 6q34 0 51 6t25 20.5t13 44.5l40 230q-81 -67 -160 -67q-66 0 -104.5 35t-38.5 96q0 15 3 33 l24 136q4 26 4 32q0 21 -13 28t-48 7q-3 0 -3 6t3 6q21 0 32 -1q34 -2 71 -2q33 0 71 2q13 1 33 1q3 0 3 -6t-3 -6q-29 0 -44 -6.5t-22.5 -21.5t-12.5 -46l-17 -98q-6 -33 -6 -60q0 -55 23.5 -83t66.5 -28q34 0 68 14t74 47l37 213q4 28 4 34q0 21 -12 28t-44 7q-3 0 -3 6 t3 6l44 -1q36 -2 60 -2q25 0 65 2l44 1q4 0 4 -6z" />
<glyph unicode="&#x428;" horiz-adv-x="966" d="M8 6q0 6 4 6q33 0 50.5 6t26 20.5t13.5 44.5l82 463q4 26 4 32q0 21 -14 28t-53 7q-3 0 -2.5 6t2.5 6l47 -1q38 -2 60 -2q28 0 68 2l42 1q4 0 3.5 -6t-3.5 -6q-31 0 -46.5 -6t-23.5 -20.5t-13 -44.5l-81 -461q-5 -30 -5 -39q0 -15 10 -18t46 -3h125q34 0 48 4t19 15.5 t11 44.5l82 461q4 26 4 32q0 21 -13 28t-48 7q-4 0 -4 6t4 6q84 -3 105 -3q23 0 63 2l44 1q4 0 4 -6t-4 -6q-31 0 -47 -6t-24 -20.5t-13 -44.5l-81 -462q-4 -17 -4 -31q0 -20 12 -24t52 -4h117q35 0 48 3.5t18.5 15t11.5 45.5l80 461q4 19 4 34q0 20 -12.5 26.5t-47.5 6.5 q-4 0 -4 6t4 6l45 -1q38 -2 63 -2q24 0 64 2l45 1q4 0 4 -6t-4 -6q-33 0 -50 -6t-25.5 -20.5t-13.5 -44.5l-82 -463q-3 -18 -3 -30q0 -23 13.5 -30t52.5 -7q4 0 4 -6t-4 -6h-876q-4 0 -4 6z" />
<glyph unicode="&#x429;" horiz-adv-x="964" d="M11 0q-3 0 -3 6t3 6q33 0 50.5 6t26 20.5t13.5 44.5l82 463q3 18 3 31q0 22 -13.5 29t-52.5 7q-3 0 -3 6t3 6l46 -1q38 -2 61 -2q28 0 68 2l42 1q4 0 4 -6t-4 -6q-30 0 -46 -6t-24 -20.5t-13 -44.5l-82 -461q-5 -28 -5 -38q0 -16 10 -19t47 -3h125q34 0 48 4t19 15.5 t11 44.5l82 461q3 20 3 32q0 21 -12 28t-47 7q-4 0 -4 6t4 6l50 -1q40 -2 54 -2q25 0 63 2l45 1q3 0 3 -6t-3 -6q-31 0 -47.5 -6t-24.5 -20.5t-13 -44.5l-82 -462q-3 -18 -3 -30q0 -21 12 -25t51 -4h117q36 0 49 3.5t18.5 15t11.5 45.5l80 461q4 19 4 34q0 20 -12.5 26.5 t-47.5 6.5q-4 0 -4 6t4 6l44 -1q40 -2 63 -2q24 0 66 2l45 1q3 0 3 -6t-3 -6q-33 0 -50.5 -6t-26 -20.5t-14.5 -44.5l-81 -463q-5 -25 -5 -35q0 -16 11.5 -19.5t47.5 -3.5q5 0 7.5 -0.5t2.5 -4.5q0 -6 -1 -10l-7 -35q-7 -35 -30 -163q0 -2 -5 -2q-8 0 -7 4q7 39 7 76 q0 57 -20.5 85.5t-59.5 28.5h-754z" />
<glyph unicode="&#x42a;" horiz-adv-x="596" d="M515.5 315.5q50.5 -37.5 50.5 -109.5q0 -22 -4 -42q-15 -79 -75 -123.5t-143 -44.5q-26 0 -59 3q-13 1 -32 2t-40 1l-72 -1q-17 -1 -44 -1q-4 0 -3.5 6t3.5 6q35 0 53 6t27 20.5t14 44.5l82 463q4 28 4 33q0 17 -10.5 22t-39.5 5q-51 0 -91.5 -37.5t-59.5 -105.5 q0 -3 -5 -3q-4 0 19 92q20 88 21 96q1 5 6.5 4.5t4.5 -5.5q-2 -10 6 -16t31 -8q29 -1 159 -1q29 0 73 2l44 1q4 0 4 -6t-4 -6q-34 0 -51.5 -6.5t-26.5 -21.5t-14 -46l-34 -191q31 5 72 5q84 0 134.5 -37.5zM488 202q0 65 -35 96.5t-97 31.5q-15 0 -51 -4l-43 -247 q-2 -16 -2 -22q0 -21 14.5 -31t51.5 -10q74 0 109 33t47 98q6 30 6 55z" />
<glyph unicode="&#x42b;" horiz-adv-x="814" d="M424 316.5q51 -36.5 51 -109.5q0 -23 -4 -43q-14 -77 -73.5 -122.5t-145.5 -45.5q-24 0 -57 3q-13 1 -31.5 2t-40.5 1l-66 -1q-16 -1 -45 -1q-4 0 -4 6t4 6q33 0 49.5 6t25 20.5t14.5 44.5l81 463q3 20 3 31q0 22 -13 29t-50 7q-4 0 -4 6t4 6l46 -1q38 -2 59 -2 q31 0 73 2l45 1q3 0 3 -6t-3 -6q-34 0 -52 -6.5t-27 -21.5t-14 -46l-34 -191q33 5 72 5q83 0 134 -36.5zM398 202q0 64 -35 96t-97 32q-16 0 -52 -4l-43 -247q-2 -16 -2 -22q0 -21 14.5 -31t52.5 -10q75 0 109.5 34.5t46.5 96.5q6 30 6 55zM517 6q0 6 3 6q31 0 45.5 5t22 19 t12.5 45l82 463q4 26 4 32q0 22 -13.5 29.5t-47.5 7.5q-3 0 -3 6t3 6l43 -1q38 -2 60 -2q29 0 67 2l40 1q3 0 3 -6t-3 -6q-30 0 -45 -6t-22.5 -20.5t-13.5 -44.5l-82 -461q-4 -26 -4 -32q0 -22 13.5 -29.5t48.5 -7.5q2 0 2 -6t-2 -6q-26 0 -42 1l-64 1l-60 -1q-16 -1 -44 -1 q-3 0 -3 6z" />
<glyph unicode="&#x42c;" horiz-adv-x="506" d="M424 316.5q51 -36.5 51 -109.5q0 -23 -4 -43q-14 -77 -73.5 -122.5t-145.5 -45.5q-24 0 -57 3q-13 1 -31.5 2t-40.5 1l-66 -1q-16 -1 -45 -1q-4 0 -4 6t4 6q33 0 49.5 6t25 20.5t14.5 44.5l81 463q3 20 3 31q0 22 -13 29t-50 7q-4 0 -4 6t4 6l46 -1q38 -2 59 -2 q31 0 73 2l45 1q3 0 3 -6t-3 -6q-34 0 -52 -6.5t-27 -21.5t-14 -46l-34 -191q33 5 72 5q83 0 134 -36.5zM398 202q0 64 -35 96t-97 32q-16 0 -52 -4l-43 -247q-2 -16 -2 -22q0 -21 14.5 -31t52.5 -10q75 0 109.5 34.5t46.5 96.5q6 30 6 55z" />
<glyph unicode="&#x42d;" horiz-adv-x="565" d="M496 570.5q58 -65.5 58 -170.5q0 -31 -7 -75q-18 -102 -74 -178.5t-133.5 -117.5t-159.5 -41q-38 0 -82.5 10t-67.5 25q-8 5 -9.5 9t-0.5 14l10 121q0 3 5.5 3.5t6.5 -3.5q10 -74 57 -114t113 -40q98 0 161.5 76.5t87.5 211.5l2 12h-117q-61 0 -92.5 -22.5t-40.5 -73.5 q0 -3 -6 -3q-2 0 -4.5 1.5t-1.5 3.5q7 33 9 50l10 52q6 40 8 56q4 30 7 46q0 3 6 3q2 0 4.5 -1.5t1.5 -3.5q-1 -5 -1 -13q0 -34 26.5 -53t79.5 -19h114q4 31 4 65q0 103 -42 161t-116 58q-59 0 -115.5 -40t-101.5 -121q-2 -4 -6.5 -2.5t-3.5 5.5l33 119q1 4 3.5 10.5t5 9 t8.5 4.5q92 31 179 31q124 0 182 -65.5z" />
<glyph unicode="&#x42e;" horiz-adv-x="940" d="M822.5 601.5q50.5 -34.5 76.5 -92t26 -127.5q0 -32 -6 -67q-16 -90 -70.5 -165t-132 -118.5t-158.5 -43.5q-70 0 -121 33.5t-77.5 91.5t-26.5 132q0 33 6 69h-133l-41 -235q-3 -19 -3 -31q0 -22 14 -29t54 -7q4 0 4 -6t-4 -6q-30 0 -47 1l-68 1l-61 -1q-16 -1 -42 -1 q-4 0 -4 6t4 6q30 0 45.5 6t23 20.5t12.5 44.5l82 463q4 17 4 32q0 21 -12.5 28t-46.5 7q-4 0 -4 6t4 6l43 -1q36 -2 58 -2q31 0 73 2l42 1q5 0 5 -6t-5 -6q-33 0 -50.5 -6.5t-26 -22t-13.5 -45.5l-36 -202h134q22 95 79.5 163t132 102t145.5 34t121.5 -34.5zM837 384 q0 104 -47 166t-132 62q-90 0 -152.5 -72t-84.5 -197q-8 -43 -8 -93q0 -108 46 -174t126 -66q55 0 105 33.5t86.5 98t52.5 153.5q8 50 8 89z" />
<glyph unicode="&#x42f;" horiz-adv-x="548" d="M586.5 619q-0.5 -6 -3.5 -6q-33 0 -49.5 -6t-24 -20t-12.5 -45l-81 -463q-4 -19 -4 -34q0 -20 13.5 -26.5t52.5 -6.5q4 0 4 -6t-4 -6q-30 0 -47 1l-63 1l-66 -1q-16 -1 -44 -1q-4 0 -4 6t4 6q33 0 49.5 6t24 20.5t12.5 44.5l43 240q-28 -3 -51.5 -16.5t-52 -46.5 t-71.5 -95q-59 -84 -87 -118.5t-37.5 -40.5t-23.5 -6h-101q-4 0 -4 6t4 6q31 0 57.5 19t52.5 52.5t78 108.5q45 65 81.5 94t80.5 38q-75 7 -114 40t-39 86q0 51 27.5 91.5t74.5 63.5t104 23q22 0 51 -3q12 -1 27 -2t30 -1q27 0 65 2l44 1q4 0 3.5 -6zM428 563q0 29 -18 40.5 t-45 11.5q-53 0 -83 -30t-42 -90q-4 -28 -4 -39q0 -54 31.5 -85t94.5 -31q8 0 28 2l36 202q2 14 2 19z" />
<glyph unicode="&#x430;" horiz-adv-x="437" d="M414 78q3 0 5 -3.5t0 -5.5q-33 -39 -60 -58.5t-52 -19.5q-20 0 -29.5 12t-9.5 38q0 16 5 48l16 95q-43 -91 -99 -144t-109 -53q-30 0 -46.5 18.5t-16.5 56.5q0 9 2 29q10 69 53.5 141.5t102.5 119.5t111 47q42 0 68 -27q19 16 26 35q2 2 4 2q3 0 6 -1.5t2 -2.5l-58 -316 q-3 -15 -3 -27q0 -28 17 -28q21 0 62 43q1 1 3 1zM197.5 79q37.5 35 67 88t39.5 102q3 14 3 27q0 29 -15 46t-43 17q-34 0 -68 -27.5t-59 -75.5t-34 -108q-4 -32 -4 -42q0 -62 42 -62q34 0 71.5 35z" />
<glyph unicode="&#x431;" horiz-adv-x="425" d="M443.5 726.5q5.5 -1.5 4.5 -3.5q-15 -53 -31 -78.5t-38.5 -37.5t-68.5 -25q-70 -18 -114 -48.5t-78.5 -97.5t-61.5 -189q44 88 99.5 115.5t98.5 27.5q74 0 109.5 -45t35.5 -111q0 -24 -4 -43q-11 -60 -46 -107t-83 -72.5t-97 -25.5q-61 0 -99 43t-38 133q0 42 9 94 q23 140 63 222t91 120t120 55q55 16 83 30.5t39 41.5q1 3 6.5 1.5zM104 148q0 -66 25.5 -103.5t67.5 -37.5q41 0 75.5 42.5t48.5 120.5q6 35 6 65q0 64 -24.5 100.5t-67.5 36.5q-47 0 -80 -48t-45 -112q-6 -34 -6 -64z" />
<glyph unicode="&#x432;" horiz-adv-x="411" d="M342 267.5q-29 -31.5 -78 -48.5q45 -4 71 -28t26 -60q0 -31 -21.5 -65t-62 -57t-95.5 -23q-75 0 -113 42.5t-38 108.5q0 30 5 51q11 55 42.5 103.5t80.5 78t109 29.5q48 0 75.5 -19.5t27.5 -49.5q0 -31 -29 -62.5zM301 321q0 31 -16.5 46t-43.5 15q-49 0 -86 -47.5 t-50 -118.5q-6 -31 -6 -61q0 -65 27.5 -108t79.5 -43q44 0 66.5 29.5t22.5 72.5q0 38 -23.5 61t-68.5 23q-16 0 -46 -5h-1q-4 0 -6.5 2.5t-2.5 5.5q0 6 6 7q54 14 83 26t44.5 30.5t19.5 49.5q1 5 1 15z" />
<glyph unicode="&#x433;" horiz-adv-x="329" d="M50 5.5q-26 19.5 -26 52.5q0 8 1 13q7 37 36.5 67.5t74.5 58.5q47 30 67.5 51.5t25.5 52.5q1 4 1 11q0 22 -13 37.5t-40 15.5q-29 0 -55.5 -18t-52.5 -49l-2 -1q-3 0 -6 3t-2 5q35 47 77.5 70.5t87.5 23.5q31 0 54.5 -14.5t23.5 -42.5q0 -8 -1 -12q-6 -33 -31 -59 t-67 -55q-50 -33 -76 -59t-33 -66q-1 -3 -1 -10q0 -26 18.5 -44.5t49.5 -18.5q48 0 105 57q1 1 3 1q3 0 5.5 -2.5t1.5 -5.5q-32 -40 -76 -61t-87 -21q-37 0 -63 19.5z" />
<glyph unicode="&#x434;" horiz-adv-x="415" d="M356 639.5q43 -89.5 43 -226.5q0 -81 -13 -155q-23 -137 -80 -204.5t-138 -67.5q-71 0 -104 44t-33 109q0 27 4 47q16 95 75 150.5t136 55.5q49 0 86 -23q1 18 1 54q0 123 -31 202.5t-104 79.5q-29 0 -59 -16l-2 -1q-3 0 -5.5 4t-0.5 6q48 31 94 31q88 0 131 -89.5z M315 217q10 51 14 108q-18 24 -43 35.5t-53 11.5q-49 0 -83 -35t-46 -107q-5 -32 -5 -61q0 -67 22.5 -113t68.5 -46q88 0 125 207z" />
<glyph unicode="&#x435;" horiz-adv-x="347" d="M317 386.5q19 -12.5 19 -33.5q0 -47 -68.5 -85.5t-165.5 -55.5q-4 -24 -4 -52q0 -61 26.5 -98t77.5 -37q55 0 97 33h1q3 0 5.5 -3t0.5 -6q-71 -61 -149 -61q-66 0 -99 41t-33 106q0 22 5 50q10 52 43.5 101.5t83.5 81t106 31.5q35 0 54 -12.5zM259 337q0 17 -12.5 26 t-30.5 9q-41 0 -70 -40.5t-42 -105.5q138 26 153 98q2 10 2 13z" />
<glyph unicode="&#x436;" horiz-adv-x="678" d="M667 386.5q19 -13.5 19 -36.5q0 -16 -9 -26.5t-25 -10.5q-17 0 -24.5 8t-13.5 24q-5 13 -10.5 19.5t-16.5 6.5q-30 0 -52 -42.5t-33 -103.5q-8 -45 -8 -75q0 -58 20 -91t53 -33q35 0 70 35l2 1q3 0 6 -3.5t1 -5.5q-60 -67 -118 -67q-45 0 -67.5 39.5t-22.5 102.5 q0 30 4 55h-76l-31 -174q-3 -17 -40 -17q-25 0 -25 7q1 6 6.5 31t8.5 44l19 109h-76q-13 -63 -42 -107t-65 -66t-72 -22q-27 0 -45.5 16t-15.5 42q1 13 10.5 22.5t24.5 9.5q17 0 23.5 -8t13.5 -26q4 -13 9.5 -20.5t16.5 -7.5q29 0 51.5 42t34.5 103q8 40 8 82 q0 55 -17.5 86.5t-49.5 31.5q-37 0 -70 -35h-2q-3 0 -6 3t-1 5q58 66 118 66q43 0 64.5 -37t21.5 -96q0 -31 -6 -64h76l31 174q2 8 12 12.5t27 4.5q26 0 26 -7l-4 -21q-10 -43 -13 -62l-18 -101h76q13 63 42 107.5t64.5 66.5t70.5 23q26 0 45 -13.5z" />
<glyph unicode="&#x437;" horiz-adv-x="335" d="M268 257q-25 -30 -66 -44q41 -3 62.5 -24t21.5 -53q0 -6 -2 -20q-11 -55 -63 -91t-116 -36q-49 0 -75.5 18.5t-21.5 45.5q2 13 11 21t24 8q13 0 20.5 -8t15.5 -24q11 -18 24.5 -28t38.5 -10q38 0 57.5 29.5t19.5 73.5q0 39 -22 62.5t-65 23.5q-5 0 -5 6t5 6q82 3 94 74 q2 14 2 20q0 29 -16.5 45t-41.5 16q-72 0 -115 -87q0 -2 -3 -2t-6 2.5t-2 5.5l41 113q0 2 3 2t6.5 -2t2.5 -4q-1 -3 -1 -7q0 -6 3 -9.5t7 -3.5q3 0 33.5 12.5t67.5 12.5q38 0 62 -22t24 -57t-25 -65z" />
<glyph unicode="&#x438;" horiz-adv-x="468" d="M442 78q3 0 5 -3.5t0 -5.5q-35 -41 -63 -59.5t-55 -18.5q-20 0 -29 11t-9 36q0 16 5 46l20 114q-36 -100 -84.5 -155.5t-101.5 -55.5q-67 0 -67 76q0 19 7 56l36 178q3 15 3 25q0 30 -19 30q-10 0 -24.5 -11t-36.5 -32q-2 -2 -4 -2q-3 0 -5 3.5t1 6.5q35 40 61 59t52 19 q39 0 39 -49q0 -19 -6 -49l-32 -159q-6 -30 -6 -51q0 -55 40 -55q32 0 66 41t63.5 119t48.5 185q2 8 12 12.5t28 4.5q26 0 26 -7l-4 -20q-9 -43 -11 -55l-41 -223q-2 -9 -2 -25q0 -31 18 -31q12 0 29 11.5t37 32.5q1 1 3 1z" />
<glyph unicode="&#x439;" horiz-adv-x="468" d="M442 78q3 0 5 -3.5t0 -5.5q-35 -41 -63 -59.5t-55 -18.5q-20 0 -29 11t-9 36q0 16 5 46l20 114q-36 -100 -84.5 -155.5t-101.5 -55.5q-67 0 -67 76q0 19 7 56l36 178q3 15 3 25q0 30 -19 30q-10 0 -24.5 -11t-36.5 -32q-2 -2 -4 -2q-3 0 -5 3.5t1 6.5q35 40 61 59t52 19 q39 0 39 -49q0 -19 -6 -49l-32 -159q-6 -30 -6 -51q0 -55 40 -55q32 0 66 41t63.5 119t48.5 185q2 8 12 12.5t28 4.5q26 0 26 -7l-4 -20q-9 -43 -11 -55l-41 -223q-2 -9 -2 -25q0 -31 18 -31q12 0 29 11.5t37 32.5q1 1 3 1zM194.5 488.5q-28.5 25.5 -32.5 65.5 q-1 6 15.5 10.5t32.5 4.5q10 0 12 -3q8 -28 29 -44.5t48 -16.5q26 0 49 15t41 44q2 3 5 3q4 0 7.5 -2.5t2.5 -5.5q-20 -47 -56.5 -71.5t-80.5 -24.5t-72.5 25.5z" />
<glyph unicode="&#x43a;" horiz-adv-x="450" d="M422 74q4 0 6 -3.5t-1 -5.5q-35 -41 -56.5 -58.5t-46.5 -17.5q-31 0 -39.5 26.5t-8.5 88.5q0 50 -9 75t-41 25q-11 0 -26 -3q-27 -45 -48 -95.5t-31 -96.5q-2 -8 -12 -12.5t-27 -4.5q-27 0 -27 7l4 20q9 43 11 55l41 223q3 15 3 25q0 31 -19 31q-24 0 -66 -44 q-1 -1 -3 -1q-3 0 -5 3.5t0 5.5q34 40 63 59t56 19q20 0 29 -11.5t9 -36.5q0 -15 -5 -45l-30 -166q30 71 74.5 131t89.5 94.5t77 34.5q21 0 32.5 -12t9.5 -30q-2 -14 -12.5 -23.5t-26.5 -9.5q-13 0 -29 10q-14 7 -20 7q-25 0 -59 -32.5t-68 -86.5q25 7 48 7q44 0 60.5 -27 t16.5 -72q0 -53 4 -71.5t21 -18.5q20 0 58 36q1 1 3 1z" />
<glyph unicode="&#x43b;" horiz-adv-x="447" d="M-2.5 -0.5q-10.5 8.5 -10.5 24.5q0 20 14 29t36 9q30 0 50.5 19.5t34.5 48.5t31 78q23 62 41.5 99t50.5 63t80 26q27 0 41 -13t14 -42q0 -13 -3 -31l-39 -221q-2 -20 -2 -25q0 -30 18 -30q21 0 63 42q1 1 3 1q3 0 5 -3.5t0 -5.5q-33 -39 -60.5 -58t-54.5 -19 q-40 0 -40 51q0 17 5 47l35 204q2 9 2 24q0 30 -22 30q-30 0 -53 -23.5t-39 -59t-37 -92.5q-22 -59 -38.5 -95.5t-40.5 -61t-56 -24.5q-18 0 -28.5 8.5z" />
<glyph unicode="&#x43c;" horiz-adv-x="570" d="M554 78q3 0 5 -3.5t0 -5.5q-49 -48 -68.5 -63t-43.5 -15q-26 0 -34 20.5t-6 72.5l5 224l-152 -303q-3 -3 -8 -3q-7 0 -9 5l-64 288q-29 -125 -48 -187t-41.5 -89.5t-56.5 -27.5q-21 0 -31.5 11.5t-7.5 28.5q4 31 43 31q27 0 47 23.5t39.5 80t45.5 164.5q-14 32 -39 32 q-20 0 -36 -16q-2 -2 -4 -2q-3 0 -5.5 3t0.5 6q19 19 41 29.5t42 10.5q25 0 43 -14t24 -42l50 -243l137 275q5 11 11.5 15t22.5 4q12 0 17 -3.5t5 -12.5l-9 -283q-1 -28 3.5 -39t19.5 -11q13 0 25 8t34 30q1 1 3 1z" />
<glyph unicode="&#x43d;" horiz-adv-x="473" d="M449 79q4 0 6 -3.5t0 -6.5q-34 -40 -63 -58.5t-55 -18.5q-20 0 -29.5 11.5t-9.5 36.5q0 16 5 44l18 99h-169l-31 -174q-2 -8 -12 -12.5t-27 -4.5q-27 0 -27 7l4 20q9 43 11 55l41 223q3 15 3 25q0 31 -19 31q-24 0 -66 -44q-1 -1 -3 -1q-3 0 -5 3.5t0 5.5q34 40 63 59 t56 19q20 0 29 -11.5t9 -36.5q0 -15 -5 -45l-18 -99h169l31 175q2 8 12 12.5t27 4.5q27 0 27 -7l-4 -22q-10 -47 -11 -53l-41 -223q-3 -15 -3 -26q0 -30 20 -30q23 0 64 44q1 1 3 1z" />
<glyph unicode="&#x43e;" horiz-adv-x="401" d="M59.5 28.5q-33.5 42.5 -33.5 110.5q0 22 5 54q11 59 42.5 106t76.5 73.5t95 26.5q64 0 98.5 -41.5t34.5 -109.5q0 -26 -6 -55q-13 -63 -46.5 -110t-78.5 -72t-92 -25q-62 0 -95.5 42.5zM259.5 48q30.5 37 42.5 101q6 32 6 63q0 68 -24.5 115.5t-69.5 47.5q-38 0 -69 -37 t-43 -102q-7 -38 -7 -67q0 -67 25.5 -112.5t69.5 -45.5q39 0 69.5 37z" />
<glyph unicode="&#x43f;" horiz-adv-x="468" d="M446 79q3 0 5 -3.5t0 -6.5q-34 -40 -61 -59t-53 -19q-20 0 -29 11.5t-9 37.5q0 17 5 49l29 159q6 30 6 52q0 54 -39 54q-32 0 -66 -41t-64 -119t-49 -185q-2 -8 -12 -12.5t-27 -4.5q-27 0 -27 7l4 20q9 43 11 55l41 223q3 15 3 25q0 31 -19 31q-24 0 -66 -44q-1 -1 -3 -1 q-3 0 -5 3.5t0 5.5q34 40 63 59t56 19q20 0 29 -11.5t9 -36.5q0 -15 -5 -45l-20 -110q36 98 84 152.5t101 54.5q33 0 49.5 -19t16.5 -58q0 -23 -6 -55l-33 -178q-3 -15 -3 -25q0 -30 19 -30q10 0 25 11t37 32q2 2 3 2z" />
<glyph unicode="&#x440;" horiz-adv-x="406" d="M359.5 366.5q25.5 -26.5 25.5 -77.5q0 -16 -3 -36q-9 -67 -45.5 -125.5t-87.5 -93.5t-104 -35q-31 0 -52 3l-32 -180q-3 -17 -3 -28q0 -17 8 -24.5t25 -7.5q6 0 24 2q4 1 5.5 -4.5t-2.5 -6.5l-178 -28q-4 -1 -5 5t3 7q22 4 32 10.5t15 20.5t11 47l85 476q-6 -4 -46 -34 l-2 -1q-4 0 -6 4.5t1 6.5q27 24 57 45l13 74q0 2 17 14.5t30.5 27.5t17.5 33q1 4 6.5 3t4.5 -5l-18 -103q69 37 129 37q49 0 74.5 -26.5zM317 255q0 98 -83 98q-39 0 -82 -20l-52 -289q37 -16 76 -16q59 0 93.5 52t45.5 140q2 24 2 35z" />
<glyph unicode="&#x441;" horiz-adv-x="346" d="M59.5 32q-32.5 45 -32.5 112q0 30 6 58q11 59 45.5 104t80.5 69t91 24q36 0 62.5 -15.5t26.5 -41.5q0 -17 -10 -29t-29 -12q-31 0 -40 36q-11 38 -48 38q-42 0 -69 -38.5t-38 -102.5q-7 -40 -7 -66q0 -64 27 -103t81 -39q49 0 100 41l2 1q3 0 5.5 -4t0.5 -6 q-77 -71 -156 -71q-66 0 -98.5 45z" />
<glyph unicode="&#x442;" horiz-adv-x="679" d="M657 79q3 0 5 -3.5t-1 -6.5q-34 -40 -60.5 -59t-52.5 -19q-20 0 -29 11.5t-9 36.5q0 17 5 50l29 159q5 33 5 52q0 54 -35 54q-29 0 -60.5 -37.5t-60.5 -111t-48 -174.5l-4 -22q-1 -8 -11 -12.5t-28 -4.5q-26 0 -26 7q1 6 6.5 31t8.5 44l33 175q4 24 4 48q0 57 -35 57 q-29 0 -61.5 -40t-61.5 -116t-47 -178l-2 -11q-5 -17 -40 -17q-26 0 -26 7l5 23l10 49l41 226q3 15 3 25q0 31 -19 31q-24 0 -66 -44q-1 -1 -3 -1q-3 0 -5 3.5t0 5.5q34 40 63 59t56 19q20 0 29 -11.5t9 -36.5q0 -15 -5 -45l-18 -104q34 95 80.5 148t96.5 53q62 0 62 -77 q0 -22 -6 -54l-13 -71q35 96 81.5 149t96.5 53q61 0 61 -76q0 -24 -6 -56l-32 -178q-3 -15 -3 -26q0 -29 18 -29q10 0 25 11t37 32q2 2 4 2z" />
<glyph unicode="&#x443;" horiz-adv-x="446" d="M400 380q11 -16 11 -44q0 -79 -78.5 -230t-180.5 -269t-169 -118q-21 0 -34 9.5t-13 29.5l1 9q8 33 46 33q10 0 32 -2q20 -2 30 -2q33 0 55 17q29 19 76 83l1 52q0 190 -29.5 294.5t-80.5 104.5q-13 0 -26 -9t-22 -26q-1 -3 -6 -3q-7 0 -6 6q18 38 45 59t55 21 q41 0 70.5 -47t45 -128.5t15.5 -182.5q0 -35 -1 -53q41 64 72.5 126t40.5 95q5 25 5 40q0 21 -5 38t-14 37q-4 10 -7.5 19.5t-3.5 17.5q0 17 12 28t31 11q21 0 32 -16z" />
<glyph unicode="&#x444;" horiz-adv-x="582" d="M534.5 363q24.5 -36 24.5 -100q0 -28 -6 -63q-13 -70 -45.5 -118.5t-71.5 -71.5t-72 -23q-38 0 -66 37l-7 -45q-14 -97 -32.5 -151.5t-46.5 -78.5t-71 -24q-32 0 -50 12t-18 32q0 16 11 26.5t28 10.5t24.5 -9.5t12.5 -26.5q4 -13 8.5 -19.5t13.5 -6.5q11 0 18 15.5t15 58 t22 135.5l15 100q-72 -66 -127 -66q-41 0 -65.5 36t-24.5 100q0 29 6 63q13 70 45.5 118.5t71 71.5t71.5 23q39 0 68 -38l8 57q17 121 41.5 187.5t60 93.5t90.5 27q35 0 53 -13.5t18 -34.5q0 -17 -10 -27.5t-26 -10.5q-20 0 -26.5 9.5t-10.5 29.5q-3 16 -7 23.5t-16 7.5 q-34 0 -57.5 -65t-44.5 -206l-16 -105q71 65 126 65q41 0 65.5 -36zM244 75l36 245q-14 27 -32 42.5t-38 15.5q-36 0 -64.5 -47t-42.5 -126q-8 -50 -8 -82q0 -50 14.5 -76.5t39.5 -26.5q42 0 95 55zM489 262q0 50 -14.5 77t-39.5 27q-42 0 -95 -55l-36 -245q13 -27 31 -42.5 t38 -15.5q36 0 65 46.5t43 126.5q8 48 8 81z" />
<glyph unicode="&#x445;" horiz-adv-x="424" d="M402 380.5q17 -14.5 17 -34.5q0 -14 -9.5 -23.5t-24.5 -9.5q-16 0 -29 13q-12 10 -22 10q-19 0 -38 -27l-58 -86l41 -136q9 -30 20.5 -39.5t26.5 -9.5q27 0 61 37q1 1 3 1q4 0 6 -3.5t0 -6.5q-37 -39 -63.5 -57.5t-49.5 -18.5t-37 14t-26 51l-31 99l-57 -91 q-29 -46 -44 -59.5t-37 -13.5t-39.5 17t-15.5 38q2 12 11.5 19.5t22.5 7.5q10 0 16 -3t13 -9q5 -4 10.5 -7t12.5 -3q19 0 37 26l65 97l-37 119q-9 34 -21.5 45t-27.5 11q-25 0 -62 -37q-1 -1 -3 -1q-3 0 -5.5 3.5t0.5 5.5q36 39 63 57.5t50 18.5t38.5 -15t27.5 -55l25 -83 l52 81q28 45 43 58.5t37 13.5q21 0 38 -14.5z" />
<glyph unicode="&#x446;" horiz-adv-x="468" d="M396 -49q0 -17 5 -37q4 -24 4 -35q0 -7 -1 -11q-3 -20 -19.5 -43t-58.5 -52l-2 -1q-2 0 -4.5 3.5t-0.5 4.5q25 22 28 44q1 5 1 13q0 11 -4 33q-5 20 -5 38q0 7 2 21q3 19 12.5 36.5t29.5 43.5q-28 -18 -54 -18q-20 0 -29 11t-9 36q0 16 5 46l20 114 q-36 -100 -84.5 -155.5t-101.5 -55.5q-67 0 -67 76q0 19 7 56l36 178q3 15 3 25q0 30 -19 30q-10 0 -24.5 -11t-36.5 -32q-2 -2 -4 -2q-3 0 -5 3.5t1 6.5q35 40 61 59t52 19q39 0 39 -49q0 -19 -6 -49l-32 -159q-6 -30 -6 -51q0 -55 40 -55q32 0 66 41t63.5 119t48.5 185 q2 8 12 12.5t28 4.5q26 0 26 -7l-4 -20q-9 -43 -11 -55l-41 -223q-2 -9 -2 -25q0 -31 18 -31q24 0 65 44l2 1q3 0 5.5 -3.5t1.5 -5.5q-51 -74 -51 -118z" />
<glyph unicode="&#x447;" horiz-adv-x="428" d="M404 78q4 0 6 -3.5t-1 -5.5q-34 -41 -62.5 -59.5t-54.5 -18.5q-20 0 -29.5 11.5t-9.5 36.5q0 15 5 45l31 180q-29 -66 -68.5 -102.5t-80.5 -36.5q-29 0 -45 19t-16 57q0 23 6 53l8 43q3 17 3 27q0 28 -18 28q-9 0 -22 -9t-33 -26q-2 -2 -3 -2q-3 0 -5 3.5t0 6.5 q30 35 55.5 52.5t49.5 17.5q40 0 40 -49q0 -19 -6 -49l-4 -23q-7 -31 -7 -55q0 -48 35 -48q39 0 75 55.5t56 150.5q5 17 40 17q27 0 27 -7l-4 -20q-9 -43 -11 -55l-41 -223q-3 -15 -3 -25q0 -31 19 -31q11 0 28 11.5t37 32.5q1 1 3 1z" />
<glyph unicode="&#x448;" horiz-adv-x="679" d="M653 78q3 0 5 -3.5t0 -5.5q-34 -40 -63 -59t-56 -19q-20 0 -29 11.5t-9 36.5q0 15 5 45l18 104q-34 -95 -80.5 -148t-96.5 -53q-62 0 -62 77q0 23 6 54l13 71q-35 -96 -81.5 -149t-96.5 -53q-61 0 -61 76q0 25 6 56l32 178q3 15 3 26q0 29 -18 29q-10 0 -25 -11t-37 -32 q-2 -2 -4 -2q-3 0 -5 3.5t1 6.5q34 40 60.5 59t52.5 19q20 0 29 -11.5t9 -36.5q0 -17 -5 -50l-29 -159q-5 -33 -5 -52q0 -54 35 -54q29 0 60.5 37.5t60.5 111t48 174.5l4 22q1 8 11 12.5t28 4.5q26 0 26 -7q-1 -6 -6.5 -31t-8.5 -44l-33 -175q-4 -24 -4 -48q0 -57 35 -57 q29 0 61.5 40t61.5 116t47 178l2 11q5 17 40 17q26 0 26 -7l-5 -23l-10 -49l-41 -226q-3 -15 -3 -25q0 -31 19 -31q24 0 66 44q1 1 3 1z" />
<glyph unicode="&#x449;" horiz-adv-x="678" d="M608 -39q-1 -4 -1 -12q0 -16 5 -36q4 -24 4 -34q0 -8 -1 -11q-3 -20 -19.5 -43t-59.5 -52q0 -1 -0.5 -1h-0.5q-2 0 -4.5 3.5t-1.5 4.5q24 21 28 45q1 5 1 13q0 11 -4 33q-5 20 -5 38q0 27 9.5 47t35.5 53q-28 -18 -54 -18q-20 0 -29.5 11.5t-9.5 35.5q0 16 5 46l19 104 q-35 -95 -81 -148t-97 -53q-62 0 -62 76q0 24 6 55l12 66q-35 -94 -80.5 -145.5t-95.5 -51.5q-32 0 -47 19t-15 59q0 19 5 54l33 178q3 17 3 27q0 28 -17 28q-11 0 -26 -10.5t-37 -32.5q-2 -2 -3 -2q-3 0 -5.5 3.5t0.5 6.5q34 40 60.5 59t52.5 19q20 0 29.5 -11.5t9.5 -36.5 q0 -20 -6 -50l-29 -159q-5 -33 -5 -52q0 -28 8.5 -41t26.5 -13q28 0 60 37.5t60.5 110.5t47.5 174l4 23q2 8 12 12.5t28 4.5q26 0 26 -7q-1 -6 -6.5 -31t-8.5 -44l-32 -175q-5 -32 -5 -50q0 -55 35 -55q29 0 61 39t61 113t48 174l3 19q1 8 11 12.5t28 4.5q26 0 26 -7l-5 -23 l-10 -49l-41 -226q-2 -9 -2 -25q0 -31 18 -31q23 0 64 44l2 1q4 0 7 -3.5t1 -5.5q-45 -64 -50 -108z" />
<glyph unicode="&#x44a;" horiz-adv-x="382" d="M328 195.5q19 -18.5 19 -50.5q0 -37 -25 -74t-67.5 -61t-91.5 -24q-51 0 -73.5 25.5t-22.5 65.5q0 16 3 32q11 57 37.5 106t80.5 110q-3 -1 -8 -1q-21 0 -45 11q-15 6 -26 9t-26 3q-16 0 -26.5 -7t-22.5 -20h-1q-3 0 -5.5 2.5t-0.5 4.5q14 24 40 46t50 22q20 0 48 -12 q26 -11 43 -11q14 0 24.5 6t20.5 16l6 6l2 2q0 1 2 1t4 -3t1 -5q-7 -10 -21 -26q-78 -103 -103 -220q23 31 60 48t73 17q32 0 51 -18.5zM264.5 165.5q-13.5 17.5 -35.5 17.5q-27 0 -56 -23t-39 -66q-2 -16 -2 -23q0 -30 14 -48.5t40 -18.5q27 0 48 19.5t32.5 47t11.5 50.5 q0 27 -13.5 44.5z" />
<glyph unicode="&#x44b;" horiz-adv-x="578" d="M327.5 196.5q20.5 -17.5 20.5 -50.5q0 -37 -25 -74t-69 -61t-97 -24q-45 0 -67 16.5t-22 52.5q0 18 4 35l41 206q3 15 3 26q0 30 -19 30q-24 0 -64 -45q-2 -2 -4 -2q-3 0 -5 3.5t1 6.5q43 43 67.5 61t48.5 18q20 0 30 -12t10 -37q0 -16 -5 -44l-29 -148q22 28 55.5 44 t70.5 16q34 0 54.5 -17.5zM554 78q4 0 6 -3.5t-1 -5.5q-66 -78 -116 -78q-40 0 -40 53q0 10 4 40l52 293q1 8 11.5 12.5t28.5 4.5q26 0 26 -7l-4 -20q-9 -43 -11 -55l-40 -223q-3 -15 -3 -26q0 -30 19 -30q24 0 65 44q1 1 3 1zM264.5 168q-14.5 15 -36.5 15t-44 -14t-37 -41 t-15 -63q0 -30 15 -45.5t40 -15.5q28 0 49 20.5t32 49t11 51.5q0 28 -14.5 43z" />
<glyph unicode="&#x44c;" horiz-adv-x="383" d="M327.5 196.5q20.5 -17.5 20.5 -50.5q0 -37 -25 -74t-69 -61t-97 -24q-45 0 -67 16.5t-22 52.5q0 18 4 35l41 206q3 15 3 26q0 30 -19 30q-24 0 -64 -45q-2 -2 -4 -2q-3 0 -5 3.5t1 6.5q43 43 67.5 61t48.5 18q20 0 30 -12t10 -37q0 -16 -5 -44l-29 -148q22 28 55.5 44 t70.5 16q34 0 54.5 -17.5zM264.5 168q-14.5 15 -36.5 15t-44 -14t-37 -41t-15 -63q0 -30 15 -45.5t40 -15.5q28 0 49 20.5t32 49t11 51.5q0 28 -14.5 43z" />
<glyph unicode="&#x44d;" horiz-adv-x="374" d="M310.5 354q37.5 -45 37.5 -114q0 -27 -6 -56q-12 -59 -46.5 -104t-82 -69t-95.5 -24q-43 0 -71 15.5t-28 39.5q0 16 9 27t25 11q14 0 21 -7.5t16 -24.5q12 -20 25 -30.5t38 -10.5q45 0 76.5 40.5t42.5 104.5q4 20 5 30q-64 -1 -131 -10q-20 -2 -23 -2q-13 0 -19.5 8 t-4.5 19q2 9 9 15t17 6q9 0 24 -3q61 -11 129 -12q3 71 -26.5 115.5t-87.5 44.5q-47 0 -100 -44l-2 -1q-3 0 -5.5 3.5t-0.5 5.5q73 72 151 72q66 0 103.5 -45z" />
<glyph unicode="&#x44e;" horiz-adv-x="595" d="M537 357q34 -42 34 -109q0 -26 -6 -55q-12 -62 -45.5 -109t-77.5 -72.5t-89 -25.5q-60 0 -91 43t-31 110q0 22 3 44h-82l-31 -174q-2 -8 -12 -12.5t-27 -4.5q-27 0 -27 7l4 20q9 43 11 55l41 223q3 15 3 25q0 31 -19 31q-24 0 -66 -44q-1 -1 -3 -1q-3 0 -5 3.5t0 5.5 q34 40 63 59t56 19q20 0 29 -11.5t9 -36.5q0 -15 -5 -45l-18 -99h83q19 86 75.5 141t127.5 55q62 0 96 -42zM500 214q0 68 -24 114.5t-67 46.5q-38 0 -67 -37.5t-39 -101.5q-5 -33 -5 -61q0 -69 23.5 -116.5t64.5 -47.5q36 0 66 37t42 101q6 32 6 65z" />
<glyph unicode="&#x44f;" horiz-adv-x="410" d="M386 78q4 0 6 -3.5t-1 -5.5q-35 -41 -63 -59.5t-55 -18.5q-38 0 -38 47q0 24 5 46l20 107q-36 -2 -57.5 -14t-35.5 -33.5t-33 -65.5q-14 -31 -24.5 -48.5t-28.5 -28t-46 -10.5q-19 0 -56 8q-2 0 -2 3t2 5.5t4 1.5q4 -1 12 -1q27 0 43.5 22.5t35.5 66.5q39 81 120 93 q-56 6 -86 29.5t-30 58.5q0 56 57 87t147 31q35 0 50 -1.5t19.5 -6t2.5 -13.5l-52 -286q-3 -15 -3 -25q0 -31 19 -31q11 0 28 11.5t37 32.5q1 1 3 1zM290 363q0 11 -5 14.5t-17 3.5q-62 0 -93 -26t-31 -67q0 -35 23 -60.5t70 -25.5q7 0 25 2l20 108q8 40 8 51z" />
<glyph unicode="&#x450;" horiz-adv-x="347" d="M317 386.5q19 -12.5 19 -33.5q0 -47 -68.5 -85.5t-165.5 -55.5q-4 -24 -4 -52q0 -61 26.5 -98t77.5 -37q55 0 97 33h1q3 0 5.5 -3t0.5 -6q-71 -61 -149 -61q-66 0 -99 41t-33 106q0 22 5 50q10 52 43.5 101.5t83.5 81t106 31.5q35 0 54 -12.5zM259 337q0 17 -12.5 26 t-30.5 9q-41 0 -70 -40.5t-42 -105.5q138 26 153 98q2 10 2 13zM188 727q-1 5 13 5q16 0 36 -5.5t20 -10.5l-11 -240q0 -2 -5 -3t-5 2z" />
<glyph unicode="&#x451;" horiz-adv-x="347" d="M317 386.5q19 -12.5 19 -33.5q0 -47 -68.5 -85.5t-165.5 -55.5q-4 -24 -4 -52q0 -61 26.5 -98t77.5 -37q55 0 97 33h1q3 0 5.5 -3t0.5 -6q-71 -61 -149 -61q-66 0 -99 41t-33 106q0 22 5 50q10 52 43.5 101.5t83.5 81t106 31.5q35 0 54 -12.5zM259 337q0 17 -12.5 26 t-30.5 9q-41 0 -70 -40.5t-42 -105.5q138 26 153 98q2 10 2 13zM133 485.5q-13 12.5 -13 33.5t13 32.5t34 11.5q22 0 33.5 -11.5t11.5 -32.5q0 -22 -11.5 -34t-33.5 -12q-21 0 -34 12.5zM308 485q-12 12 -12 34q0 21 12 32.5t34 11.5q21 0 33 -11.5t12 -32.5q0 -22 -12 -34 t-33 -12q-22 0 -34 12z" />
<glyph unicode="&#x452;" horiz-adv-x="422" d="M378.5 366q20.5 -33 20.5 -94q0 -40 -9 -90q-14 -79 -53 -166t-91 -164t-105 -128l-2 -1q-4 0 -7.5 4t-1.5 7q64 68 117 185t74 235q10 56 10 100q0 98 -53 98q-32 0 -65.5 -40.5t-63 -118t-48.5 -184.5q-2 -8 -12 -12.5t-27 -4.5q-27 0 -27 7l4 20q9 43 11 55l79 426 h-56q-4 0 -4 10t4 10h60l17 90q2 9 2 23q0 28 -21 28q-16 0 -46 -15h-1q-4 0 -6 5t2 7l138 67h2q4 0 7 -3t2 -5l-36 -197h166q2 0 3.5 -3t1.5 -7t-1.5 -7t-3.5 -3h-169l-56 -306q36 97 83.5 151t100.5 54q40 0 60.5 -33z" />
<glyph unicode="&#x453;" horiz-adv-x="329" d="M50 5.5q-26 19.5 -26 52.5q0 8 1 13q7 37 36.5 67.5t74.5 58.5q47 30 67.5 51.5t25.5 52.5q1 4 1 11q0 22 -13 37.5t-40 15.5q-29 0 -55.5 -18t-52.5 -49l-2 -1q-3 0 -6 3t-2 5q35 47 77.5 70.5t87.5 23.5q31 0 54.5 -14.5t23.5 -42.5q0 -8 -1 -12q-6 -33 -31 -59 t-67 -55q-50 -33 -76 -59t-33 -66q-1 -3 -1 -10q0 -26 18.5 -44.5t49.5 -18.5q48 0 105 57q1 1 3 1q3 0 5.5 -2.5t1.5 -5.5q-32 -40 -76 -61t-87 -21q-37 0 -63 19.5zM212.5 472q-5.5 2 -3.5 4l87 240q2 5 24.5 10t39.5 5q13 0 12 -4l-153 -254q-1 -3 -6.5 -1z" />
<glyph unicode="&#x454;" horiz-adv-x="346" d="M312.5 383.5q26.5 -15.5 26.5 -41.5q0 -17 -10 -29t-29 -12q-31 0 -40 36q-11 38 -48 38q-42 0 -69 -38.5t-38 -102.5l-5 -30q62 1 126 10q20 2 22 2q13 0 19.5 -8t4.5 -19q-2 -9 -9 -15t-17 -6q-9 0 -22 3q-58 11 -125 12q-3 -70 23.5 -113.5t83.5 -43.5q49 0 100 41 l2 1q3 0 5.5 -4t0.5 -6q-77 -71 -156 -71q-66 0 -98.5 45t-32.5 112q0 30 6 58q11 59 45.5 104t80.5 69t91 24q36 0 62.5 -15.5z" />
<glyph unicode="&#x455;" horiz-adv-x="306" d="M36.5 6.5q-28.5 17.5 -28.5 41.5q0 18 10.5 28t25.5 10q11 0 18 -6.5t17 -22.5q11 -20 24 -31t36 -11q48 0 55 54q1 4 1 13q0 29 -16.5 50t-50.5 49q-33 27 -50 48t-17 50q0 32 19.5 59t52 42.5t68.5 15.5q39 0 64 -15t22 -38q-3 -15 -13 -23.5t-22 -8.5q-15 0 -23 7 t-17 21q-10 16 -20.5 24.5t-29.5 8.5t-31.5 -10t-14.5 -27q-1 -4 -1 -13q0 -27 16.5 -48t48.5 -48q35 -30 52.5 -52.5t17.5 -52.5t-19.5 -61t-53 -51t-74.5 -20q-38 0 -66.5 17.5z" />
<glyph unicode="&#x456;" horiz-adv-x="247" d="M68 40q0 21 6 49l41 208q3 15 3 26q0 30 -19 30q-11 0 -28 -11.5t-37 -32.5q-1 -1 -3 -1q-3 0 -5.5 3.5t0.5 5.5q66 78 117 78q20 0 29.5 -11.5t9.5 -35.5q0 -23 -5 -46l-41 -213q-3 -15 -3 -26q0 -29 18 -29q23 0 63 42q1 1 3 1q4 0 6 -3.5t-1 -5.5q-33 -39 -60.5 -58 t-53.5 -19q-40 0 -40 49zM137.5 521.5q-12.5 12.5 -12.5 34.5q0 21 12.5 33t34.5 12t34.5 -12t12.5 -33q0 -22 -12 -34.5t-35 -12.5q-22 0 -34.5 12.5z" />
<glyph unicode="&#x457;" horiz-adv-x="247" d="M68 40q0 21 6 49l41 208q3 15 3 26q0 30 -19 30q-11 0 -28 -11.5t-37 -32.5q-1 -1 -3 -1q-3 0 -5.5 3.5t0.5 5.5q66 78 117 78q20 0 29.5 -11.5t9.5 -35.5q0 -23 -5 -46l-41 -213q-3 -15 -3 -26q0 -29 18 -29q23 0 63 42q1 1 3 1q4 0 6 -3.5t-1 -5.5q-33 -39 -60.5 -58 t-53.5 -19q-40 0 -40 49zM60.5 485q-12.5 12 -12.5 34q0 21 12.5 32.5t34.5 11.5t33 -11.5t11 -32.5q0 -22 -11 -34t-33 -12t-34.5 12zM200.5 485q-11.5 12 -11.5 34q0 21 11.5 32.5t33.5 11.5q21 0 32.5 -11.5t11.5 -32.5q0 -22 -11.5 -34t-32.5 -12q-22 0 -33.5 12z" />
<glyph unicode="&#x458;" horiz-adv-x="242" d="M-77 -261q-19 14 -16 34q3 16 13.5 24.5t24.5 8.5q17 0 23 -9t10 -27q4 -15 8 -21.5t13 -6.5q13 0 22.5 18t18.5 58.5t24 125.5l61 353q3 15 3 25q0 31 -19 31q-24 0 -66 -44q-1 -1 -3 -1q-3 0 -5 3.5t0 5.5q35 41 63.5 59.5t55.5 18.5q20 0 29 -11.5t9 -36.5 q0 -15 -5 -45l-58 -334q-16 -95 -35 -147t-46 -74t-70 -22q-36 0 -55 14zM150.5 521.5q-12.5 12.5 -12.5 34.5q0 21 12.5 33t34.5 12t34.5 -12t12.5 -33q0 -22 -12 -34.5t-35 -12.5q-22 0 -34.5 12.5z" />
<glyph unicode="&#x459;" horiz-adv-x="587" d="M532.5 195.5q19.5 -18.5 19.5 -50.5q0 -37 -25 -74t-68.5 -61t-96.5 -24q-46 0 -67.5 16t-21.5 54q0 15 3 34l39 221q7 42 7 47q0 8 -4 10t-16 2q-52 0 -78.5 -29t-46.5 -103l-7 -25q-15 -60 -31 -105t-44.5 -81t-67.5 -36q-20 0 -30.5 10t-8.5 27q3 34 50 34 q46 0 71 47.5t43 117.5q17 67 36 101t51.5 48.5t90.5 14.5q38 0 49 -2t11 -11l-2 -14l-39 -215q23 31 59.5 48t72.5 17q32 0 51.5 -18.5zM469 166q-14 17 -36 17q-26 0 -55 -23t-39 -66q-3 -15 -3 -28q0 -31 14.5 -47t40.5 -16q27 0 48 20t32.5 48t11.5 51q0 27 -14 44z" />
<glyph unicode="&#x45a;" horiz-adv-x="613" d="M559 196q19 -18 19 -50q0 -37 -25 -74.5t-68.5 -61.5t-96.5 -24q-45 0 -66.5 16.5t-21.5 53.5q0 15 3 34l17 93h-168l-31 -174q-2 -8 -12 -12.5t-27 -4.5q-27 0 -27 7l4 20q9 43 11 55l41 223q3 15 3 25q0 31 -19 31q-24 0 -66 -44q-1 -1 -3 -1q-3 0 -5 3.5t0 5.5 q34 40 63 59t56 19q20 0 29 -11.5t9 -36.5q0 -15 -5 -45l-18 -99h168l32 175q2 8 12 12.5t27 4.5q27 0 27 -7l-4 -22q-10 -47 -11 -53l-31 -163q23 30 59.5 47t72.5 17q33 0 52 -18zM495.5 166q-13.5 17 -35.5 17q-27 0 -56 -23t-39 -66q-3 -15 -3 -28q0 -31 14.5 -47 t40.5 -16q27 0 48 20t32.5 48t11.5 51q0 27 -13.5 44z" />
<glyph unicode="&#x45b;" horiz-adv-x="443" d="M426 79q3 0 5.5 -3.5t-0.5 -6.5q-34 -40 -61 -59t-53 -19q-20 0 -29 11.5t-9 37.5q0 17 5 49l29 159q6 30 6 52q0 54 -39 54q-32 0 -66 -41t-64 -119t-49 -185q-2 -8 -12 -12.5t-27 -4.5q-27 0 -27 7l4 20q9 43 11 55l79 426h-56q-4 0 -4 10t4 10h60l17 90q2 9 2 23 q0 28 -21 28q-16 0 -46 -15h-1q-4 0 -6 5t2 7l138 67h2q4 0 7 -3t2 -5l-36 -197h166q2 0 3.5 -3t1.5 -7t-1.5 -7t-3.5 -3h-169l-56 -306q36 97 83.5 151t100.5 54q33 0 49 -18.5t16 -58.5q0 -29 -5 -55l-33 -178q-3 -15 -3 -25q0 -30 19 -30q10 0 25 11t37 32q2 2 3 2z" />
<glyph unicode="&#x45c;" horiz-adv-x="450" d="M422 74q4 0 6 -3.5t-1 -5.5q-35 -41 -56.5 -58.5t-46.5 -17.5q-31 0 -39.5 26.5t-8.5 88.5q0 50 -9 75t-41 25q-11 0 -26 -3q-27 -45 -48 -95.5t-31 -96.5q-2 -8 -12 -12.5t-27 -4.5q-27 0 -27 7l4 20q9 43 11 55l41 223q3 15 3 25q0 31 -19 31q-24 0 -66 -44 q-1 -1 -3 -1q-3 0 -5 3.5t0 5.5q34 40 63 59t56 19q20 0 29 -11.5t9 -36.5q0 -15 -5 -45l-30 -166q30 71 74.5 131t89.5 94.5t77 34.5q21 0 32.5 -12t9.5 -30q-2 -14 -12.5 -23.5t-26.5 -9.5q-13 0 -29 10q-14 7 -20 7q-25 0 -59 -32.5t-68 -86.5q25 7 48 7q44 0 60.5 -27 t16.5 -72q0 -53 4 -71.5t21 -18.5q20 0 58 36q1 1 3 1zM256.5 472q-5.5 2 -3.5 4l87 240q2 5 24.5 10t39.5 5q13 0 12 -4l-153 -254q-1 -3 -6.5 -1z" />
<glyph unicode="&#x45d;" horiz-adv-x="468" d="M442 78q3 0 5 -3.5t0 -5.5q-35 -41 -63 -59.5t-55 -18.5q-20 0 -29 11t-9 36q0 16 5 46l20 114q-36 -100 -84.5 -155.5t-101.5 -55.5q-67 0 -67 76q0 19 7 56l36 178q3 15 3 25q0 30 -19 30q-10 0 -24.5 -11t-36.5 -32q-2 -2 -4 -2q-3 0 -5 3.5t1 6.5q35 40 61 59t52 19 q39 0 39 -49q0 -19 -6 -49l-32 -159q-6 -30 -6 -51q0 -55 40 -55q32 0 66 41t63.5 119t48.5 185q2 8 12 12.5t28 4.5q26 0 26 -7l-4 -20q-9 -43 -11 -55l-41 -223q-2 -9 -2 -25q0 -31 18 -31q12 0 29 11.5t37 32.5q1 1 3 1zM218 727q-1 5 13 5q16 0 36 -5.5t20 -10.5 l-11 -240q0 -2 -5 -3t-5 2z" />
<glyph unicode="&#x45e;" horiz-adv-x="446" d="M400 380q11 -16 11 -44q0 -79 -78.5 -230t-180.5 -269t-169 -118q-21 0 -34 9.5t-13 29.5l1 9q8 33 46 33q10 0 32 -2q20 -2 30 -2q33 0 55 17q29 19 76 83l1 52q0 190 -29.5 294.5t-80.5 104.5q-13 0 -26 -9t-22 -26q-1 -3 -6 -3q-7 0 -6 6q18 38 45 59t55 21 q41 0 70.5 -47t45 -128.5t15.5 -182.5q0 -35 -1 -53q41 64 72.5 126t40.5 95q5 25 5 40q0 21 -5 38t-14 37q-4 10 -7.5 19.5t-3.5 17.5q0 17 12 28t31 11q21 0 32 -16zM176 497.5q-25 23.5 -25 66.5q0 6 17.5 11t32.5 5q11 0 11 -3q3 -29 20 -45t41 -16q20 0 40 14.5 t34 42.5q3 3 7 3q3 0 6 -2t2 -5q-20 -45 -55 -70t-69 -25q-37 0 -62 23.5z" />
<glyph unicode="&#x45f;" horiz-adv-x="468" d="M442 78q3 0 5 -3.5t0 -5.5q-35 -41 -63 -59.5t-55 -18.5q-20 0 -29 11t-9 36q0 16 5 46l20 114q-36 -100 -84.5 -155.5t-101.5 -55.5q-67 0 -67 76q0 19 7 56l36 178q3 15 3 25q0 30 -19 30q-10 0 -24.5 -11t-36.5 -32q-2 -2 -4 -2q-3 0 -5 3.5t1 6.5q35 40 61 59t52 19 q39 0 39 -49q0 -19 -6 -49l-32 -159q-6 -30 -6 -51q0 -55 40 -55q32 0 66 41t63.5 119t48.5 185q2 8 12 12.5t28 4.5q26 0 26 -7l-4 -20q-9 -43 -11 -55l-41 -223q-2 -9 -2 -25q0 -31 18 -31q12 0 29 11.5t37 32.5q1 1 3 1zM255 19q3 0 5.5 -2.5t0.5 -5.5q-12 -17 -17 -31.5 t-5 -32.5q0 -19 5 -41q4 -22 4 -34q0 -7 -1 -11q-10 -48 -79 -95h-1q-3 0 -5 3t0 5q24 22 28 45q1 4 1 12q0 10 -4 34q-5 20 -5 38q0 30 14 51.5t56 63.5q1 1 3 1z" />
<glyph unicode="&#x462;" horiz-adv-x="605" d="M510 320.5q50 -32.5 50 -101.5q0 -17 -3 -37q-10 -54 -41.5 -96.5t-78 -66t-100.5 -23.5q-24 0 -59 3q-12 1 -30.5 2t-41.5 1l-64 -1q-17 -1 -46 -1q-4 0 -4 6t4 6q33 0 49.5 6t25 20.5t13.5 44.5l93 522h-48q-51 0 -86 -35t-63 -113q0 -3 -4 -3q-3 0 -5.5 2t-1.5 4 q11 36 26 95.5t21 92.5q1 5 6 4t4 -6q-2 -14 11 -17.5t33 -3.5l110 -3l4 25q3 20 3 31q0 22 -13 28.5t-50 6.5q-4 0 -4 6t4 6q29 0 45 -1l59 -1l74 1q16 1 44 1q3 0 3 -6t-3 -6q-34 0 -51.5 -6.5t-26.5 -21.5t-14 -45l-3 -18l29 1q40 2 76 2q35 0 50.5 4.5t21.5 19.5 q1 4 6 4q7 0 6 -7q-8 -27 -35 -156l-7 -32q0 -4 -5 -4q-2 0 -4.5 1.5t-2.5 4.5q3 26 3 45q0 56 -22.5 78t-75.5 22h-43l-46 -257q32 5 72 5q86 0 136 -32.5zM482 214q0 116 -133 116q-16 0 -50 -4l-44 -247q-2 -16 -2 -21q0 -22 14.5 -32t52.5 -10q68 0 106 37.5t51 111.5 q5 30 5 49z" />
<glyph unicode="&#x463;" horiz-adv-x="596" d="M542 196q19 -18 19 -49q0 -37 -25 -74.5t-68.5 -62t-96.5 -24.5q-44 0 -65 16.5t-21 53.5q0 8 4 34l29 158q7 37 7 54q0 27 -10 39.5t-31 12.5q-44 0 -87.5 -85t-70.5 -233l-5 -27q-2 -8 -12 -12.5t-27 -4.5q-27 0 -27 7l4 20q9 43 11 55l41 223q3 15 3 25q0 31 -19 31 q-24 0 -66 -44q-1 -1 -3 -1q-3 0 -5 3.5t0 5.5q34 40 63 59t56 19q20 0 29 -11.5t9 -36.5q0 -15 -5 -45l-16 -91q32 91 74 139.5t91 48.5q65 0 65 -78q0 -22 -6 -54l-22 -117q23 30 59.5 47t71.5 17q33 0 52 -18zM478.5 166q-13.5 17 -35.5 17q-28 0 -56.5 -23t-38.5 -66 q-3 -15 -3 -28q0 -31 14.5 -47t40.5 -16q27 0 48 20t32.5 48t11.5 51q0 27 -13.5 44z" />
<glyph unicode="&#x46a;" horiz-adv-x="835" d="M868.5 619q-0.5 -6 -3.5 -6q-41 0 -89 -28t-110 -86l-178 -166h47q47 0 67.5 -8.5t34.5 -36.5t39 -103q32 -95 56.5 -133.5t62.5 -39.5q2 0 2 -4q0 -8 -3 -8h-108q-9 0 -16 8.5t-20.5 44.5t-39.5 119q-23 69 -35.5 95.5t-30.5 37t-54 10.5h-16l-41 -236q-4 -26 -4 -32 q0 -22 13.5 -28.5t52.5 -6.5q2 0 2 -6t-2 -6q-30 0 -46 1l-63 1l-65 -1q-17 -1 -46 -1q-2 0 -1.5 6t2.5 6q33 0 50 6t25 20.5t13 44.5l41 232h-16q-36 0 -57.5 -11t-43 -38t-70.5 -100q-59 -87 -82 -119t-32.5 -39.5t-20.5 -7.5h-108q-2 0 -1.5 6t2.5 6q26 0 51.5 18 t54.5 55.5t76 106.5q46 67 71 94.5t50 37t72 9.5h47l-129 169q-46 60 -77.5 85.5t-71.5 25.5q-2 0 -1.5 6t2.5 6h745q3 0 2.5 -6zM677.5 565.5q12.5 14.5 12.5 22.5q0 7 -9 10t-31 3h-318q-30 0 -43 -5t-13 -17q0 -18 29 -61l126 -185h23l180 187q31 31 43.5 45.5z" />
<glyph unicode="&#x46b;" horiz-adv-x="609" d="M615 380q0 -6 -3 -6q-30 0 -86.5 -32.5t-110.5 -76.5l-71 -56q18 1 46 1q32 0 48 -7t26 -26.5t24 -64.5q2 -8 13 -41t26 -46t38 -13q3 0 3 -6t-3 -6h-96q-9 0 -20 23t-23 77q-10 40 -20 59t-26 26t-45 6l-32 -182q-1 -8 -11.5 -12.5t-28.5 -4.5q-25 0 -25 7q1 5 6.5 29.5 t8.5 45.5l21 117q-30 0 -49 -7.5t-36 -28.5t-41 -63q-51 -92 -76 -92h-95q-3 0 -3 6t3 6q34 0 57 24t59 84q24 40 40 59t33.5 26t45.5 7l31 -1q18 -2 28 -2l-49 59q-38 44 -83 75t-75 31q-3 0 -3 6t3 6h548q3 0 3 -6zM445 321q15 18 15 28q0 16 -42 16h-166q-50 0 -50 -25 q0 -20 35 -65l53 -67l17 -1l17 1l74 67q32 28 47 46z" />
<glyph unicode="&#x472;" horiz-adv-x="652" d="M162.5 20.5q-50.5 32.5 -76.5 89.5t-26 130q0 36 6 73q16 93 66.5 166.5t123 115t154.5 41.5q71 0 122.5 -32.5t78.5 -89t27 -128.5q0 -38 -7 -73q-17 -95 -69.5 -169.5t-126 -115t-152.5 -40.5q-70 0 -120.5 32.5zM467.5 79q59.5 65 81.5 181q10 49 10 98 q0 73 -22.5 130.5t-65.5 90.5t-101 33q-83 0 -142.5 -66t-80.5 -180q-9 -48 -9 -93q0 -73 22 -132t64.5 -93t101.5 -34q82 0 141.5 65zM193 271q-2 0 -4 3t-1 5q24 31 49.5 52.5t56.5 21.5q11 0 27 -4.5t32 -9.5q27 -9 44.5 -13t35.5 -4q25 0 39.5 8t30.5 25h1q3 0 5 -2.5 t1 -4.5q-33 -44 -53.5 -59t-46.5 -15t-69 15q-48 16 -76 16q-23 0 -34.5 -5.5t-21.5 -14.5t-14 -13q0 -1 -2 -1z" />
<glyph unicode="&#x473;" horiz-adv-x="423" d="M61.5 28.5q-35.5 42.5 -35.5 110.5q0 32 5 54q12 60 45.5 106.5t81.5 73t102 26.5q67 0 103 -41t36 -109q0 -26 -6 -56q-13 -64 -48.5 -111t-83 -71.5t-97.5 -24.5q-67 0 -102.5 42.5zM276.5 48q33.5 37 46.5 101q7 32 7 67q0 68 -27.5 113.5t-76.5 45.5 q-44 0 -77.5 -37.5t-46.5 -101.5q-7 -32 -7 -68q0 -68 28 -112.5t76 -44.5q44 0 77.5 37zM115 154q-2 0 -4.5 2.5t-1.5 4.5q44 71 80 71q11 0 31 -11q26 -14 44 -14q14 0 24 6t23 20h1q3 0 5 -2.5t1 -4.5q-26 -40 -42.5 -54.5t-34.5 -14.5q-11 0 -22 5t-14 6q-22 13 -41 13 q-15 0 -23.5 -5.5t-15 -12l-9.5 -9.5h-1z" />
<glyph unicode="&#x474;" horiz-adv-x="609" d="M683.5 620q11.5 -16 8.5 -38q-4 -20 -14.5 -29.5t-24.5 -9.5q-11 0 -18 4t-14 11q-5 6 -10 9t-14 3q-18 0 -39 -28.5t-53.5 -94t-112.5 -234.5l-101 -212q-1 -5 -11 -5q-9 0 -10 4l-132 543q-10 38 -23.5 54t-37.5 16q-3 0 -3 6t3 6l34 -1q28 -2 46 -2q43 0 85 2 q14 1 36 1q5 0 5 -6t-5 -6q-31 0 -48.5 -13t-17.5 -39q0 -11 3 -23l104 -425l34 73q100 213 143.5 297t75 118.5t69.5 34.5q31 0 42.5 -16z" />
<glyph unicode="&#x475;" horiz-adv-x="438" d="M449.5 384q10.5 -11 8.5 -27q-1 -14 -11.5 -24t-27.5 -10q-10 0 -22 6q-15 5 -22 5q-12 0 -24.5 -10t-30.5 -48l-130 -273q-5 -8 -31 -8q-23 0 -23 8l-6 289q-1 36 -8.5 47.5t-20.5 11.5q-26 0 -65 -40q-1 -1 -3 -1q-3 0 -5.5 3.5t0.5 5.5q34 39 61 57.5t51 18.5 q50 0 51 -70l5 -264l105 223q53 111 116 111q22 0 32.5 -11z" />
<glyph unicode="&#x48a;" horiz-adv-x="698" d="M736 619q0 -6 -4 -6q-33 0 -50.5 -6t-26 -20.5t-13.5 -44.5l-81 -463q-6 -31 -6 -45q0 -15 10.5 -18.5t47.5 -3.5q5 0 7.5 -3.5t0.5 -8.5q-1 -4 -30 -39t-100 -158q0 -1 -3 -1t-5.5 2.5t-1.5 5.5q61 100 61 145q0 24 -17.5 34.5t-53.5 10.5h-73q-2 0 -2 6t2 6q35 0 52 6 t25.5 20.5t14.5 44.5l70 400l-383 -378l-5 -26q-4 -26 -4 -32q0 -22 14 -28.5t54 -6.5q4 0 4 -6t-4 -6q-29 0 -45 1l-69 1l-65 -1q-17 -1 -45 -1q-4 0 -4 6t4 6q33 0 50 6t25.5 20.5t13.5 44.5l82 463q3 18 3 31q0 22 -13.5 29t-51.5 7q-4 0 -4 6t4 6l47 -1q38 -2 60 -2 q31 0 73 2l43 1q3 0 3 -6t-3 -6q-33 0 -50.5 -6.5t-26 -21.5t-14.5 -46l-70 -397l384 377l4 25q4 26 4 32q0 22 -14 29.5t-54 7.5q-4 0 -4 6t4 6l44 -1q40 -2 69 -2q26 0 66 2l46 1q4 0 4 -6zM347 704.5q-35 26.5 -48 70.5q-2 6 15.5 11t34.5 5q11 0 13 -3 q14 -34 40.5 -52.5t63.5 -18.5q34 0 66.5 16.5t54.5 51.5q1 2 4 2q4 0 7.5 -2.5t2.5 -4.5q-28 -49 -71 -75.5t-94 -26.5q-54 0 -89 26.5z" />
<glyph unicode="&#x48b;" horiz-adv-x="468" d="M413 56q3 0 4.5 -3t0.5 -6t-12 -21t-19 -31q-65 -104 -121 -198q0 -1 -2 -1q-3 0 -5.5 2.5t-1.5 5.5q78 137 78 173q0 16 -14 16q-30 0 -30 44q0 15 5 47l20 114q-36 -100 -84.5 -155.5t-101.5 -55.5q-67 0 -67 76q0 19 7 56l36 178q3 15 3 25q0 30 -19 30 q-10 0 -24.5 -11t-36.5 -32q-2 -2 -4 -2q-3 0 -5 3.5t1 6.5q35 40 61 59t52 19q39 0 39 -49q0 -19 -6 -49l-32 -159q-6 -30 -6 -51q0 -55 40 -55q32 0 66 41t63.5 119t48.5 185q2 8 12 12.5t28 4.5q26 0 26 -7l-4 -20q-9 -43 -11 -55l-41 -223q-2 -9 -2 -25q0 -31 18 -31 q12 0 38 22zM195.5 488.5q-28.5 25.5 -32.5 65.5q-1 6 15.5 10.5t32.5 4.5q10 0 12 -3q8 -28 29 -44.5t48 -16.5q26 0 49 15t41 44q2 3 5 3q4 0 7.5 -2.5t2.5 -5.5q-20 -47 -56.5 -71.5t-80.5 -24.5t-72.5 25.5z" />
<glyph unicode="&#x48c;" horiz-adv-x="506" d="M424 316.5q51 -36.5 51 -109.5q0 -23 -4 -43q-14 -77 -73.5 -122.5t-145.5 -45.5q-24 0 -57 3q-13 1 -31.5 2t-40.5 1l-66 -1q-16 -1 -45 -1q-4 0 -4 6t4 6q33 0 49.5 6t25 20.5t14.5 44.5l66 380h-80q-4 0 -4 12q0 11 4 11h85l10 60q3 20 3 31q0 22 -13 29t-50 7 q-4 0 -4 6t4 6l46 -1q38 -2 59 -2q31 0 73 2l45 1q3 0 3 -6t-3 -6q-34 0 -52 -6.5t-27 -21.5t-14 -46l-9 -53h92q2 0 3.5 -3.5t1.5 -7.5t-1.5 -8t-3.5 -4h-96l-21 -115q33 5 72 5q83 0 134 -36.5zM398 202q0 64 -35 96t-97 32q-16 0 -52 -4l-43 -247q-2 -16 -2 -22 q0 -21 14.5 -31t52.5 -10q75 0 109.5 34.5t46.5 96.5q6 30 6 55z" />
<glyph unicode="&#x48d;" horiz-adv-x="363" d="M307.5 196.5q20.5 -17.5 20.5 -49.5q0 -37 -25 -74.5t-68.5 -61.5t-96.5 -24q-46 0 -67.5 16.5t-21.5 53.5q0 8 4 34l49 272h-69q-2 0 -3.5 4t-1.5 8t1.5 7.5t3.5 3.5h73l41 224q3 15 3 24q0 25 -20 25q-17 0 -49 -13h-1q-4 0 -5.5 5.5t2.5 6.5l137 67h2q4 0 7.5 -3 t2.5 -5l-59 -331h82q7 0 7 -11q0 -12 -7 -12h-86l-38 -211q22 29 56 45.5t72 16.5q34 0 54.5 -17.5zM244.5 168q-14.5 15 -36.5 15q-29 0 -56.5 -24t-36.5 -65q-3 -15 -3 -28q0 -31 14.5 -46.5t40.5 -15.5q28 0 49 20.5t32 49t11 51.5q0 28 -14.5 43z" />
<glyph unicode="&#x48e;" horiz-adv-x="512" d="M472 593q49 -35 49 -103q0 -11 -4 -37q-12 -65 -55.5 -109t-101.5 -66l44 -121q2 -4 -10.5 -8.5t-13.5 -0.5l-45 123q-35 -9 -65 -9q-25 0 -41 5q-1 0 -1 3q0 4 2 9t4 4q13 -4 30 -4q33 0 64 12l-42 114q-1 5 11 9.5t13 -0.5l41 -111q69 41 84 130q4 20 4 43q0 63 -33 99 t-81 36q-30 0 -43.5 -4.5t-21 -18.5t-13.5 -46l-81 -461q-4 -26 -4 -33q0 -21 13 -28.5t48 -7.5q2 0 2 -6t-2 -6q-27 0 -43 1l-64 1l-60 -1q-16 -1 -43 -1q-2 0 -2 6t2 6q31 0 46.5 5t23 19.5t13.5 44.5l81 463q4 17 4 33q0 21 -13 28.5t-47 7.5q-3 0 -3 6t3 6l42 -1 q36 -2 60 -2l48 2q46 4 74 4q78 0 127 -35z" />
<glyph unicode="&#x48f;" horiz-adv-x="406" d="M359.5 366.5q25.5 -26.5 25.5 -77.5q0 -16 -3 -36q-10 -70 -49 -131t-93 -94l47 -129q2 -4 -11 -8.5t-14 -0.5l-46 125q-37 -16 -71 -16q-31 0 -52 3l-32 -180q-3 -17 -3 -28q0 -17 8 -24.5t25 -7.5q6 0 24 2q4 1 5.5 -4.5t-2.5 -6.5l-178 -28q-4 -1 -5 5t3 7 q22 4 32 10.5t15 20.5t11 47l85 476q-6 -4 -46 -34l-2 -1q-4 0 -6 4.5t1 6.5q27 24 57 45l13 74q0 2 17 14.5t30.5 27.5t17.5 33q1 4 6.5 3t4.5 -5l-18 -103q69 37 129 37q49 0 74.5 -26.5zM317 255q0 98 -83 98q-39 0 -82 -20l-52 -289q37 -16 76 -16q16 0 33 5l-41 113v1 q0 5 11.5 9.5t13.5 -0.5l41 -111q33 21 53 66.5t28 108.5q2 24 2 35z" />
<glyph unicode="&#x490;" horiz-adv-x="462" d="M-2 6q0 6 4 6q33 0 50 6t25.5 20.5t14.5 44.5l82 463q3 18 3 31q0 22 -13 29t-50 7q-4 0 -4 6t4 6h261q63 0 97 28t55 98q2 2 5 2t5.5 -1.5t1.5 -3.5l-61 -214q0 -3 -5 -3q-2 0 -4.5 1.5t-1.5 4.5q1 5 1 14q0 30 -21.5 40t-72.5 10h-53q-38 0 -54 -13t-23 -47l-80 -458 q-3 -18 -3 -30q0 -25 19.5 -33t74.5 -8q3 0 3 -6t-3 -6q-38 0 -59 1l-83 1l-66 -1q-16 -1 -45 -1q-4 0 -4 6z" />
<glyph unicode="&#x491;" horiz-adv-x="332" d="M353 466q3 0 6 -1.5t2 -2.5q-13 -55 -21.5 -78t-26.5 -36.5t-52 -13.5h-86q4 -16 4 -29t-3 -28l-50 -268q-2 -8 -12 -12.5t-27 -4.5q-26 0 -26 7q1 6 6.5 31t8.5 44l38 211q4 19 4 32q0 17 -11 17q-24 0 -40.5 -10t-31.5 -30q-1 -1 -3 -1q-3 0 -5 3t-1 6q31 44 57 64 t56 20h136q31 0 47 18t27 60q0 2 4 2z" />
<glyph unicode="&#x492;" horiz-adv-x="476" d="M521 614l-23 -143q-1 -4 -6.5 -3.5t-5.5 4.5q4 62 -19.5 95.5t-72.5 33.5h-63q-38 0 -54.5 -13t-22.5 -47l-39 -219h97q5 0 5 -11q0 -4 -1.5 -7.5t-3.5 -3.5h-101l-38 -217q-3 -16 -3 -29q0 -26 19.5 -34t75.5 -8q4 0 4 -6t-4 -6q-38 0 -59 1l-83 1l-66 -1q-17 -1 -45 -1 q-4 0 -4 6t4 6q33 0 50 6t25.5 20.5t13.5 44.5l38 217h-56q-1 0 -2.5 3.5t-1.5 7.5t1 7.5t3 3.5h60l40 224q3 18 3 31q0 22 -13 29t-49 7q-4 0 -4 6t4 6h389q10 0 8 -11z" />
<glyph unicode="&#x493;" horiz-adv-x="329" d="M270 271q-25 -26 -67 -55l-22 -15l66 -23q4 -1 4 -7t-4 -11t-8 -4l-81 29q-27 -21 -43 -43t-21 -51q-1 -3 -1 -10q0 -26 18.5 -44.5t49.5 -18.5q48 0 105 57q1 1 3 1q3 0 5.5 -2.5t1.5 -5.5q-32 -40 -76 -61t-87 -21q-37 0 -63 19.5t-26 52.5q0 8 1 13q7 36 35 65.5 t72 58.5l-67 24q-3 2 -3 6q0 6 3.5 11t7.5 4l83 -30q34 23 51.5 43.5t21.5 47.5q1 4 1 11q0 22 -13 37.5t-40 15.5q-29 0 -55.5 -18t-52.5 -49l-2 -1q-3 0 -6 3t-2 5q35 47 77.5 70.5t87.5 23.5q31 0 54.5 -14.5t23.5 -42.5q0 -8 -1 -12q-6 -33 -31 -59z" />
<glyph unicode="&#x494;" horiz-adv-x="554" d="M478.5 347q35.5 -48 35.5 -119q0 -22 -5 -52q-15 -78 -66 -133t-123 -55q-39 0 -60.5 16.5t-21.5 41.5q0 6 1 9q7 34 38 34q34 0 36 -42q0 -20 6 -29.5t25 -9.5q35 0 54.5 32t31.5 97q7 44 7 71q0 68 -27 106.5t-75 38.5q-65 0 -140 -60l-37 -210q-5 -28 -5 -40 q0 -19 9.5 -25t35.5 -6q2 0 2 -6t-2 -6q-25 0 -38 1l-53 1l-63 -1q-17 -1 -47 -1q-3 0 -3 6t3 6q33 0 50.5 6t26 20.5t13.5 44.5l81 463q4 17 4 32q0 21 -13.5 28t-50.5 7q-3 0 -3 6t3 6h385q9 0 7 -11l-22 -141q-1 -3 -6.5 -2.5t-4.5 3.5q-2 63 -24.5 95t-69.5 32h-58 q-38 0 -54.5 -13.5t-22.5 -46.5l-39 -225q95 79 177 79q67 0 102.5 -48z" />
<glyph unicode="&#x495;" horiz-adv-x="399" d="M343.5 378.5q10.5 -7.5 10.5 -29.5q0 -23 -12 -71q-1 -4 -7 -3.5t-5 4.5q2 7 2 19q0 21 -12.5 31t-28.5 10h-131q6 -13 6 -33q0 -15 -3 -33l-19 -102q49 38 106 38q47 0 69 -26.5t22 -69.5q0 -16 -3 -34q-14 -74 -70 -148.5t-127 -122.5l-2 -1q-4 0 -6 4t0 6 q46 39 82 102t50 135q5 30 5 50q0 77 -58 77q-38 0 -71 -28l-26 -144q-2 -8 -12 -12.5t-27 -4.5q-27 0 -27 7l5 26q6 22 11 49l36 204q5 28 5 39q0 22 -16 22h-18q-2 0 -3.5 2.5t-0.5 4.5q23 23 38.5 31.5t43.5 8.5h159q24 0 34.5 -7.5z" />
<glyph unicode="&#x496;" horiz-adv-x="909" d="M965 619q0 -6 -3 -6q-97 0 -197 -114l-151 -168q27 -3 43 -16.5t29 -38.5t42 -91l16 -37q23 -54 37 -80.5t31.5 -41t43.5 -14.5q6 0 8 -1.5t2 -5.5q0 -6 -1 -10l-8 -44q-3 -13 -10.5 -52t-16.5 -91q-1 -3 -6.5 -2.5t-4.5 4.5q6 37 6 69q0 58 -22.5 89.5t-63.5 31.5 q-9 0 -13.5 4.5t-14.5 29.5t-26 67l-27 71q-26 67 -42 95t-35 38t-55 10q-9 0 -15 -1l-41 -235q-4 -19 -4 -33q0 -21 13.5 -27.5t52.5 -6.5q4 0 4 -6t-4 -6q-30 0 -47 1l-66 1l-64 -1q-16 -1 -45 -1q-3 0 -3 6t3 6q33 0 50 6t25.5 20.5t14.5 44.5l41 231q-5 1 -14 1 q-36 0 -58.5 -11t-47 -39t-78.5 -99q-65 -87 -90.5 -119t-35.5 -39.5t-21 -7.5h-121q-3 0 -2.5 6t2.5 6q31 1 60 20.5t59.5 54.5t83.5 105q45 58 69.5 85.5t45.5 39.5t49 15l-89 170q-57 111 -156 111q-4 0 -4 6t4 6l34 -1q34 -2 65 -2q30 0 70 2l46 1q4 0 4 -6t-4 -6 q-52 0 -52 -38q0 -28 30 -90l75 -152h11q12 0 68 -2l38 215q3 15 3 27q0 24 -15.5 32t-56.5 8q-4 0 -4 6t4 6l50 -1q40 -2 62 -2q30 0 74 2l46 1q4 0 4 -6t-4 -6q-48 0 -67 -15t-27 -59l-37 -208l64 2h15l127 154q33 42 49 66.5t16 38.5q0 21 -40 21q-3 0 -3 6t3 6l49 -1 q40 -2 68 -2q32 0 66 2l34 1q3 0 3 -6z" />
<glyph unicode="&#x497;" horiz-adv-x="678" d="M667 386.5q19 -13.5 19 -36.5q0 -16 -9 -26.5t-25 -10.5q-17 0 -24.5 8t-13.5 24q-5 13 -10.5 19.5t-16.5 6.5q-30 0 -52 -42.5t-33 -103.5q-8 -45 -8 -75q0 -58 20 -91t53 -33q35 0 70 35l2 1q3 0 6 -3.5t1 -5.5q-19 -25 -28 -44t-14 -42q-1 -5 -1 -14q0 -19 5 -41 q4 -22 4 -33q0 -7 -1 -11q-2 -14 -16.5 -31t-61.5 -64h-1q-3 0 -6 3t0 5q26 22 29 44q1 4 1 13q0 16 -5 34q-1 5 -3 17t-2 22q0 24 11.5 44.5t38.5 53.5q-32 -21 -67 -23q-46 -1 -68.5 39t-22.5 103q0 30 4 55h-76l-31 -174q-3 -17 -40 -17q-25 0 -25 7q1 6 6.5 31t8.5 44 l19 109h-76q-13 -63 -42 -107t-65 -66t-72 -22q-27 0 -45.5 16t-15.5 42q1 13 10.5 22.5t24.5 9.5q17 0 23.5 -8t13.5 -26q4 -13 9.5 -20.5t16.5 -7.5q29 0 51.5 42t34.5 103q8 40 8 82q0 55 -17.5 86.5t-49.5 31.5q-37 0 -70 -35h-2q-3 0 -6 3t-1 5q58 66 118 66 q43 0 64.5 -37t21.5 -96q0 -31 -6 -64h76l31 174q2 8 12 12.5t27 4.5q26 0 26 -7l-4 -21q-10 -43 -13 -62l-18 -101h76q13 63 42 107.5t64.5 66.5t70.5 23q26 0 45 -13.5z" />
<glyph unicode="&#x498;" horiz-adv-x="468" d="M426 441q-23 -38 -59 -65.5t-73 -39.5q56 -5 89.5 -39.5t33.5 -88.5q0 -16 -3 -34q-10 -61 -54 -107.5t-102 -64.5q-22 -7 -46 -58t-43 -136q0 -3 -5 -3q-2 0 -4.5 1.5t-1.5 3.5q11 61 11 99q0 77 -40 84q-22 4 -45.5 13.5t-36.5 21.5q-7 6 -9 10t-1 13l9 117q1 4 6.5 4 t5.5 -4q-1 -54 17.5 -91t48.5 -55t66 -18q56 0 93 46.5t48 115.5q4 21 4 43q0 57 -33 86.5t-96 29.5q-4 0 -4 6t4 6q69 0 110.5 39t53.5 109q4 20 4 41q0 46 -21 71.5t-58 25.5q-47 0 -94 -43t-78 -119q-1 -3 -4 -3q-2 0 -4.5 2t-1.5 5l34 122q5 15 7 18t10 6q76 25 141 25 q72 0 108 -31.5t36 -82.5q0 -43 -23 -81z" />
<glyph unicode="&#x499;" horiz-adv-x="335" d="M268 257q-25 -30 -66 -44q41 -3 62.5 -24t21.5 -53q0 -6 -2 -20q-8 -40 -39.5 -71t-76.5 -46q-15 -21 -20 -51q-2 -18 4 -51q4 -24 4 -35q0 -22 -14.5 -47t-65.5 -60h-1q-3 0 -5.5 3t0.5 5q22 20 28 45q1 4 1 12q0 10 -4 34q-5 20 -5 38q0 28 11.5 48t44.5 53 q-17 -4 -41 -4q-49 0 -75.5 18.5t-21.5 45.5q2 13 11 21t24 8q13 0 20.5 -8t15.5 -24q11 -18 24.5 -28t38.5 -10q38 0 57.5 29.5t19.5 73.5q0 39 -22 62.5t-65 23.5q-5 0 -5 6t5 6q82 3 94 74q2 14 2 20q0 29 -16.5 45t-41.5 16q-72 0 -115 -87q0 -2 -3 -2t-6 2.5t-2 5.5 l41 113q0 2 3 2t6.5 -2t2.5 -4q-1 -3 -1 -7q0 -6 3 -9.5t7 -3.5q3 0 33.5 12.5t67.5 12.5q38 0 62 -22t24 -57t-25 -65z" />
<glyph unicode="&#x49a;" horiz-adv-x="616" d="M650 619q0 -6 -3 -6q-46 0 -91.5 -28.5t-94.5 -85.5l-151 -168q26 -4 42.5 -17.5t30 -39.5t41.5 -89l19 -40q24 -51 38.5 -77t34 -41t46.5 -15q6 0 8 -1.5t2 -5.5q0 -6 -1 -10l-5 -24l-30 -163q-1 -3 -7 -2.5t-5 4.5q6 37 6 68q0 58 -22 90t-63 32q-10 0 -15 4 t-15.5 25.5t-25.5 58.5l-37 84q-34 72 -47.5 96.5t-31 35.5t-50.5 11h-10l-41 -236q-4 -26 -4 -32q0 -22 13.5 -28.5t52.5 -6.5q3 0 3 -6t-3 -6q-31 0 -48 1l-66 1l-64 -1q-16 -1 -44 -1q-4 0 -4 6t4 6q33 0 50 6t25.5 20.5t13.5 44.5l82 463q3 18 3 30q0 23 -13.5 30 t-51.5 7q-4 0 -4 6t4 6l46 -1q38 -2 61 -2q29 0 71 2l43 1q4 0 4 -6t-4 -6q-32 0 -49.5 -6.5t-26 -22t-13.5 -45.5l-37 -207q24 1 60 1h13l133 163q56 66 56 94q0 23 -38 23q-4 0 -4 6t4 6l40 -1q36 -2 65 -2q32 0 68 2l34 1q3 0 3 -6z" />
<glyph unicode="&#x49b;" horiz-adv-x="450" d="M369 -51q0 -10 2 -22t3 -17q5 -18 5 -32q0 -7 -1 -10q-3 -15 -17.5 -31.5t-61.5 -63.5q0 -1 -0.5 -1h-0.5q-2 0 -4.5 3.5t-1.5 4.5q14 12 20 22.5t8 21.5q1 4 1 13q0 11 -4 33q-5 20 -5 38q0 25 9.5 44t31.5 44q-13 -7 -29 -7q-31 0 -39.5 26.5t-8.5 88.5q0 50 -9 75 t-41 25q-11 0 -26 -3q-27 -45 -48 -95.5t-31 -96.5q-2 -8 -12 -12.5t-27 -4.5q-27 0 -27 7l4 20q9 43 11 55l41 223q3 15 3 25q0 31 -19 31q-24 0 -66 -44q-1 -1 -3 -1q-3 0 -5 3.5t0 5.5q34 40 63 59t56 19q20 0 29 -11.5t9 -36.5q0 -15 -5 -45l-30 -166q30 71 74.5 131 t89.5 94.5t77 34.5q21 0 32.5 -12t9.5 -30q-2 -14 -12.5 -23.5t-26.5 -9.5q-13 0 -29 10q-14 7 -20 7q-25 0 -59 -32.5t-68 -86.5q25 7 48 7q44 0 60.5 -27t16.5 -72q0 -53 4 -71.5t21 -18.5q20 0 58 36q2 2 5 1t4 -4l5 -5q-34 -35 -46 -54.5t-16 -44.5q-2 -12 -2 -17z" />
<glyph unicode="&#x49c;" horiz-adv-x="658" d="M692 619q0 -6 -4 -6q-90 0 -185 -114l-140 -168q27 -4 43.5 -18t29.5 -41t37 -87q37 -95 66 -134t77 -39q4 0 4 -6t-4 -6h-122q-13 0 -21.5 7.5t-25 44t-47.5 120.5q-22 58 -35 85.5t-29 41t-41 15.5l-30 -171q0 -1 -4.5 -2.5t-9.5 -1.5t-9 1t-4 3l30 172q-21 0 -71 -2 l-41 -234q-4 -26 -4 -33q0 -21 13.5 -27.5t52.5 -6.5q4 0 4 -6t-4 -6q-31 0 -48 1l-66 1l-64 -1q-16 -1 -45 -1q-4 0 -4 6t4 6q33 0 50 6t25.5 20.5t14.5 44.5l81 463q4 26 4 32q0 21 -13.5 28t-52.5 7q-3 0 -3 6t3 6l46 -1q38 -2 62 -2q27 0 69 2l45 1q4 0 4 -6t-4 -6 q-33 0 -50 -6.5t-25.5 -21.5t-13.5 -46l-37 -209q52 2 71 2l28 160q2 5 15 5q5 0 9.5 -1.5t3.5 -3.5l-28 -159h30h13l122 163q28 37 41 60t13 36q0 21 -36 21q-4 0 -4 6t4 6l40 -1q36 -2 65 -2q33 0 67 2l34 1q4 0 4 -6z" />
<glyph unicode="&#x49d;" horiz-adv-x="480" d="M256 210q26 -2 39.5 -10.5t21.5 -23.5t30 -63q4 -8 14.5 -31.5t18.5 -32.5t17 -9q10 0 21 8t27 25q1 1 3 1q4 0 6 -3.5t0 -5.5l-28 -28q-26 -27 -39.5 -37.5t-29.5 -10.5q-20 0 -33.5 21.5t-43.5 87.5q-23 51 -33.5 67.5t-31.5 22.5l-17 -99q0 -3 -4 -4.5t-9 -1.5 q-4 0 -7.5 1.5t-2.5 4.5l18 102q-24 0 -40 -1l-32 -181q-2 -8 -12 -12.5t-27 -4.5q-27 0 -27 7l4 20q9 43 11 55l41 223q3 15 3 25q0 31 -19 31q-24 0 -66 -44q-1 -1 -3 -1q-3 0 -5 3.5t0 5.5q34 40 63 59t56 19q20 0 29 -11.5t9 -36.5q0 -15 -5 -45l-17 -94l40 2l17 95 q1 7 13 7t9 -7l-16 -95h24q51 100 92 143t81 43q21 0 33 -11t12 -27q0 -15 -11 -26.5t-29 -11.5q-12 0 -26 8q-2 1 -8.5 4.5t-14.5 3.5q-36 0 -116 -126z" />
<glyph unicode="&#x49e;" horiz-adv-x="600" d="M633 619q0 -6 -4 -6q-45 0 -90 -28.5t-95 -85.5l-150 -168q26 -4 42.5 -18t30 -39.5t41.5 -88.5q33 -69 52 -101.5t42 -52t56 -19.5q4 0 4 -6t-4 -6h-123q-12 0 -19.5 8t-23 40.5t-56.5 123.5q-34 72 -47.5 96.5t-31 35.5t-50.5 11h-10l-41 -236q-4 -26 -4 -33 q0 -21 13.5 -27.5t52.5 -6.5q4 0 4 -6t-4 -6q-31 0 -48 1l-66 1l-64 -1q-16 -1 -45 -1q-4 0 -4 6t4 6q33 0 50 6t25.5 20.5t14.5 44.5l69 393h-68q-4 0 -4 12q0 11 4 11h72l8 47q4 26 4 32q0 21 -13.5 28t-52.5 7q-3 0 -3 6t3 6l46 -1q38 -2 62 -2q27 0 69 2l45 1q4 0 4 -6 t-4 -6q-33 0 -50 -6.5t-25.5 -21.5t-13.5 -46l-7 -40h81q2 0 3.5 -3.5t1.5 -7.5t-1.5 -8t-3.5 -4h-85l-26 -144q24 1 59 1h14l133 163q56 66 56 94q0 23 -39 23q-4 0 -4 6t4 6l40 -1q38 -2 65 -2q34 0 68 2l33 1q4 0 4 -6z" />
<glyph unicode="&#x49f;" horiz-adv-x="429" d="M401 74q4 0 6 -3.5t-1 -5.5q-40 -44 -59 -60t-43 -16q-23 0 -33.5 15t-13 40t-2.5 75q0 40 -10 62.5t-40 22.5q-11 0 -25 -3q-27 -45 -48 -95.5t-31 -96.5q-2 -8 -12 -12.5t-27 -4.5q-27 0 -27 7l4 20q9 43 11 55l80 428h-71q-6 0 -6 12q0 4 1.5 7.5t4.5 3.5h75l16 85 q2 9 2 24q0 26 -20 26q-14 0 -47 -14h-1q-4 0 -6 5t2 7l138 67h2q4 0 7 -3t2 -5l-35 -192h132q3 0 4.5 -3.5t1.5 -7.5q0 -12 -6 -12h-136l-53 -295l-13 -69q30 71 74.5 130t89 93.5t76.5 34.5q19 0 30.5 -10.5t11.5 -26.5t-10.5 -27t-27.5 -11q-11 0 -29 9q-14 8 -21 8 q-25 0 -59 -32.5t-68 -86.5q25 7 48 7q44 0 60.5 -27t16.5 -72q0 -54 3.5 -72t20.5 -18q22 0 58 36q1 1 3 1z" />
<glyph unicode="&#x4a0;" horiz-adv-x="707" d="M741 619q0 -6 -5 -6q-44 0 -89 -28.5t-96 -85.5l-151 -168q26 -4 42 -18t29 -37.5t44 -90.5q35 -72 53 -103.5t41.5 -50.5t55.5 -19q4 0 4 -6t-4 -6h-122q-11 0 -18 7t-24.5 42t-44.5 95l-13 28q-33 70 -47.5 95.5t-32 36.5t-49.5 11h-10l-42 -236q-4 -26 -4 -32 q0 -22 14 -28.5t54 -6.5q3 0 3 -6t-3 -6q-32 0 -49 1l-65 1l-66 -1q-16 -1 -44 -1q-4 0 -4 6t4 6q33 0 50.5 6t25.5 20.5t13 44.5l82 462q4 19 4 34q0 17 -10 22t-40 5q-52 0 -93 -40t-58 -108q0 -3 -6 -3q-2 0 -4.5 1.5t-1.5 3.5q10 36 25.5 97t20.5 91q1 5 6.5 4t4.5 -5 q-4 -21 37 -24q29 -1 159 -1q28 0 72 2l44 1q4 0 4 -6t-4 -6q-33 0 -50 -6.5t-25.5 -21.5t-13.5 -46l-37 -207q24 1 59 1h14l133 163q55 67 55 94q0 23 -38 23q-4 0 -4 6t4 6l40 -1q38 -2 65 -2q33 0 67 2l34 1q5 0 5 -6z" />
<glyph unicode="&#x4a1;" horiz-adv-x="482" d="M455 74q4 0 6 -3.5t-1 -5.5q-42 -45 -60.5 -60.5t-42.5 -15.5q-23 0 -33.5 15t-13 40t-2.5 75q0 40 -10 62.5t-39 22.5q-11 0 -26 -3q-27 -46 -48 -96t-30 -96q-2 -8 -12 -12.5t-28 -4.5q-27 0 -27 7q1 6 6.5 30t9.5 45l31 170q8 44 32 82q-8 -2 -12 -2q-19 0 -45 11 q-28 12 -52 12q-15 0 -25 -6.5t-24 -20.5h-1q-3 0 -5.5 2.5t-0.5 4.5q16 24 41 46t50 22q19 0 49 -12q26 -11 42 -11q17 0 27 7t26 23q0 1 2 1t4 -3t1 -5q-14 -17 -23 -39.5t-21 -89.5l-23 -131q30 72 74 131.5t89 94.5t77 35q20 0 31 -10.5t11 -26.5t-10.5 -27t-27.5 -11 q-11 0 -29 9q-14 8 -21 8q-25 0 -59 -33t-67 -86q24 7 47 7q44 0 60.5 -27t16.5 -72q0 -53 3.5 -71.5t20.5 -18.5q21 0 59 36q1 1 3 1z" />
<glyph unicode="&#x4a2;" horiz-adv-x="712" d="M747 619q0 -6 -2 -6q-34 0 -51.5 -6t-26.5 -20.5t-14 -44.5l-81 -463q-6 -30 -6 -44q0 -16 10.5 -19.5t46.5 -3.5q6 0 8 -1.5t2 -5.5l-1 -10l-7 -36q-21 -107 -28 -151q-1 -4 -6.5 -3t-4.5 5q7 38 7 72q0 60 -26.5 89t-83.5 29h-74q-4 0 -4 6t4 6q35 0 52.5 6t26 20.5 t13.5 44.5l41 231h-328l-41 -235q-4 -26 -4 -32q0 -22 14 -28.5t54 -6.5q3 0 3 -6t-3 -6q-31 0 -48 1l-67 1l-66 -1q-16 -1 -44 -1q-4 0 -4 6t4 6q33 0 50.5 6t25.5 20.5t13 44.5l82 463q4 17 4 32q0 21 -14 28t-52 7q-3 0 -3 6t3 6l48 -1q38 -2 61 -2q31 0 73 2l42 1 q4 0 4 -6t-4 -6q-33 0 -51 -6.5t-26.5 -22t-13.5 -45.5l-36 -202h328l36 207q4 26 4 32q0 22 -14 29.5t-54 7.5q-3 0 -3 6t3 6l46 -1q40 -2 68 -2q24 0 66 2l47 1q2 0 2 -6z" />
<glyph unicode="&#x4a3;" horiz-adv-x="475" d="M416.5 13.5q-11.5 -22.5 -15.5 -47.5q-1 -5 -1 -15q0 -18 5 -40q4 -22 4 -32q0 -8 -1 -11q-4 -21 -20.5 -43.5t-58.5 -51.5q0 -1 -0.5 -1h-0.5q-2 0 -4.5 3.5t-1.5 4.5q14 12 20 22.5t8 21.5q1 4 1 13q0 11 -4 33q-5 20 -5 38q0 14 2 21q3 19 13.5 35.5t34.5 45.5 q-29 -19 -55 -19q-20 0 -29.5 11.5t-9.5 36.5q0 15 5 45l18 99h-169l-31 -174q-2 -8 -12 -12.5t-27 -4.5q-27 0 -27 7l4 20q9 43 11 55l41 223q3 15 3 25q0 31 -19 31q-24 0 -66 -44q-1 -1 -3 -1q-3 0 -5 3.5t0 5.5q34 40 63 59t56 19q20 0 29 -11.5t9 -36.5q0 -15 -5 -45 l-18 -99h169l31 175q2 8 12 12.5t27 4.5q27 0 27 -7l-4 -22q-10 -47 -11 -53l-41 -224q-3 -15 -3 -25q0 -31 20 -31q23 0 64 44l2 1q3 0 6 -3.5t1 -5.5q-27 -33 -38.5 -55.5z" />
<glyph unicode="&#x4a4;" horiz-adv-x="803" d="M848 614l-23 -143q-1 -4 -7 -3.5t-5 4.5q1 7 1 21q0 51 -24 79.5t-68 28.5h-46q-38 0 -55 -13.5t-22 -46.5l-81 -458q-3 -18 -3 -29q0 -26 19.5 -34t75.5 -8q4 0 4 -6t-4 -6q-38 0 -59 1l-84 1l-66 -1q-16 -1 -45 -1q-4 0 -4 6t4 6q34 0 51 6t25.5 20.5t13.5 44.5l41 231 h-282l-41 -233q-4 -26 -4 -33q0 -21 13 -28.5t48 -7.5q3 0 3 -6t-3 -6q-27 0 -43 1l-64 1l-60 -1q-15 -1 -42 -1q-3 0 -3 6t3 6q31 0 46 5t23 19.5t13 44.5l82 463q4 26 4 32q0 22 -13 29.5t-48 7.5q-2 0 -2 6t2 6l43 -1q36 -2 59 -2t63 2l44 1q2 0 2 -6t-2 -6 q-30 0 -45.5 -6t-23 -20.5t-13.5 -44.5l-36 -205h281l37 209q4 17 4 33q0 20 -13.5 27t-49.5 7q-4 0 -4 6t4 6h371q10 0 8 -11z" />
<glyph unicode="&#x4a5;" horiz-adv-x="557" d="M538.5 378q9.5 -8 9.5 -30q0 -26 -10 -70q-1 -4 -7 -3.5t-5 4.5q2 12 2 17q0 22 -12.5 32.5t-28.5 10.5h-98q6 -13 6 -35q0 -14 -3 -31l-33 -183q-3 -15 -3 -26q0 -30 19 -30q23 0 65 44q1 1 3 1q4 0 6 -3.5t0 -6.5q-37 -40 -65 -58.5t-54 -18.5q-20 0 -29 11.5t-9 35.5 q0 15 5 45l17 99h-162l-31 -174q-2 -8 -12 -12.5t-27 -4.5q-27 0 -27 7l4 20q9 43 11 55l41 223q3 15 3 25q0 31 -19 31q-24 0 -66 -44q-1 -1 -3 -1q-3 0 -5 3.5t0 5.5q34 40 63 59t56 19q20 0 29 -11.5t9 -36.5q0 -15 -5 -45l-18 -99h163l13 75q5 27 5 38q0 13 -4 18t-13 5 h-17q-2 0 -3.5 2.5t-0.5 4.5q20 24 36 32t46 8h125q24 0 33.5 -8z" />
<glyph unicode="&#x4a8;" horiz-adv-x="717" d="M633 165q-49 -73 -120 -119q54 -30 119 -30q4 0 4 -8t-4 -8q-79 0 -148 30q-78 -42 -162 -42q-78 0 -137 36.5t-90.5 99.5t-31.5 140q0 35 8 77q20 100 80 166.5t145 104.5q3 1 6.5 -5t-0.5 -7q-55 -36 -91 -89.5t-52 -135.5q-10 -51 -10 -101q0 -78 25.5 -138t72.5 -93 t108 -33q57 0 108 30q-80 42 -126.5 118.5t-46.5 170.5q0 32 6 65q12 69 46.5 124.5t83.5 86.5t104 31q56 0 95.5 -32t59.5 -85t20 -117q0 -41 -7 -77q-16 -87 -65 -160zM376 335q0 -93 30.5 -164t84.5 -111q44 37 75 98.5t46 145.5q9 54 9 102q0 63 -15 111.5t-41.5 75 t-59.5 26.5q-46 0 -76.5 -50t-44.5 -138q-8 -54 -8 -96z" />
<glyph unicode="&#x4a9;" horiz-adv-x="467" d="M391.5 95.5q-37.5 -53.5 -89.5 -82.5q28 -29 68 -45q1 0 1 -2q0 -3 -2.5 -5.5t-3.5 -1.5q-50 15 -87 43q-37 -15 -76 -15q-56 0 -95 23.5t-58 62t-19 84.5q0 19 3 37q12 71 55.5 122.5t104.5 74.5q2 0 4 -5.5t0 -8.5q-36 -18 -59 -57t-34 -106q-4 -21 -4 -46 q0 -72 35.5 -117.5t93.5 -45.5q21 0 36 7q-41 33 -62.5 79t-21.5 98q0 24 4 44q9 51 33 88.5t56 57.5t64 20q50 0 79 -38t29 -98q0 -23 -4 -43q-13 -71 -50.5 -124.5zM246 181q0 -95 45 -155q57 45 78 178q6 36 6 67q0 50 -14 79.5t-40 29.5q-24 0 -41.5 -30.5t-26.5 -90.5 q-7 -47 -7 -78z" />
<glyph unicode="&#x4aa;" horiz-adv-x="586" d="M290 -195q-3 0 -5.5 1.5t-1.5 3.5q12 58 12 101q0 76 -40 82q-102 18 -150 87t-48 163q0 31 7 73q17 95 73.5 168t135.5 112.5t161 39.5q41 0 82.5 -9t64.5 -24q6 -4 7.5 -8.5t0.5 -15.5l-12 -118q-1 -4 -6 -4t-5 4q-10 76 -54.5 113.5t-115.5 37.5q-62 0 -114 -32.5 t-86.5 -92.5t-46.5 -141q-7 -41 -7 -84q0 -74 22 -133t63.5 -92.5t96.5 -33.5t108.5 37.5t101.5 113.5q2 2 4 2q3 0 5 -2t1 -4l-29 -110q-3 -12 -6 -16.5t-12 -6.5q-57 -19 -117 -25q-20 -3 -43.5 -51.5t-41.5 -132.5q-1 -3 -5 -3z" />
<glyph unicode="&#x4ab;" horiz-adv-x="346" d="M312.5 383.5q26.5 -15.5 26.5 -41.5q0 -17 -10 -29t-29 -12q-31 0 -40 36q-11 38 -48 38q-42 0 -69 -38.5t-38 -102.5q-7 -40 -7 -66q0 -64 27 -103t81 -39q49 0 100 41l2 1q3 0 5.5 -4t0.5 -6q-59 -54 -120 -67q-11 -17 -16 -45q-2 -18 4 -51q4 -24 4 -35 q0 -22 -14.5 -47t-65.5 -60h-1q-3 0 -5.5 3t0.5 5q22 20 28 45q1 4 1 12q0 10 -4 34q-5 20 -5 38q0 27 11.5 47.5t41.5 50.5q-5 -1 -15 -1q-66 0 -98.5 45t-32.5 112q0 30 6 58q11 59 45.5 104t80.5 69t91 24q36 0 62.5 -15.5z" />
</font>
</defs>
</svg>
